<svg xmlns="http://www.w3.org/2000/svg" xmlns:xlink="http://www.w3.org/1999/xlink" contentStyleType="text/css" height="664px" preserveAspectRatio="none" style="width:1760px;height:664px;background:#FFFFFF;" version="1.1" viewBox="0 0 1760 664" width="1760px" zoomAndPan="magnify"><title>Sequence Diagram - TripTop (Booking.com API)</title><defs/><g><text fill="#000000" font-family="sans-serif" font-size="14" font-weight="bold" lengthAdjust="spacing" textLength="319.6963" x="719.4409" y="30.1074">Sequence Diagram - TripTop (Booking.com API)</text><line style="stroke:#181818;stroke-width:0.5;stroke-dasharray:5.0,5.0;" x1="22" x2="22" y1="123.2422" y2="581.3164"/><line style="stroke:#181818;stroke-width:0.5;stroke-dasharray:5.0,5.0;" x1="217.8906" x2="217.8906" y1="123.2422" y2="581.3164"/><line style="stroke:#181818;stroke-width:0.5;stroke-dasharray:5.0,5.0;" x1="519.8359" x2="519.8359" y1="123.2422" y2="581.3164"/><line style="stroke:#181818;stroke-width:0.5;stroke-dasharray:5.0,5.0;" x1="765.6772" x2="765.6772" y1="123.2422" y2="581.3164"/><line style="stroke:#181818;stroke-width:0.5;stroke-dasharray:5.0,5.0;" x1="1023.0835" x2="1023.0835" y1="123.2422" y2="581.3164"/><line style="stroke:#181818;stroke-width:0.5;stroke-dasharray:5.0,5.0;" x1="1221.8145" x2="1221.8145" y1="123.2422" y2="581.3164"/><line style="stroke:#181818;stroke-width:0.5;stroke-dasharray:5.0,5.0;" x1="1425.9072" x2="1425.9072" y1="123.2422" y2="581.3164"/><line style="stroke:#181818;stroke-width:0.5;stroke-dasharray:5.0,5.0;" x1="1693.1924" x2="1693.1924" y1="123.2422" y2="581.3164"/><text fill="#000000" font-family="sans-serif" font-size="14" lengthAdjust="spacing" textLength="29.5586" x="5" y="119.7285">User</text><ellipse cx="22.7793" cy="53.1211" fill="#E2E2F0" rx="8" ry="8" style="stroke:#181818;stroke-width:0.5;"/><path d="M22.7793,61.1211 L22.7793,88.1211 M9.7793,69.1211 L35.7793,69.1211 M22.7793,88.1211 L9.7793,103.1211 M22.7793,88.1211 L35.7793,103.1211 " fill="none" style="stroke:#181818;stroke-width:0.5;"/><text fill="#000000" font-family="sans-serif" font-size="14" lengthAdjust="spacing" textLength="29.5586" x="5" y="595.4238">User</text><ellipse cx="22.7793" cy="607.4375" fill="#E2E2F0" rx="8" ry="8" style="stroke:#181818;stroke-width:0.5;"/><path d="M22.7793,615.4375 L22.7793,642.4375 M9.7793,623.4375 L35.7793,623.4375 M22.7793,642.4375 L9.7793,657.4375 M22.7793,642.4375 L35.7793,657.4375 " fill="none" style="stroke:#181818;stroke-width:0.5;"/><rect fill="#E2E2F0" height="32.6211" rx="2.5" ry="2.5" style="stroke:#181818;stroke-width:0.5;" width="133.8203" x="151.8906" y="89.6211"/><text fill="#000000" font-family="sans-serif" font-size="14" lengthAdjust="spacing" textLength="119.8203" x="158.8906" y="111.7285">Frontend (React.js)</text><rect fill="#E2E2F0" height="32.6211" rx="2.5" ry="2.5" style="stroke:#181818;stroke-width:0.5;" width="133.8203" x="151.8906" y="580.3164"/><text fill="#000000" font-family="sans-serif" font-size="14" lengthAdjust="spacing" textLength="119.8203" x="158.8906" y="602.4238">Frontend (React.js)</text><rect fill="#E2E2F0" height="32.6211" rx="2.5" ry="2.5" style="stroke:#181818;stroke-width:0.5;" width="154.8545" x="442.8359" y="89.6211"/><text fill="#000000" font-family="sans-serif" font-size="14" lengthAdjust="spacing" textLength="140.8545" x="449.8359" y="111.7285">Backend (Spring Boot)</text><rect fill="#E2E2F0" height="32.6211" rx="2.5" ry="2.5" style="stroke:#181818;stroke-width:0.5;" width="154.8545" x="442.8359" y="580.3164"/><text fill="#000000" font-family="sans-serif" font-size="14" lengthAdjust="spacing" textLength="140.8545" x="449.8359" y="602.4238">Backend (Spring Boot)</text><rect fill="#E2E2F0" height="32.6211" rx="2.5" ry="2.5" style="stroke:#181818;stroke-width:0.5;" width="122.9238" x="704.6772" y="89.6211"/><text fill="#000000" font-family="sans-serif" font-size="14" lengthAdjust="spacing" textLength="108.9238" x="711.6772" y="111.7285">TripTopController</text><rect fill="#E2E2F0" height="32.6211" rx="2.5" ry="2.5" style="stroke:#181818;stroke-width:0.5;" width="122.9238" x="704.6772" y="580.3164"/><text fill="#000000" font-family="sans-serif" font-size="14" lengthAdjust="spacing" textLength="108.9238" x="711.6772" y="602.4238">TripTopController</text><rect fill="#E2E2F0" height="32.6211" rx="2.5" ry="2.5" style="stroke:#181818;stroke-width:0.5;" width="108.9307" x="969.0835" y="89.6211"/><text fill="#000000" font-family="sans-serif" font-size="14" lengthAdjust="spacing" textLength="94.9307" x="976.0835" y="111.7285">TripTopFacade</text><rect fill="#E2E2F0" height="32.6211" rx="2.5" ry="2.5" style="stroke:#181818;stroke-width:0.5;" width="108.9307" x="969.0835" y="580.3164"/><text fill="#000000" font-family="sans-serif" font-size="14" lengthAdjust="spacing" textLength="94.9307" x="976.0835" y="602.4238">TripTopFacade</text><rect fill="#E2E2F0" height="32.6211" rx="2.5" ry="2.5" style="stroke:#181818;stroke-width:0.5;" width="111.2754" x="1166.8145" y="89.6211"/><text fill="#000000" font-family="sans-serif" font-size="14" lengthAdjust="spacing" textLength="97.2754" x="1173.8145" y="111.7285">BookingService</text><rect fill="#E2E2F0" height="32.6211" rx="2.5" ry="2.5" style="stroke:#181818;stroke-width:0.5;" width="111.2754" x="1166.8145" y="580.3164"/><text fill="#000000" font-family="sans-serif" font-size="14" lengthAdjust="spacing" textLength="97.2754" x="1173.8145" y="602.4238">BookingService</text><rect fill="#E2E2F0" height="32.6211" rx="2.5" ry="2.5" style="stroke:#181818;stroke-width:0.5;" width="122.9512" x="1364.9072" y="89.6211"/><text fill="#000000" font-family="sans-serif" font-size="14" lengthAdjust="spacing" textLength="108.9512" x="1371.9072" y="111.7285">BookingAPIClient</text><rect fill="#E2E2F0" height="32.6211" rx="2.5" ry="2.5" style="stroke:#181818;stroke-width:0.5;" width="122.9512" x="1364.9072" y="580.3164"/><text fill="#000000" font-family="sans-serif" font-size="14" lengthAdjust="spacing" textLength="108.9512" x="1371.9072" y="602.4238">BookingAPIClient</text><rect fill="#E2E2F0" height="32.6211" rx="2.5" ry="2.5" style="stroke:#181818;stroke-width:0.5;" width="121.3857" x="1633.1924" y="89.6211"/><text fill="#000000" font-family="sans-serif" font-size="14" lengthAdjust="spacing" textLength="107.3857" x="1640.1924" y="111.7285">Booking.com API</text><rect fill="#E2E2F0" height="32.6211" rx="2.5" ry="2.5" style="stroke:#181818;stroke-width:0.5;" width="121.3857" x="1633.1924" y="580.3164"/><text fill="#000000" font-family="sans-serif" font-size="14" lengthAdjust="spacing" textLength="107.3857" x="1640.1924" y="602.4238">Booking.com API</text><polygon fill="#181818" points="206.8008,152.5332,216.8008,156.5332,206.8008,160.5332,210.8008,156.5332" style="stroke:#181818;stroke-width:1.0;"/><line style="stroke:#181818;stroke-width:1.0;" x1="22.7793" x2="212.8008" y1="156.5332" y2="156.5332"/><text fill="#000000" font-family="sans-serif" font-size="13" lengthAdjust="spacing" textLength="140.918" x="29.7793" y="151.2705">1. Voert zoekopdracht in</text><polygon fill="#181818" points="508.2632,183.8242,518.2632,187.8242,508.2632,191.8242,512.2632,187.8242" style="stroke:#181818;stroke-width:1.0;"/><line style="stroke:#181818;stroke-width:1.0;" x1="218.8008" x2="514.2632" y1="187.8242" y2="187.8242"/><text fill="#000000" font-family="sans-serif" font-size="13" lengthAdjust="spacing" textLength="277.4624" x="225.8008" y="182.5615">2. Verstuurt zoekopdracht naar backend (HTTP)</text><polygon fill="#181818" points="754.1392,215.1152,764.1392,219.1152,754.1392,223.1152,758.1392,219.1152" style="stroke:#181818;stroke-width:1.0;"/><line style="stroke:#181818;stroke-width:1.0;" x1="520.2632" x2="760.1392" y1="219.1152" y2="219.1152"/><text fill="#000000" font-family="sans-serif" font-size="13" lengthAdjust="spacing" textLength="210.3105" x="527.2632" y="213.8525">3. Verzoek ontvangen en doorsturen</text><polygon fill="#181818" points="1011.5488,246.4063,1021.5488,250.4063,1011.5488,254.4063,1015.5488,250.4063" style="stroke:#181818;stroke-width:1.0;"/><line style="stroke:#181818;stroke-width:1.0;" x1="766.1392" x2="1017.5488" y1="250.4063" y2="250.4063"/><text fill="#000000" font-family="sans-serif" font-size="13" lengthAdjust="spacing" textLength="230.5278" x="773.1392" y="245.1436">4. Roept de facade aan voor verwerking</text><polygon fill="#181818" points="1210.4521,277.6973,1220.4521,281.6973,1210.4521,285.6973,1214.4521,281.6973" style="stroke:#181818;stroke-width:1.0;"/><line style="stroke:#181818;stroke-width:1.0;" x1="1023.5488" x2="1216.4521" y1="281.6973" y2="281.6973"/><text fill="#000000" font-family="sans-serif" font-size="13" lengthAdjust="spacing" textLength="159.0088" x="1030.5488" y="276.4346">5. Vraagt hotelgegevens op</text><polygon fill="#181818" points="1414.3828,308.9883,1424.3828,312.9883,1414.3828,316.9883,1418.3828,312.9883" style="stroke:#181818;stroke-width:1.0;"/><line style="stroke:#181818;stroke-width:1.0;" x1="1222.4521" x2="1420.3828" y1="312.9883" y2="312.9883"/><text fill="#000000" font-family="sans-serif" font-size="13" lengthAdjust="spacing" textLength="177.7725" x="1229.4521" y="307.7256">6. Roept Booking.com API aan</text><polygon fill="#181818" points="1681.8853,340.2793,1691.8853,344.2793,1681.8853,348.2793,1685.8853,344.2793" style="stroke:#181818;stroke-width:1.0;"/><line style="stroke:#181818;stroke-width:1.0;" x1="1426.3828" x2="1687.8853" y1="344.2793" y2="344.2793"/><text fill="#000000" font-family="sans-serif" font-size="13" lengthAdjust="spacing" textLength="243.5024" x="1433.3828" y="339.0166">7. Vraagt hotelgegevens op (HTTP/JSON)</text><polygon fill="#181818" points="1437.3828,371.5703,1427.3828,375.5703,1437.3828,379.5703,1433.3828,375.5703" style="stroke:#181818;stroke-width:1.0;"/><line style="stroke:#181818;stroke-width:1.0;stroke-dasharray:2.0,2.0;" x1="1431.3828" x2="1692.8853" y1="375.5703" y2="375.5703"/><text fill="#000000" font-family="sans-serif" font-size="13" lengthAdjust="spacing" textLength="218.2261" x="1443.3828" y="370.3076">8. Retourneert hotelgegevens (JSON)</text><polygon fill="#181818" points="1233.4521,402.8613,1223.4521,406.8613,1233.4521,410.8613,1229.4521,406.8613" style="stroke:#181818;stroke-width:1.0;"/><line style="stroke:#181818;stroke-width:1.0;stroke-dasharray:2.0,2.0;" x1="1227.4521" x2="1425.3828" y1="406.8613" y2="406.8613"/><text fill="#000000" font-family="sans-serif" font-size="13" lengthAdjust="spacing" textLength="179.9307" x="1239.4521" y="401.5986">9. Verwerkt en retourneert data</text><polygon fill="#181818" points="1034.5488,434.1523,1024.5488,438.1523,1034.5488,442.1523,1030.5488,438.1523" style="stroke:#181818;stroke-width:1.0;"/><line style="stroke:#181818;stroke-width:1.0;stroke-dasharray:2.0,2.0;" x1="1028.5488" x2="1221.4521" y1="438.1523" y2="438.1523"/><text fill="#000000" font-family="sans-serif" font-size="13" lengthAdjust="spacing" textLength="174.9033" x="1040.5488" y="432.8896">10. Geeft hotelgegevens terug</text><polygon fill="#181818" points="777.1392,465.4434,767.1392,469.4434,777.1392,473.4434,773.1392,469.4434" style="stroke:#181818;stroke-width:1.0;"/><line style="stroke:#181818;stroke-width:1.0;stroke-dasharray:2.0,2.0;" x1="771.1392" x2="1022.5488" y1="469.4434" y2="469.4434"/><text fill="#000000" font-family="sans-serif" font-size="13" lengthAdjust="spacing" textLength="233.4097" x="783.1392" y="464.1807">11. Stuur resultaten terug naar controller</text><polygon fill="#181818" points="531.2632,496.7344,521.2632,500.7344,531.2632,504.7344,527.2632,500.7344" style="stroke:#181818;stroke-width:1.0;"/><line style="stroke:#181818;stroke-width:1.0;stroke-dasharray:2.0,2.0;" x1="525.2632" x2="765.1392" y1="500.7344" y2="500.7344"/><text fill="#000000" font-family="sans-serif" font-size="13" lengthAdjust="spacing" textLength="221.876" x="537.2632" y="495.4717">12. Geeft antwoord terug aan backend</text><polygon fill="#181818" points="229.8008,528.0254,219.8008,532.0254,229.8008,536.0254,225.8008,532.0254" style="stroke:#181818;stroke-width:1.0;"/><line style="stroke:#181818;stroke-width:1.0;stroke-dasharray:2.0,2.0;" x1="223.8008" x2="519.2632" y1="532.0254" y2="532.0254"/><text fill="#000000" font-family="sans-serif" font-size="13" lengthAdjust="spacing" textLength="263.0088" x="235.8008" y="526.7627">13. Retourneert hotelgegevens (HTTP/JSON)</text><polygon fill="#181818" points="33.7793,559.3164,23.7793,563.3164,33.7793,567.3164,29.7793,563.3164" style="stroke:#181818;stroke-width:1.0;"/><line style="stroke:#181818;stroke-width:1.0;stroke-dasharray:2.0,2.0;" x1="27.7793" x2="217.8008" y1="563.3164" y2="563.3164"/><text fill="#000000" font-family="sans-serif" font-size="13" lengthAdjust="spacing" textLength="172.0215" x="39.7793" y="558.0537">14. Toont hotels op de pagina</text><!--SRC=[VPDDSzD038Rl-oiqFIM76D821H-OwSUqm04wjU4kRDNTnjqryjgTuTUZNTln1uQP71BbrIlvqMkdNKcGqA-6J4PmhR5WV8OTfAohr5QmkRJse4qHPVOPBku-RvN2p5c6xpMngf2TpdI5ni793LlZoEImkIVHH4_rzWImXg4-LrzYTWZYf6Bn1vdZEdt_prpUxtCbLcpBaZX8nv-hwXlCCATkYV1riKBtQ0bngxDEDY-joWN2LQd9k6d3iRZQCi1RT2Zb8SBkun5H3Fi8VbXY1xyj7MoLCsQF3hHHHxeYxmd5S2fgujerpRB383By71X_IjExhHgGYyC8BeQpOEAxGQejce8Co2Utrbip6JNAmxQ1PGnl8hYtL3d82Hv23H0DjD87BV4BiNzGrSd3tZEwCRoLoOnOE7YqZig22ch9r60hDPTEce-aOtWtp5zWzbkefNnk4SFvFsTtk5vzIRvztKviOBUwn7jPWfnjs90_szniipGPTbc1yI6SmKDpdZvFJ7Dq-1UHoI7shoEu9NfOZdV4pSX_SVQzH2tnoP5HTLCwb7Hr7Lruil7Tcfv_6h_zwJ1NqluYPyzx0n-3FdnZwkOvF_iljya5nk2BWNzXf5cIbrefTstXQFA45HRQeFe3]--></g></svg>