<svg xmlns="http://www.w3.org/2000/svg" xmlns:xlink="http://www.w3.org/1999/xlink" contentStyleType="text/css" height="789px" preserveAspectRatio="none" style="width:1415px;height:789px;background:#FFFFFF;" version="1.1" viewBox="0 0 1415 789" width="1415px" zoomAndPan="magnify"><title>Sequence Diagram: OAuth2 Poging via Google Oauth2 faalt, Discord Oauth2 werkt</title><defs/><g><text fill="#000000" font-family="sans-serif" font-size="14" font-weight="bold" lengthAdjust="spacing" textLength="549.2129" x="432.021" y="30.1074">Sequence Diagram: OAuth2 Poging via Google Oauth2 faalt, Discord Oauth2 werkt</text><line style="stroke:#181818;stroke-width:0.5;stroke-dasharray:5.0,5.0;" x1="38" x2="38" y1="123.2422" y2="706.4805"/><line style="stroke:#181818;stroke-width:0.5;stroke-dasharray:5.0,5.0;" x1="239.1851" x2="239.1851" y1="123.2422" y2="706.4805"/><line style="stroke:#181818;stroke-width:0.5;stroke-dasharray:5.0,5.0;" x1="562.8848" x2="562.8848" y1="123.2422" y2="706.4805"/><line style="stroke:#181818;stroke-width:0.5;stroke-dasharray:5.0,5.0;" x1="811.0488" x2="811.0488" y1="123.2422" y2="706.4805"/><line style="stroke:#181818;stroke-width:0.5;stroke-dasharray:5.0,5.0;" x1="1104.4219" x2="1104.4219" y1="123.2422" y2="706.4805"/><line style="stroke:#181818;stroke-width:0.5;stroke-dasharray:5.0,5.0;" x1="1233.0283" x2="1233.0283" y1="123.2422" y2="706.4805"/><line style="stroke:#181818;stroke-width:0.5;stroke-dasharray:5.0,5.0;" x1="1353.7451" x2="1353.7451" y1="123.2422" y2="706.4805"/><text fill="#000000" font-family="sans-serif" font-size="14" lengthAdjust="spacing" textLength="61.4688" x="5" y="119.7285">Gebruiker</text><ellipse cx="38.7344" cy="53.1211" fill="#E2E2F0" rx="8" ry="8" style="stroke:#181818;stroke-width:0.5;"/><path d="M38.7344,61.1211 L38.7344,88.1211 M25.7344,69.1211 L51.7344,69.1211 M38.7344,88.1211 L25.7344,103.1211 M38.7344,88.1211 L51.7344,103.1211 " fill="none" style="stroke:#181818;stroke-width:0.5;"/><text fill="#000000" font-family="sans-serif" font-size="14" lengthAdjust="spacing" textLength="61.4688" x="5" y="720.5879">Gebruiker</text><ellipse cx="38.7344" cy="732.6016" fill="#E2E2F0" rx="8" ry="8" style="stroke:#181818;stroke-width:0.5;"/><path d="M38.7344,740.6016 L38.7344,767.6016 M25.7344,748.6016 L51.7344,748.6016 M38.7344,767.6016 L25.7344,782.6016 M38.7344,767.6016 L51.7344,782.6016 " fill="none" style="stroke:#181818;stroke-width:0.5;"/><rect fill="#E2E2F0" height="51.2422" rx="2.5" ry="2.5" style="stroke:#181818;stroke-width:0.5;" width="73.8965" x="203.1851" y="71"/><text fill="#000000" font-family="sans-serif" font-size="14" lengthAdjust="spacing" textLength="56.0342" x="212.1162" y="93.1074">Frontend</text><text fill="#000000" font-family="sans-serif" font-size="14" lengthAdjust="spacing" textLength="59.8965" x="210.1851" y="111.7285">(React.js)</text><rect fill="#E2E2F0" height="51.2422" rx="2.5" ry="2.5" style="stroke:#181818;stroke-width:0.5;" width="73.8965" x="203.1851" y="705.4805"/><text fill="#000000" font-family="sans-serif" font-size="14" lengthAdjust="spacing" textLength="56.0342" x="212.1162" y="727.5879">Frontend</text><text fill="#000000" font-family="sans-serif" font-size="14" lengthAdjust="spacing" textLength="59.8965" x="210.1851" y="746.209">(React.js)</text><rect fill="#E2E2F0" height="51.2422" rx="2.5" ry="2.5" style="stroke:#181818;stroke-width:0.5;" width="103.4893" x="511.8848" y="71"/><text fill="#000000" font-family="sans-serif" font-size="14" lengthAdjust="spacing" textLength="89.4893" x="518.8848" y="93.1074">AuthController</text><text fill="#000000" font-family="sans-serif" font-size="14" lengthAdjust="spacing" textLength="82.4824" x="522.3882" y="111.7285">(Spring Boot)</text><rect fill="#E2E2F0" height="51.2422" rx="2.5" ry="2.5" style="stroke:#181818;stroke-width:0.5;" width="103.4893" x="511.8848" y="705.4805"/><text fill="#000000" font-family="sans-serif" font-size="14" lengthAdjust="spacing" textLength="89.4893" x="518.8848" y="727.5879">AuthController</text><text fill="#000000" font-family="sans-serif" font-size="14" lengthAdjust="spacing" textLength="82.4824" x="522.3882" y="746.209">(Spring Boot)</text><rect fill="#E2E2F0" height="51.2422" rx="2.5" ry="2.5" style="stroke:#181818;stroke-width:0.5;" width="96.4824" x="763.0488" y="71"/><text fill="#000000" font-family="sans-serif" font-size="14" lengthAdjust="spacing" textLength="75.4824" x="773.5488" y="93.1074">AuthService</text><text fill="#000000" font-family="sans-serif" font-size="14" lengthAdjust="spacing" textLength="82.4824" x="770.0488" y="111.7285">(Spring Boot)</text><rect fill="#E2E2F0" height="51.2422" rx="2.5" ry="2.5" style="stroke:#181818;stroke-width:0.5;" width="96.4824" x="763.0488" y="705.4805"/><text fill="#000000" font-family="sans-serif" font-size="14" lengthAdjust="spacing" textLength="75.4824" x="773.5488" y="727.5879">AuthService</text><text fill="#000000" font-family="sans-serif" font-size="14" lengthAdjust="spacing" textLength="82.4824" x="770.0488" y="746.209">(Spring Boot)</text><rect fill="#E2E2F0" height="51.2422" rx="2.5" ry="2.5" style="stroke:#181818;stroke-width:0.5;" width="127.6064" x="1041.4219" y="71"/><text fill="#000000" font-family="sans-serif" font-size="14" lengthAdjust="spacing" textLength="113.6064" x="1048.4219" y="93.1074">ExternalAPICheck</text><text fill="#000000" font-family="sans-serif" font-size="14" lengthAdjust="spacing" textLength="82.4824" x="1063.9839" y="111.7285">(Spring Boot)</text><rect fill="#E2E2F0" height="51.2422" rx="2.5" ry="2.5" style="stroke:#181818;stroke-width:0.5;" width="127.6064" x="1041.4219" y="705.4805"/><text fill="#000000" font-family="sans-serif" font-size="14" lengthAdjust="spacing" textLength="113.6064" x="1048.4219" y="727.5879">ExternalAPICheck</text><text fill="#000000" font-family="sans-serif" font-size="14" lengthAdjust="spacing" textLength="82.4824" x="1063.9839" y="746.209">(Spring Boot)</text><rect fill="#E2E2F0" height="51.2422" rx="2.5" ry="2.5" style="stroke:#181818;stroke-width:0.5;" width="109.7168" x="1179.0283" y="71"/><text fill="#000000" font-family="sans-serif" font-size="14" lengthAdjust="spacing" textLength="95.7168" x="1186.0283" y="93.1074">AuthRepository</text><text fill="#000000" font-family="sans-serif" font-size="14" lengthAdjust="spacing" textLength="82.4824" x="1192.6455" y="111.7285">(Spring Boot)</text><rect fill="#E2E2F0" height="51.2422" rx="2.5" ry="2.5" style="stroke:#181818;stroke-width:0.5;" width="109.7168" x="1179.0283" y="705.4805"/><text fill="#000000" font-family="sans-serif" font-size="14" lengthAdjust="spacing" textLength="95.7168" x="1186.0283" y="727.5879">AuthRepository</text><text fill="#000000" font-family="sans-serif" font-size="14" lengthAdjust="spacing" textLength="82.4824" x="1192.6455" y="746.209">(Spring Boot)</text><rect fill="#E2E2F0" height="32.6211" rx="2.5" ry="2.5" style="stroke:#181818;stroke-width:0.5;" width="110.5098" x="1298.7451" y="89.6211"/><text fill="#000000" font-family="sans-serif" font-size="14" lengthAdjust="spacing" textLength="96.5098" x="1305.7451" y="111.7285">Google OAuth2</text><rect fill="#E2E2F0" height="32.6211" rx="2.5" ry="2.5" style="stroke:#181818;stroke-width:0.5;" width="110.5098" x="1298.7451" y="705.4805"/><text fill="#000000" font-family="sans-serif" font-size="14" lengthAdjust="spacing" textLength="96.5098" x="1305.7451" y="727.5879">Google OAuth2</text><polygon fill="#181818" points="228.1333,152.5332,238.1333,156.5332,228.1333,160.5332,232.1333,156.5332" style="stroke:#181818;stroke-width:1.0;"/><line style="stroke:#181818;stroke-width:1.0;" x1="38.7344" x2="234.1333" y1="156.5332" y2="156.5332"/><text fill="#000000" font-family="sans-serif" font-size="13" font-weight="bold" lengthAdjust="spacing" textLength="7.23" x="45.7344" y="151.2705">1</text><text fill="#000000" font-family="sans-serif" font-size="13" lengthAdjust="spacing" textLength="166.1689" x="56.9644" y="151.2705">Navigeert naar /login (HTTP)</text><polygon fill="#181818" points="551.6294,183.8242,561.6294,187.8242,551.6294,191.8242,555.6294,187.8242" style="stroke:#181818;stroke-width:1.0;"/><line style="stroke:#181818;stroke-width:1.0;" x1="240.1333" x2="557.6294" y1="187.8242" y2="187.8242"/><text fill="#000000" font-family="sans-serif" font-size="13" font-weight="bold" lengthAdjust="spacing" textLength="7.23" x="247.1333" y="182.5615">2</text><text fill="#000000" font-family="sans-serif" font-size="13" lengthAdjust="spacing" textLength="247.1206" x="258.3633" y="182.5615">Stuur gebruiker naar loginEndpoint (HTTP)</text><polygon fill="#181818" points="799.29,215.1152,809.29,219.1152,799.29,223.1152,803.29,219.1152" style="stroke:#181818;stroke-width:1.0;"/><line style="stroke:#181818;stroke-width:1.0;" x1="563.6294" x2="805.29" y1="219.1152" y2="219.1152"/><text fill="#000000" font-family="sans-serif" font-size="13" font-weight="bold" lengthAdjust="spacing" textLength="7.23" x="570.6294" y="213.8525">3</text><text fill="#000000" font-family="sans-serif" font-size="13" lengthAdjust="spacing" textLength="133.6943" x="581.8594" y="213.8525">Roept AuthService aan</text><polygon fill="#181818" points="1093.2251,246.4063,1103.2251,250.4063,1093.2251,254.4063,1097.2251,250.4063" style="stroke:#181818;stroke-width:1.0;"/><line style="stroke:#181818;stroke-width:1.0;" x1="811.29" x2="1099.2251" y1="250.4063" y2="250.4063"/><text fill="#000000" font-family="sans-serif" font-size="13" font-weight="bold" lengthAdjust="spacing" textLength="7.23" x="818.29" y="245.1436">4</text><text fill="#000000" font-family="sans-serif" font-size="13" lengthAdjust="spacing" textLength="240.646" x="829.52" y="245.1436">Controleert verbinding van de Google API</text><polygon fill="#181818" points="1342,277.6973,1352,281.6973,1342,285.6973,1346,281.6973" style="stroke:#181818;stroke-width:1.0;"/><line style="stroke:#181818;stroke-width:1.0;" x1="1105.2251" x2="1348" y1="281.6973" y2="281.6973"/><text fill="#000000" font-family="sans-serif" font-size="13" font-weight="bold" lengthAdjust="spacing" textLength="7.23" x="1112.2251" y="276.4346">5</text><text fill="#000000" font-family="sans-serif" font-size="13" lengthAdjust="spacing" textLength="204.4326" x="1123.4551" y="276.4346">Vraagt JWK_SET op (HTTP/JSON)</text><polygon fill="#181818" points="1116.2251,308.9883,1106.2251,312.9883,1116.2251,316.9883,1112.2251,312.9883" style="stroke:#181818;stroke-width:1.0;"/><line style="stroke:#181818;stroke-width:1.0;" x1="1110.2251" x2="1353" y1="312.9883" y2="312.9883"/><text fill="#000000" font-family="sans-serif" font-size="13" font-weight="bold" lengthAdjust="spacing" textLength="7.23" x="1122.2251" y="307.7256">6</text><text fill="#000000" font-family="sans-serif" font-size="13" lengthAdjust="spacing" textLength="163.2871" x="1133.4551" y="307.7256">Geeft een foutstatus (HTTP)</text><polygon fill="#181818" points="822.29,340.2793,812.29,344.2793,822.29,348.2793,818.29,344.2793" style="stroke:#181818;stroke-width:1.0;"/><line style="stroke:#181818;stroke-width:1.0;" x1="816.29" x2="1104.2251" y1="344.2793" y2="344.2793"/><text fill="#000000" font-family="sans-serif" font-size="13" font-weight="bold" lengthAdjust="spacing" textLength="7.23" x="828.29" y="339.0166">7</text><text fill="#000000" font-family="sans-serif" font-size="13" lengthAdjust="spacing" textLength="179.9561" x="839.52" y="339.0166">Verbinding is gefaald (boolean)</text><polygon fill="#181818" points="1093.2251,371.5703,1103.2251,375.5703,1093.2251,379.5703,1097.2251,375.5703" style="stroke:#181818;stroke-width:1.0;"/><line style="stroke:#181818;stroke-width:1.0;" x1="811.29" x2="1099.2251" y1="375.5703" y2="375.5703"/><text fill="#000000" font-family="sans-serif" font-size="13" font-weight="bold" lengthAdjust="spacing" textLength="7.23" x="818.29" y="370.3076">8</text><text fill="#000000" font-family="sans-serif" font-size="13" lengthAdjust="spacing" textLength="258.7051" x="829.52" y="370.3076">Controleert de verbinding van de discord API</text><polygon fill="#181818" points="1342,402.8613,1352,406.8613,1342,410.8613,1346,406.8613" style="stroke:#181818;stroke-width:1.0;"/><line style="stroke:#181818;stroke-width:1.0;" x1="1105.2251" x2="1348" y1="406.8613" y2="406.8613"/><text fill="#000000" font-family="sans-serif" font-size="13" font-weight="bold" lengthAdjust="spacing" textLength="7.23" x="1112.2251" y="401.5986">9</text><text fill="#000000" font-family="sans-serif" font-size="13" lengthAdjust="spacing" textLength="204.4326" x="1123.4551" y="401.5986">Vraagt JWK_SET op (HTTP/JSON)</text><polygon fill="#181818" points="1116.2251,434.1523,1106.2251,438.1523,1116.2251,442.1523,1112.2251,438.1523" style="stroke:#181818;stroke-width:1.0;"/><line style="stroke:#181818;stroke-width:1.0;" x1="1110.2251" x2="1353" y1="438.1523" y2="438.1523"/><text fill="#000000" font-family="sans-serif" font-size="13" font-weight="bold" lengthAdjust="spacing" textLength="14.46" x="1122.2251" y="432.8896">10</text><text fill="#000000" font-family="sans-serif" font-size="13" lengthAdjust="spacing" textLength="163.2871" x="1140.6851" y="432.8896">Geeft een foutstatus (HTTP)</text><polygon fill="#181818" points="822.29,465.4434,812.29,469.4434,822.29,473.4434,818.29,469.4434" style="stroke:#181818;stroke-width:1.0;"/><line style="stroke:#181818;stroke-width:1.0;" x1="816.29" x2="1104.2251" y1="469.4434" y2="469.4434"/><text fill="#000000" font-family="sans-serif" font-size="13" font-weight="bold" lengthAdjust="spacing" textLength="14.46" x="828.29" y="464.1807">11</text><text fill="#000000" font-family="sans-serif" font-size="13" lengthAdjust="spacing" textLength="194.3843" x="846.75" y="464.1807">Verbinding is succesvol (boolean)</text><polygon fill="#181818" points="1342,496.7344,1352,500.7344,1342,504.7344,1346,500.7344" style="stroke:#181818;stroke-width:1.0;"/><line style="stroke:#181818;stroke-width:1.0;" x1="811.29" x2="1348" y1="500.7344" y2="500.7344"/><text fill="#000000" font-family="sans-serif" font-size="13" font-weight="bold" lengthAdjust="spacing" textLength="14.46" x="818.29" y="495.4717">12</text><text fill="#000000" font-family="sans-serif" font-size="13" lengthAdjust="spacing" textLength="301.9897" x="836.75" y="495.4717">Stuurt gebruiker naar Discord OAuth2 (HTTP/JSON)</text><polygon fill="#181818" points="822.29,528.0254,812.29,532.0254,822.29,536.0254,818.29,532.0254" style="stroke:#181818;stroke-width:1.0;"/><line style="stroke:#181818;stroke-width:1.0;" x1="816.29" x2="1353" y1="532.0254" y2="532.0254"/><text fill="#000000" font-family="sans-serif" font-size="13" font-weight="bold" lengthAdjust="spacing" textLength="14.46" x="828.29" y="526.7627">13</text><text fill="#000000" font-family="sans-serif" font-size="13" lengthAdjust="spacing" textLength="190.7471" x="846.75" y="526.7627">Stuurt OAuth token terug (JSON)</text><polygon fill="#181818" points="1342,559.3164,1352,563.3164,1342,567.3164,1346,563.3164" style="stroke:#181818;stroke-width:1.0;"/><line style="stroke:#181818;stroke-width:1.0;" x1="811.29" x2="1348" y1="563.3164" y2="563.3164"/><text fill="#000000" font-family="sans-serif" font-size="13" font-weight="bold" lengthAdjust="spacing" textLength="14.46" x="818.29" y="558.0537">14</text><text fill="#000000" font-family="sans-serif" font-size="13" lengthAdjust="spacing" textLength="254.2998" x="836.75" y="558.0537">Haalt gebruikersinformatie op (HTTP/JSON)</text><polygon fill="#181818" points="822.29,590.6074,812.29,594.6074,822.29,598.6074,818.29,594.6074" style="stroke:#181818;stroke-width:1.0;"/><line style="stroke:#181818;stroke-width:1.0;" x1="816.29" x2="1353" y1="594.6074" y2="594.6074"/><text fill="#000000" font-family="sans-serif" font-size="13" font-weight="bold" lengthAdjust="spacing" textLength="14.46" x="828.29" y="589.3447">15</text><text fill="#000000" font-family="sans-serif" font-size="13" lengthAdjust="spacing" textLength="200.8398" x="846.75" y="589.3447">Gebruikersinformatie terug (JSON)</text><polygon fill="#181818" points="1221.8867,621.8984,1231.8867,625.8984,1221.8867,629.8984,1225.8867,625.8984" style="stroke:#181818;stroke-width:1.0;"/><line style="stroke:#181818;stroke-width:1.0;" x1="811.29" x2="1227.8867" y1="625.8984" y2="625.8984"/><text fill="#000000" font-family="sans-serif" font-size="13" font-weight="bold" lengthAdjust="spacing" textLength="14.46" x="818.29" y="620.6357">16</text><text fill="#000000" font-family="sans-serif" font-size="13" lengthAdjust="spacing" textLength="162.5698" x="836.75" y="620.6357">12. Sla gebruiker op (JDBC)</text><polygon fill="#181818" points="574.6294,653.1895,564.6294,657.1895,574.6294,661.1895,570.6294,657.1895" style="stroke:#181818;stroke-width:1.0;"/><line style="stroke:#181818;stroke-width:1.0;" x1="568.6294" x2="810.29" y1="657.1895" y2="657.1895"/><text fill="#000000" font-family="sans-serif" font-size="13" font-weight="bold" lengthAdjust="spacing" textLength="14.46" x="580.6294" y="651.9268">17</text><text fill="#000000" font-family="sans-serif" font-size="13" lengthAdjust="spacing" textLength="205.2007" x="599.0894" y="651.9268">13. Genereert JWT token obv email</text><polygon fill="#181818" points="251.1333,684.4805,241.1333,688.4805,251.1333,692.4805,247.1333,688.4805" style="stroke:#181818;stroke-width:1.0;"/><line style="stroke:#181818;stroke-width:1.0;" x1="245.1333" x2="562.6294" y1="688.4805" y2="688.4805"/><text fill="#000000" font-family="sans-serif" font-size="13" font-weight="bold" lengthAdjust="spacing" textLength="14.46" x="257.1333" y="683.2178">18</text><text fill="#000000" font-family="sans-serif" font-size="13" lengthAdjust="spacing" textLength="281.0361" x="275.5933" y="683.2178">14. Stuur gebruiker terug met JWT token (HTTP)</text><!--SRC=[rLJBRjim4BphAnOvsK3hm6bFEXH87DUf2yI6PIIN0CLAMYki9LAbbchxzwLUjcZBpJbNScPdThXBDAoaoKBI7WjE2GBwPKX61FS24usP3wjRmwyti5Q9a0cK0c6XL6AXAwmlTeWfVx3u8b8wxav_azwpvs74IiE2Gct4tehag5b48aV9SFLLAyaaunSvsf15JduMuol00heB5rxvcDaBhTAKj2K5kQuitId53Sz5dBC3qgM8w1ArlNPvypzCMc9wk_usUwLeFqG-nPmhRoXNXR1P_BqaVaIux2xi-XLgT7FYUOTKuUENGsG-F68f4YBD814rNAVLmy7eORjTZxqELb7Sj7m8s1WDoQ5gJQ_PSnddIbWtRHMNsTLgu_DXeoZd_X4WIi_h7rZAQMW-j2LhxoNfKCYu7ZcK45CtTHRkdLAhSisr3qyQCM5OFd__4SoteFB6zFKoM3sElRR8eFo2QCT0966d31UCR8gkuo55f-UderzHs12hhOXX52hR3yhnczs3sxxjzpo1k5snTn51OQA8YbAb_mcXCrnF7f-Etk57QJwWuHuS1ssTcW2izhOFwzaaC6fe5-GVgX_ig5u8kLCwGnPqEJj7Tp54TPHFfTsDzs5wCu4WnLu4bVBo_cus7gBsrtRwQM8DIDBru2oVjstdAYo1CXJfmBeUVulfvydPuZVEC-fNQuVW7m00]--></g></svg>