<svg xmlns="http://www.w3.org/2000/svg" xmlns:xlink="http://www.w3.org/1999/xlink" contentStyleType="text/css" height="725px" preserveAspectRatio="none" style="width:1309px;height:725px;background:#FFFFFF;" version="1.1" viewBox="0 0 1309 725" width="1309px" zoomAndPan="magnify"><title>Class Diagram - TripTop (Facade Pattern)</title><defs/><g><text fill="#000000" font-family="sans-serif" font-size="14" font-weight="bold" lengthAdjust="spacing" textLength="275.3926" x="509.8447" y="25.1074">Class Diagram - TripTop (Facade Pattern)</text><!--class TripTopController--><g id="elem_TripTopController"><rect codeLine="4" fill="#F1F1F1" height="66.6211" id="TripTopController" rx="2.5" ry="2.5" style="stroke:#181818;stroke-width:0.5;" width="448.5498" x="786.5" y="46.6211"/><ellipse cx="952.063" cy="62.6211" fill="#ADD1B2" rx="11" ry="11" style="stroke:#181818;stroke-width:1.0;"/><path d="M954.8286,58.4961 Q954.9849,58.2773 955.1724,58.168 Q955.3599,58.0586 955.5786,58.0586 Q955.9536,58.0586 956.188,58.3242 Q956.4224,58.5742 956.4224,59.1836 L956.4224,60.6367 Q956.4224,61.2461 956.188,61.5117 Q955.9536,61.7773 955.5786,61.7773 Q955.2349,61.7773 955.0317,61.5742 Q954.8286,61.3867 954.7192,60.8711 Q954.6724,60.5117 954.4849,60.3242 Q954.1567,59.9492 953.5474,59.7305 Q952.938,59.5117 952.313,59.5117 Q951.5474,59.5117 950.9067,59.8398 Q950.2817,60.168 949.7817,60.918 Q949.2974,61.668 949.2974,62.6992 L949.2974,63.793 Q949.2974,65.0273 950.188,65.8555 Q951.0786,66.668 952.6724,66.668 Q953.6099,66.668 954.2661,66.418 Q954.6567,66.2617 955.0786,65.8242 Q955.3442,65.5586 955.4849,65.4805 Q955.6411,65.4023 955.8442,65.4023 Q956.1724,65.4023 956.4224,65.668 Q956.688,65.918 956.688,66.2617 Q956.688,66.6055 956.3442,67.0117 Q955.8442,67.5898 955.0474,67.918 Q953.9692,68.3711 952.6724,68.3711 Q951.1567,68.3711 949.9536,67.7461 Q948.9692,67.2461 948.2817,66.1836 Q947.5942,65.1055 947.5942,63.8242 L947.5942,62.668 Q947.5942,61.3398 948.2036,60.1992 Q948.8286,59.043 949.9224,58.4336 Q951.0161,57.8086 952.2505,57.8086 Q952.9849,57.8086 953.6255,57.9805 Q954.2817,58.1367 954.8286,58.4961 Z " fill="#000000"/><text fill="#000000" font-family="sans-serif" font-size="14" lengthAdjust="spacing" textLength="108.9238" x="972.563" y="68.418">TripTopController</text><line style="stroke:#181818;stroke-width:0.5;" x1="787.5" x2="1234.0498" y1="78.6211" y2="78.6211"/><line style="stroke:#181818;stroke-width:0.5;" x1="787.5" x2="1234.0498" y1="86.6211" y2="86.6211"/><ellipse cx="797.5" cy="101.4316" fill="#84BE84" rx="3" ry="3" style="stroke:#038048;stroke-width:1.0;"/><text fill="#000000" font-family="sans-serif" font-size="14" lengthAdjust="spacing" textLength="422.5498" x="806.5" y="105.7285">searchHotels(request: HotelSearchRequest): HotelSearchResponse</text></g><!--class TripTopFacade--><g id="elem_TripTopFacade"><rect codeLine="8" fill="#F1F1F1" height="66.6211" id="TripTopFacade" rx="2.5" ry="2.5" style="stroke:#181818;stroke-width:0.5;" width="448.5498" x="786.5" y="192.6211"/><ellipse cx="959.0596" cy="208.6211" fill="#ADD1B2" rx="11" ry="11" style="stroke:#181818;stroke-width:1.0;"/><path d="M961.8252,204.4961 Q961.9814,204.2773 962.1689,204.168 Q962.3564,204.0586 962.5752,204.0586 Q962.9502,204.0586 963.1846,204.3242 Q963.4189,204.5742 963.4189,205.1836 L963.4189,206.6367 Q963.4189,207.2461 963.1846,207.5117 Q962.9502,207.7773 962.5752,207.7773 Q962.2314,207.7773 962.0283,207.5742 Q961.8252,207.3867 961.7158,206.8711 Q961.6689,206.5117 961.4814,206.3242 Q961.1533,205.9492 960.5439,205.7305 Q959.9346,205.5117 959.3096,205.5117 Q958.5439,205.5117 957.9033,205.8398 Q957.2783,206.168 956.7783,206.918 Q956.2939,207.668 956.2939,208.6992 L956.2939,209.793 Q956.2939,211.0273 957.1846,211.8555 Q958.0752,212.668 959.6689,212.668 Q960.6064,212.668 961.2627,212.418 Q961.6533,212.2617 962.0752,211.8242 Q962.3408,211.5586 962.4814,211.4805 Q962.6377,211.4023 962.8408,211.4023 Q963.1689,211.4023 963.4189,211.668 Q963.6846,211.918 963.6846,212.2617 Q963.6846,212.6055 963.3408,213.0117 Q962.8408,213.5898 962.0439,213.918 Q960.9658,214.3711 959.6689,214.3711 Q958.1533,214.3711 956.9502,213.7461 Q955.9658,213.2461 955.2783,212.1836 Q954.5908,211.1055 954.5908,209.8242 L954.5908,208.668 Q954.5908,207.3398 955.2002,206.1992 Q955.8252,205.043 956.9189,204.4336 Q958.0127,203.8086 959.2471,203.8086 Q959.9814,203.8086 960.6221,203.9805 Q961.2783,204.1367 961.8252,204.4961 Z " fill="#000000"/><text fill="#000000" font-family="sans-serif" font-size="14" lengthAdjust="spacing" textLength="94.9307" x="979.5596" y="214.418">TripTopFacade</text><line style="stroke:#181818;stroke-width:0.5;" x1="787.5" x2="1234.0498" y1="224.6211" y2="224.6211"/><line style="stroke:#181818;stroke-width:0.5;" x1="787.5" x2="1234.0498" y1="232.6211" y2="232.6211"/><ellipse cx="797.5" cy="247.4316" fill="#84BE84" rx="3" ry="3" style="stroke:#038048;stroke-width:1.0;"/><text fill="#000000" font-family="sans-serif" font-size="14" lengthAdjust="spacing" textLength="422.5498" x="806.5" y="251.7285">searchHotels(request: HotelSearchRequest): HotelSearchResponse</text></g><!--class BookingApiService--><g id="elem_BookingApiService"><rect codeLine="12" fill="#F1F1F1" height="66.6211" id="BookingApiService" rx="2.5" ry="2.5" style="stroke:#181818;stroke-width:0.5;" width="443.8604" x="7" y="385.1211"/><ellipse cx="165.9253" cy="401.1211" fill="#ADD1B2" rx="11" ry="11" style="stroke:#181818;stroke-width:1.0;"/><path d="M168.6909,396.9961 Q168.8472,396.7773 169.0347,396.668 Q169.2222,396.5586 169.4409,396.5586 Q169.8159,396.5586 170.0503,396.8242 Q170.2847,397.0742 170.2847,397.6836 L170.2847,399.1367 Q170.2847,399.7461 170.0503,400.0117 Q169.8159,400.2773 169.4409,400.2773 Q169.0972,400.2773 168.894,400.0742 Q168.6909,399.8867 168.5815,399.3711 Q168.5347,399.0117 168.3472,398.8242 Q168.019,398.4492 167.4097,398.2305 Q166.8003,398.0117 166.1753,398.0117 Q165.4097,398.0117 164.769,398.3398 Q164.144,398.668 163.644,399.418 Q163.1597,400.168 163.1597,401.1992 L163.1597,402.293 Q163.1597,403.5273 164.0503,404.3555 Q164.9409,405.168 166.5347,405.168 Q167.4722,405.168 168.1284,404.918 Q168.519,404.7617 168.9409,404.3242 Q169.2065,404.0586 169.3472,403.9805 Q169.5034,403.9023 169.7065,403.9023 Q170.0347,403.9023 170.2847,404.168 Q170.5503,404.418 170.5503,404.7617 Q170.5503,405.1055 170.2065,405.5117 Q169.7065,406.0898 168.9097,406.418 Q167.8315,406.8711 166.5347,406.8711 Q165.019,406.8711 163.8159,406.2461 Q162.8315,405.7461 162.144,404.6836 Q161.4565,403.6055 161.4565,402.3242 L161.4565,401.168 Q161.4565,399.8398 162.0659,398.6992 Q162.6909,397.543 163.7847,396.9336 Q164.8784,396.3086 166.1128,396.3086 Q166.8472,396.3086 167.4878,396.4805 Q168.144,396.6367 168.6909,396.9961 Z " fill="#000000"/><text fill="#000000" font-family="sans-serif" font-size="14" lengthAdjust="spacing" textLength="117.5098" x="186.4253" y="406.918">BookingApiService</text><line style="stroke:#181818;stroke-width:0.5;" x1="8" x2="449.8604" y1="417.1211" y2="417.1211"/><line style="stroke:#181818;stroke-width:0.5;" x1="8" x2="449.8604" y1="425.1211" y2="425.1211"/><ellipse cx="18" cy="439.9316" fill="#84BE84" rx="3" ry="3" style="stroke:#038048;stroke-width:1.0;"/><text fill="#000000" font-family="sans-serif" font-size="14" lengthAdjust="spacing" textLength="417.8604" x="27" y="444.2285">searchHotels(params: Map&lt;String, String&gt;): HotelSearchResponse</text></g><!--class TripTopConfigProvider--><g id="elem_TripTopConfigProvider"><rect codeLine="16" fill="#F1F1F1" height="85.2422" id="TripTopConfigProvider" rx="2.5" ry="2.5" style="stroke:#181818;stroke-width:0.5;" width="194.0889" x="132" y="605.6211"/><ellipse cx="156.5647" cy="621.6211" fill="#ADD1B2" rx="11" ry="11" style="stroke:#181818;stroke-width:1.0;"/><path d="M159.3303,617.4961 Q159.4866,617.2773 159.6741,617.168 Q159.8616,617.0586 160.0803,617.0586 Q160.4553,617.0586 160.6897,617.3242 Q160.9241,617.5742 160.9241,618.1836 L160.9241,619.6367 Q160.9241,620.2461 160.6897,620.5117 Q160.4553,620.7773 160.0803,620.7773 Q159.7366,620.7773 159.5334,620.5742 Q159.3303,620.3867 159.2209,619.8711 Q159.1741,619.5117 158.9866,619.3242 Q158.6584,618.9492 158.0491,618.7305 Q157.4397,618.5117 156.8147,618.5117 Q156.0491,618.5117 155.4084,618.8398 Q154.7834,619.168 154.2834,619.918 Q153.7991,620.668 153.7991,621.6992 L153.7991,622.793 Q153.7991,624.0273 154.6897,624.8555 Q155.5803,625.668 157.1741,625.668 Q158.1116,625.668 158.7678,625.418 Q159.1584,625.2617 159.5803,624.8242 Q159.8459,624.5586 159.9866,624.4805 Q160.1428,624.4023 160.3459,624.4023 Q160.6741,624.4023 160.9241,624.668 Q161.1897,624.918 161.1897,625.2617 Q161.1897,625.6055 160.8459,626.0117 Q160.3459,626.5898 159.5491,626.918 Q158.4709,627.3711 157.1741,627.3711 Q155.6584,627.3711 154.4553,626.7461 Q153.4709,626.2461 152.7834,625.1836 Q152.0959,624.1055 152.0959,622.8242 L152.0959,621.668 Q152.0959,620.3398 152.7053,619.1992 Q153.3303,618.043 154.4241,617.4336 Q155.5178,616.8086 156.7522,616.8086 Q157.4866,616.8086 158.1272,616.9805 Q158.7834,617.1367 159.3303,617.4961 Z " fill="#000000"/><text fill="#000000" font-family="sans-serif" font-size="14" lengthAdjust="spacing" textLength="140.834" x="172.6902" y="627.418">TripTopConfigProvider</text><line style="stroke:#181818;stroke-width:0.5;" x1="133" x2="325.0889" y1="637.6211" y2="637.6211"/><line style="stroke:#181818;stroke-width:0.5;" x1="133" x2="325.0889" y1="645.6211" y2="645.6211"/><ellipse cx="143" cy="660.4316" fill="#84BE84" rx="3" ry="3" style="stroke:#038048;stroke-width:1.0;"/><text fill="#000000" font-family="sans-serif" font-size="14" lengthAdjust="spacing" textLength="168.0889" x="152" y="664.7285">getBookingApiKey(): String</text><ellipse cx="143" cy="679.0527" fill="#84BE84" rx="3" ry="3" style="stroke:#038048;stroke-width:1.0;"/><text fill="#000000" font-family="sans-serif" font-size="14" lengthAdjust="spacing" textLength="111.2549" x="152" y="683.3496">getApiUrl(): String</text></g><!--class HotelSearchRequest--><g id="elem_HotelSearchRequest"><rect codeLine="21" fill="#F1F1F1" height="159.7266" id="HotelSearchRequest" rx="2.5" ry="2.5" style="stroke:#181818;stroke-width:0.5;" width="167.6406" x="927" y="338.6211"/><ellipse cx="944.9048" cy="354.6211" fill="#ADD1B2" rx="11" ry="11" style="stroke:#181818;stroke-width:1.0;"/><path d="M947.6704,350.4961 Q947.8267,350.2773 948.0142,350.168 Q948.2017,350.0586 948.4204,350.0586 Q948.7954,350.0586 949.0298,350.3242 Q949.2642,350.5742 949.2642,351.1836 L949.2642,352.6367 Q949.2642,353.2461 949.0298,353.5117 Q948.7954,353.7773 948.4204,353.7773 Q948.0767,353.7773 947.8735,353.5742 Q947.6704,353.3867 947.561,352.8711 Q947.5142,352.5117 947.3267,352.3242 Q946.9985,351.9492 946.3892,351.7305 Q945.7798,351.5117 945.1548,351.5117 Q944.3892,351.5117 943.7485,351.8398 Q943.1235,352.168 942.6235,352.918 Q942.1392,353.668 942.1392,354.6992 L942.1392,355.793 Q942.1392,357.0273 943.0298,357.8555 Q943.9204,358.668 945.5142,358.668 Q946.4517,358.668 947.1079,358.418 Q947.4985,358.2617 947.9204,357.8242 Q948.186,357.5586 948.3267,357.4805 Q948.4829,357.4023 948.686,357.4023 Q949.0142,357.4023 949.2642,357.668 Q949.5298,357.918 949.5298,358.2617 Q949.5298,358.6055 949.186,359.0117 Q948.686,359.5898 947.8892,359.918 Q946.811,360.3711 945.5142,360.3711 Q943.9985,360.3711 942.7954,359.7461 Q941.811,359.2461 941.1235,358.1836 Q940.436,357.1055 940.436,355.8242 L940.436,354.668 Q940.436,353.3398 941.0454,352.1992 Q941.6704,351.043 942.7642,350.4336 Q943.8579,349.8086 945.0923,349.8086 Q945.8267,349.8086 946.4673,349.9805 Q947.1235,350.1367 947.6704,350.4961 Z " fill="#000000"/><text fill="#000000" font-family="sans-serif" font-size="14" lengthAdjust="spacing" textLength="129.1855" x="959.5503" y="360.418">HotelSearchRequest</text><line style="stroke:#181818;stroke-width:0.5;" x1="928" x2="1093.6406" y1="370.6211" y2="370.6211"/><rect fill="none" height="6" style="stroke:#C82930;stroke-width:1.0;" width="6" x="935" y="382.4316"/><text fill="#000000" font-family="sans-serif" font-size="14" lengthAdjust="spacing" textLength="123.7441" x="947" y="389.7285">destinationId: String</text><rect fill="none" height="6" style="stroke:#C82930;stroke-width:1.0;" width="6" x="935" y="401.0527"/><text fill="#000000" font-family="sans-serif" font-size="14" lengthAdjust="spacing" textLength="59.9238" x="947" y="408.3496">adults: int</text><rect fill="none" height="6" style="stroke:#C82930;stroke-width:1.0;" width="6" x="935" y="419.6738"/><text fill="#000000" font-family="sans-serif" font-size="14" lengthAdjust="spacing" textLength="141.6406" x="947" y="426.9707">childrenAges: List&lt;int&gt;</text><rect fill="none" height="6" style="stroke:#C82930;stroke-width:1.0;" width="6" x="935" y="438.2949"/><text fill="#000000" font-family="sans-serif" font-size="14" lengthAdjust="spacing" textLength="106.5996" x="947" y="445.5918">roomQuantity: int</text><rect fill="none" height="6" style="stroke:#C82930;stroke-width:1.0;" width="6" x="935" y="456.916"/><text fill="#000000" font-family="sans-serif" font-size="14" lengthAdjust="spacing" textLength="103.5029" x="947" y="464.2129">pageNumber: int</text><rect fill="none" height="6" style="stroke:#C82930;stroke-width:1.0;" width="6" x="935" y="475.5371"/><text fill="#000000" font-family="sans-serif" font-size="14" lengthAdjust="spacing" textLength="98.0342" x="947" y="482.834">currency: String</text><line style="stroke:#181818;stroke-width:0.5;" x1="928" x2="1093.6406" y1="490.3477" y2="490.3477"/></g><!--class HotelSearchResponse--><g id="elem_HotelSearchResponse"><rect codeLine="30" fill="#F1F1F1" height="66.6211" id="HotelSearchResponse" rx="2.5" ry="2.5" style="stroke:#181818;stroke-width:0.5;" width="172.082" x="1130" y="385.1211"/><ellipse cx="1145" cy="401.1211" fill="#ADD1B2" rx="11" ry="11" style="stroke:#181818;stroke-width:1.0;"/><path d="M1147.7656,396.9961 Q1147.9219,396.7773 1148.1094,396.668 Q1148.2969,396.5586 1148.5156,396.5586 Q1148.8906,396.5586 1149.125,396.8242 Q1149.3594,397.0742 1149.3594,397.6836 L1149.3594,399.1367 Q1149.3594,399.7461 1149.125,400.0117 Q1148.8906,400.2773 1148.5156,400.2773 Q1148.1719,400.2773 1147.9688,400.0742 Q1147.7656,399.8867 1147.6563,399.3711 Q1147.6094,399.0117 1147.4219,398.8242 Q1147.0938,398.4492 1146.4844,398.2305 Q1145.875,398.0117 1145.25,398.0117 Q1144.4844,398.0117 1143.8438,398.3398 Q1143.2188,398.668 1142.7188,399.418 Q1142.2344,400.168 1142.2344,401.1992 L1142.2344,402.293 Q1142.2344,403.5273 1143.125,404.3555 Q1144.0156,405.168 1145.6094,405.168 Q1146.5469,405.168 1147.2031,404.918 Q1147.5938,404.7617 1148.0156,404.3242 Q1148.2813,404.0586 1148.4219,403.9805 Q1148.5781,403.9023 1148.7813,403.9023 Q1149.1094,403.9023 1149.3594,404.168 Q1149.625,404.418 1149.625,404.7617 Q1149.625,405.1055 1149.2813,405.5117 Q1148.7813,406.0898 1147.9844,406.418 Q1146.9063,406.8711 1145.6094,406.8711 Q1144.0938,406.8711 1142.8906,406.2461 Q1141.9063,405.7461 1141.2188,404.6836 Q1140.5313,403.6055 1140.5313,402.3242 L1140.5313,401.168 Q1140.5313,399.8398 1141.1406,398.6992 Q1141.7656,397.543 1142.8594,396.9336 Q1143.9531,396.3086 1145.1875,396.3086 Q1145.9219,396.3086 1146.5625,396.4805 Q1147.2188,396.6367 1147.7656,396.9961 Z " fill="#000000"/><text fill="#000000" font-family="sans-serif" font-size="14" lengthAdjust="spacing" textLength="140.082" x="1159" y="406.918">HotelSearchResponse</text><line style="stroke:#181818;stroke-width:0.5;" x1="1131" x2="1301.082" y1="417.1211" y2="417.1211"/><rect fill="none" height="6" style="stroke:#C82930;stroke-width:1.0;" width="6" x="1138" y="428.9316"/><text fill="#000000" font-family="sans-serif" font-size="14" lengthAdjust="spacing" textLength="115.958" x="1150" y="436.2285">hotels: List&lt;Hotel&gt;</text><line style="stroke:#181818;stroke-width:0.5;" x1="1131" x2="1301.082" y1="443.7422" y2="443.7422"/></g><!--class Hotel--><g id="elem_Hotel"><rect codeLine="34" fill="#F1F1F1" height="141.1055" id="Hotel" rx="2.5" ry="2.5" style="stroke:#181818;stroke-width:0.5;" width="118.6064" x="1156.5" y="577.6211"/><ellipse cx="1195.7657" cy="593.6211" fill="#ADD1B2" rx="11" ry="11" style="stroke:#181818;stroke-width:1.0;"/><path d="M1198.5313,589.4961 Q1198.6876,589.2773 1198.8751,589.168 Q1199.0626,589.0586 1199.2813,589.0586 Q1199.6563,589.0586 1199.8907,589.3242 Q1200.1251,589.5742 1200.1251,590.1836 L1200.1251,591.6367 Q1200.1251,592.2461 1199.8907,592.5117 Q1199.6563,592.7773 1199.2813,592.7773 Q1198.9376,592.7773 1198.7345,592.5742 Q1198.5313,592.3867 1198.422,591.8711 Q1198.3751,591.5117 1198.1876,591.3242 Q1197.8595,590.9492 1197.2501,590.7305 Q1196.6407,590.5117 1196.0157,590.5117 Q1195.2501,590.5117 1194.6095,590.8398 Q1193.9845,591.168 1193.4845,591.918 Q1193.0001,592.668 1193.0001,593.6992 L1193.0001,594.793 Q1193.0001,596.0273 1193.8907,596.8555 Q1194.7813,597.668 1196.3751,597.668 Q1197.3126,597.668 1197.9688,597.418 Q1198.3595,597.2617 1198.7813,596.8242 Q1199.047,596.5586 1199.1876,596.4805 Q1199.3438,596.4023 1199.547,596.4023 Q1199.8751,596.4023 1200.1251,596.668 Q1200.3907,596.918 1200.3907,597.2617 Q1200.3907,597.6055 1200.047,598.0117 Q1199.547,598.5898 1198.7501,598.918 Q1197.672,599.3711 1196.3751,599.3711 Q1194.8595,599.3711 1193.6563,598.7461 Q1192.672,598.2461 1191.9845,597.1836 Q1191.297,596.1055 1191.297,594.8242 L1191.297,593.668 Q1191.297,592.3398 1191.9063,591.1992 Q1192.5313,590.043 1193.6251,589.4336 Q1194.7188,588.8086 1195.9532,588.8086 Q1196.6876,588.8086 1197.3282,588.9805 Q1197.9845,589.1367 1198.5313,589.4961 Z " fill="#000000"/><text fill="#000000" font-family="sans-serif" font-size="14" lengthAdjust="spacing" textLength="32.6826" x="1215.1581" y="599.418">Hotel</text><line style="stroke:#181818;stroke-width:0.5;" x1="1157.5" x2="1274.1064" y1="609.6211" y2="609.6211"/><rect fill="none" height="6" style="stroke:#C82930;stroke-width:1.0;" width="6" x="1164.5" y="621.4316"/><text fill="#000000" font-family="sans-serif" font-size="14" lengthAdjust="spacing" textLength="55.248" x="1176.5" y="628.7285">id: String</text><rect fill="none" height="6" style="stroke:#C82930;stroke-width:1.0;" width="6" x="1164.5" y="640.0527"/><text fill="#000000" font-family="sans-serif" font-size="14" lengthAdjust="spacing" textLength="79.3721" x="1176.5" y="647.3496">name: String</text><rect fill="none" height="6" style="stroke:#C82930;stroke-width:1.0;" width="6" x="1164.5" y="658.6738"/><text fill="#000000" font-family="sans-serif" font-size="14" lengthAdjust="spacing" textLength="92.6064" x="1176.5" y="665.9707">location: String</text><rect fill="none" height="6" style="stroke:#C82930;stroke-width:1.0;" width="6" x="1164.5" y="677.2949"/><text fill="#000000" font-family="sans-serif" font-size="14" lengthAdjust="spacing" textLength="80.165" x="1176.5" y="684.5918">price: double</text><rect fill="none" height="6" style="stroke:#C82930;stroke-width:1.0;" width="6" x="1164.5" y="695.916"/><text fill="#000000" font-family="sans-serif" font-size="14" lengthAdjust="spacing" textLength="84.8408" x="1176.5" y="703.2129">rating: double</text><line style="stroke:#181818;stroke-width:0.5;" x1="1157.5" x2="1274.1064" y1="710.7266" y2="710.7266"/></g><!--class ExternalApiService--><g id="elem_ExternalApiService"><rect codeLine="42" fill="#F1F1F1" height="66.6211" id="ExternalApiService" rx="2.5" ry="2.5" style="stroke:#181818;stroke-width:0.5;" width="405.7363" x="486" y="385.1211"/><ellipse cx="625.4805" cy="401.1211" fill="#B4A7E5" rx="11" ry="11" style="stroke:#181818;stroke-width:1.0;"/><path d="M626.4336,397.7617 L626.4336,404.418 L628.1523,404.418 Q628.7617,404.418 629.0273,404.6523 Q629.293,404.8867 629.293,405.2773 Q629.293,405.6523 629.0273,405.8867 Q628.7617,406.1211 628.1523,406.1211 L623.0117,406.1211 Q622.4023,406.1211 622.1367,405.8867 Q621.8711,405.6523 621.8711,405.2617 Q621.8711,404.8867 622.1367,404.6523 Q622.4023,404.418 623.0117,404.418 L624.7305,404.418 L624.7305,397.7617 L623.0117,397.7617 Q622.4023,397.7617 622.1367,397.5273 Q621.8711,397.293 621.8711,396.9023 Q621.8711,396.5273 622.1367,396.293 Q622.4023,396.0586 623.0117,396.0586 L628.1523,396.0586 Q628.7617,396.0586 629.0273,396.293 Q629.293,396.5273 629.293,396.9023 Q629.293,397.293 629.0273,397.5273 Q628.7617,397.7617 628.1523,397.7617 L626.4336,397.7617 Z " fill="#000000"/><text fill="#000000" font-family="sans-serif" font-size="14" font-style="italic" lengthAdjust="spacing" textLength="118.2754" x="645.9805" y="406.918">ExternalApiService</text><line style="stroke:#181818;stroke-width:0.5;" x1="487" x2="890.7363" y1="417.1211" y2="417.1211"/><line style="stroke:#181818;stroke-width:0.5;" x1="487" x2="890.7363" y1="425.1211" y2="425.1211"/><ellipse cx="497" cy="439.9316" fill="#84BE84" rx="3" ry="3" style="stroke:#038048;stroke-width:1.0;"/><text fill="#000000" font-family="sans-serif" font-size="14" lengthAdjust="spacing" textLength="379.7363" x="506" y="444.2285">callApi(endpoint: String, params: Map&lt;String, String&gt;): String</text></g><!--link BookingApiService to ExternalApiService--><g id="link_BookingApiService_ExternalApiService"><path codeLine="46" d="M451.36,418.6211 C462.81,418.6211 456.26,418.6211 467.71,418.6211 " fill="none" id="BookingApiService-to-ExternalApiService" style="stroke:#181818;stroke-width:1.0;"/><polygon fill="none" points="485.71,418.6211,467.71,412.6211,467.71,424.6211,485.71,418.6211" style="stroke:#181818;stroke-width:1.0;"/></g><!--link TripTopController to TripTopFacade--><g id="link_TripTopController_TripTopFacade"><path codeLine="47" d="M1011,113.8011 C1011,137.3611 1011,163.0411 1011,186.5711 " fill="none" id="TripTopController-to-TripTopFacade" style="stroke:#181818;stroke-width:1.0;"/><polygon fill="#181818" points="1011,192.5711,1015,183.5711,1011,187.5711,1007,183.5711,1011,192.5711" style="stroke:#181818;stroke-width:1.0;"/><text fill="#000000" font-family="sans-serif" font-size="13" lengthAdjust="spacing" textLength="70.8335" x="1012" y="158.6494">delegates to</text></g><!--link TripTopFacade to BookingApiService--><g id="link_TripTopFacade_BookingApiService"><path codeLine="48" d="M825.65,259.6311 C720.12,279.5211 585.85,307.1611 468,338.6211 C418.18,351.9211 369.1812,367.7822 324.7112,383.1422 " fill="none" id="TripTopFacade-to-BookingApiService" style="stroke:#181818;stroke-width:1.0;"/><polygon fill="#181818" points="319.04,385.1011,328.8528,385.9436,323.766,383.4687,326.2409,378.382,319.04,385.1011" style="stroke:#181818;stroke-width:1.0;"/><text fill="#000000" font-family="sans-serif" font-size="13" lengthAdjust="spacing" textLength="132.2407" x="662" y="304.6494">fetches hotel data from</text></g><!--link BookingApiService to TripTopConfigProvider--><g id="link_BookingApiService_TripTopConfigProvider"><path codeLine="49" d="M229,452.2211 C229,492.5111 229,555.1711 229,599.3111 " fill="none" id="BookingApiService-to-TripTopConfigProvider" style="stroke:#181818;stroke-width:1.0;"/><polygon fill="#181818" points="229,605.3111,233,596.3111,229,600.3111,225,596.3111,229,605.3111" style="stroke:#181818;stroke-width:1.0;"/><text fill="#000000" font-family="sans-serif" font-size="13" lengthAdjust="spacing" textLength="153.1753" x="230" y="543.6494">retrieves API key and URL</text></g><!--link TripTopFacade to HotelSearchRequest--><g id="link_TripTopFacade_HotelSearchRequest"><path codeLine="50" d="M1011,259.8711 C1011,281.5711 1011,305.0211 1011,332.6011 " fill="none" id="TripTopFacade-to-HotelSearchRequest" style="stroke:#181818;stroke-width:1.0;"/><polygon fill="#181818" points="1011,338.6011,1015,329.6011,1011,333.6011,1007,329.6011,1011,338.6011" style="stroke:#181818;stroke-width:1.0;"/></g><!--link TripTopFacade to HotelSearchResponse--><g id="link_TripTopFacade_HotelSearchResponse"><path codeLine="51" d="M1046.24,259.8711 C1083.9,294.8711 1138.8648,345.9367 1176.4848,380.8967 " fill="none" id="TripTopFacade-to-HotelSearchResponse" style="stroke:#181818;stroke-width:1.0;"/><polygon fill="#181818" points="1180.88,384.9811,1177.0102,375.9244,1177.2174,381.5774,1171.5643,381.7846,1180.88,384.9811" style="stroke:#181818;stroke-width:1.0;"/></g><!--link HotelSearchResponse to Hotel--><g id="link_HotelSearchResponse_Hotel"><path codeLine="52" d="M1216,452.2211 C1216,484.7711 1216,529.8411 1216,571.5411 " fill="none" id="HotelSearchResponse-to-Hotel" style="stroke:#181818;stroke-width:1.0;"/><polygon fill="#181818" points="1216,577.5411,1220,568.5411,1216,572.5411,1212,568.5411,1216,577.5411" style="stroke:#181818;stroke-width:1.0;"/></g><!--SRC=[hLFBRjj03BphAmYV73Jw0ICGuAO96ZGft3Zv04PBoukiTXKkPTHe- - -b9Vab2KaFrKNI33b3ShbYnH5SEumHlbWi64j8uObjzHGgcDvYZePWWIB4_Y99yYQouw-35mxE4SEl1FJv50avNtyDGYvEcTvgYZA3vd_PK8yjTj43OnLyfEHFpw2p_y_YdqDujRwOLtP9lB7vk465EeiuWmUihfR2cd09xJlxn-frF2jRB3Xih3cEg20v5l2DjbDLQtKFl1BFx4w8W_AmsKusDVfjFOeD_iwSAQPeQYVQYVNI0ldQEiFavmKfV6-ZN2cNjII7KFweqOkLxKbEXGLzhyiNubEXcbKcttvGQ3kVVQNhPhwTRnENzVBsaRRNYCUIpX4NygRbSxHYFTGPc52_EEgwqZ1V733rqoQ8LwYdV_DpjzpeXWkHezkXK_Ac2fgmjxc4zxVZE8tXhgM_in77P7YbqZJhtOCPJ0mvAb0eWeH9Saxl4eP-chGYoTUQqamU30h2YaCv6QlkQDfRNzLXqhveeqhpnHsyqXRG6tX-l1-hPBYg7mLrrsXiTGwnoLy0]--></g></svg>