<svg xmlns="http://www.w3.org/2000/svg" xmlns:xlink="http://www.w3.org/1999/xlink" contentStyleType="text/css" height="1235px" preserveAspectRatio="none" style="width:1863px;height:1235px;background:#FFFFFF;" version="1.1" viewBox="0 0 1863 1235" width="1863px" zoomAndPan="magnify"><title>Class Diagram - TripTop Application</title><defs/><g><text fill="#000000" font-family="sans-serif" font-size="14" font-weight="bold" lengthAdjust="spacing" textLength="241.917" x="803.7637" y="25.1074">Class Diagram - TripTop Application</text><!--class TriptopPrototypeApplication--><g id="elem_TriptopPrototypeApplication"><rect codeLine="5" fill="#F1F1F1" height="66.6211" id="TriptopPrototypeApplication" rx="2.5" ry="2.5" style="stroke:#181818;stroke-width:0.5;" width="203.9854" x="1043.5" y="46.6211"/><ellipse cx="1058.5" cy="62.6211" fill="#ADD1B2" rx="11" ry="11" style="stroke:#181818;stroke-width:1.0;"/><path d="M1061.2656,58.4961 Q1061.4219,58.2773 1061.6094,58.168 Q1061.7969,58.0586 1062.0156,58.0586 Q1062.3906,58.0586 1062.625,58.3242 Q1062.8594,58.5742 1062.8594,59.1836 L1062.8594,60.6367 Q1062.8594,61.2461 1062.625,61.5117 Q1062.3906,61.7773 1062.0156,61.7773 Q1061.6719,61.7773 1061.4688,61.5742 Q1061.2656,61.3867 1061.1563,60.8711 Q1061.1094,60.5117 1060.9219,60.3242 Q1060.5938,59.9492 1059.9844,59.7305 Q1059.375,59.5117 1058.75,59.5117 Q1057.9844,59.5117 1057.3438,59.8398 Q1056.7188,60.168 1056.2188,60.918 Q1055.7344,61.668 1055.7344,62.6992 L1055.7344,63.793 Q1055.7344,65.0273 1056.625,65.8555 Q1057.5156,66.668 1059.1094,66.668 Q1060.0469,66.668 1060.7031,66.418 Q1061.0938,66.2617 1061.5156,65.8242 Q1061.7813,65.5586 1061.9219,65.4805 Q1062.0781,65.4023 1062.2813,65.4023 Q1062.6094,65.4023 1062.8594,65.668 Q1063.125,65.918 1063.125,66.2617 Q1063.125,66.6055 1062.7813,67.0117 Q1062.2813,67.5898 1061.4844,67.918 Q1060.4063,68.3711 1059.1094,68.3711 Q1057.5938,68.3711 1056.3906,67.7461 Q1055.4063,67.2461 1054.7188,66.1836 Q1054.0313,65.1055 1054.0313,63.8242 L1054.0313,62.668 Q1054.0313,61.3398 1054.6406,60.1992 Q1055.2656,59.043 1056.3594,58.4336 Q1057.4531,57.8086 1058.6875,57.8086 Q1059.4219,57.8086 1060.0625,57.9805 Q1060.7188,58.1367 1061.2656,58.4961 Z " fill="#000000"/><text fill="#000000" font-family="sans-serif" font-size="14" lengthAdjust="spacing" textLength="171.9854" x="1072.5" y="68.418">TriptopPrototypeApplication</text><line style="stroke:#181818;stroke-width:0.5;" x1="1044.5" x2="1246.4854" y1="78.6211" y2="78.6211"/><line style="stroke:#181818;stroke-width:0.5;" x1="1044.5" x2="1246.4854" y1="86.6211" y2="86.6211"/><ellipse cx="1054.5" cy="101.4316" fill="#84BE84" rx="3" ry="3" style="stroke:#038048;stroke-width:1.0;"/><text fill="#000000" font-family="sans-serif" font-size="14" lengthAdjust="spacing" textLength="152.4961" x="1063.5" y="105.7285">main(args: String[]): void</text></g><!--class BookingController--><g id="elem_BookingController"><rect codeLine="10" fill="#F1F1F1" height="66.6211" id="BookingController" rx="2.5" ry="2.5" style="stroke:#181818;stroke-width:0.5;" width="1019.6992" x="635.5" y="173.6211"/><ellipse cx="1085.4585" cy="189.6211" fill="#ADD1B2" rx="11" ry="11" style="stroke:#181818;stroke-width:1.0;"/><path d="M1088.2241,185.4961 Q1088.3804,185.2773 1088.5679,185.168 Q1088.7554,185.0586 1088.9741,185.0586 Q1089.3491,185.0586 1089.5835,185.3242 Q1089.8179,185.5742 1089.8179,186.1836 L1089.8179,187.6367 Q1089.8179,188.2461 1089.5835,188.5117 Q1089.3491,188.7773 1088.9741,188.7773 Q1088.6304,188.7773 1088.4272,188.5742 Q1088.2241,188.3867 1088.1147,187.8711 Q1088.0679,187.5117 1087.8804,187.3242 Q1087.5522,186.9492 1086.9429,186.7305 Q1086.3335,186.5117 1085.7085,186.5117 Q1084.9429,186.5117 1084.3022,186.8398 Q1083.6772,187.168 1083.1772,187.918 Q1082.6929,188.668 1082.6929,189.6992 L1082.6929,190.793 Q1082.6929,192.0273 1083.5835,192.8555 Q1084.4741,193.668 1086.0679,193.668 Q1087.0054,193.668 1087.6616,193.418 Q1088.0522,193.2617 1088.4741,192.8242 Q1088.7397,192.5586 1088.8804,192.4805 Q1089.0366,192.4023 1089.2397,192.4023 Q1089.5679,192.4023 1089.8179,192.668 Q1090.0835,192.918 1090.0835,193.2617 Q1090.0835,193.6055 1089.7397,194.0117 Q1089.2397,194.5898 1088.4429,194.918 Q1087.3647,195.3711 1086.0679,195.3711 Q1084.5522,195.3711 1083.3491,194.7461 Q1082.3647,194.2461 1081.6772,193.1836 Q1080.9897,192.1055 1080.9897,190.8242 L1080.9897,189.668 Q1080.9897,188.3398 1081.5991,187.1992 Q1082.2241,186.043 1083.3179,185.4336 Q1084.4116,184.8086 1085.646,184.8086 Q1086.3804,184.8086 1087.021,184.9805 Q1087.6772,185.1367 1088.2241,185.4961 Z " fill="#000000"/><text fill="#000000" font-family="sans-serif" font-size="14" lengthAdjust="spacing" textLength="111.2822" x="1105.9585" y="195.418">BookingController</text><line style="stroke:#181818;stroke-width:0.5;" x1="636.5" x2="1654.1992" y1="205.6211" y2="205.6211"/><line style="stroke:#181818;stroke-width:0.5;" x1="636.5" x2="1654.1992" y1="213.6211" y2="213.6211"/><ellipse cx="646.5" cy="228.4316" fill="#84BE84" rx="3" ry="3" style="stroke:#038048;stroke-width:1.0;"/><text fill="#000000" font-family="sans-serif" font-size="14" lengthAdjust="spacing" textLength="993.6992" x="655.5" y="232.7285">searchHotels(destinationId: String, adults: int, children: int, rooms: int, checkInDate: String, checkOutDate: String): ResponseEntity&lt;HotelSearchResponseDTO&gt;</text></g><!--class BookingFacade--><g id="elem_BookingFacade"><rect codeLine="15" fill="#F1F1F1" height="66.6211" id="BookingFacade" rx="2.5" ry="2.5" style="stroke:#181818;stroke-width:0.5;" width="507.6533" x="891.5" y="300.6211"/><ellipse cx="1092.4321" cy="316.6211" fill="#ADD1B2" rx="11" ry="11" style="stroke:#181818;stroke-width:1.0;"/><path d="M1095.1978,312.4961 Q1095.354,312.2773 1095.5415,312.168 Q1095.729,312.0586 1095.9478,312.0586 Q1096.3228,312.0586 1096.5571,312.3242 Q1096.7915,312.5742 1096.7915,313.1836 L1096.7915,314.6367 Q1096.7915,315.2461 1096.5571,315.5117 Q1096.3228,315.7773 1095.9478,315.7773 Q1095.604,315.7773 1095.4009,315.5742 Q1095.1978,315.3867 1095.0884,314.8711 Q1095.0415,314.5117 1094.854,314.3242 Q1094.5259,313.9492 1093.9165,313.7305 Q1093.3071,313.5117 1092.6821,313.5117 Q1091.9165,313.5117 1091.2759,313.8398 Q1090.6509,314.168 1090.1509,314.918 Q1089.6665,315.668 1089.6665,316.6992 L1089.6665,317.793 Q1089.6665,319.0273 1090.5571,319.8555 Q1091.4478,320.668 1093.0415,320.668 Q1093.979,320.668 1094.6353,320.418 Q1095.0259,320.2617 1095.4478,319.8242 Q1095.7134,319.5586 1095.854,319.4805 Q1096.0103,319.4023 1096.2134,319.4023 Q1096.5415,319.4023 1096.7915,319.668 Q1097.0571,319.918 1097.0571,320.2617 Q1097.0571,320.6055 1096.7134,321.0117 Q1096.2134,321.5898 1095.4165,321.918 Q1094.3384,322.3711 1093.0415,322.3711 Q1091.5259,322.3711 1090.3228,321.7461 Q1089.3384,321.2461 1088.6509,320.1836 Q1087.9634,319.1055 1087.9634,317.8242 L1087.9634,316.668 Q1087.9634,315.3398 1088.5728,314.1992 Q1089.1978,313.043 1090.2915,312.4336 Q1091.3853,311.8086 1092.6196,311.8086 Q1093.354,311.8086 1093.9946,311.9805 Q1094.6509,312.1367 1095.1978,312.4961 Z " fill="#000000"/><text fill="#000000" font-family="sans-serif" font-size="14" lengthAdjust="spacing" textLength="97.2891" x="1112.9321" y="322.418">BookingFacade</text><line style="stroke:#181818;stroke-width:0.5;" x1="892.5" x2="1398.1533" y1="332.6211" y2="332.6211"/><line style="stroke:#181818;stroke-width:0.5;" x1="892.5" x2="1398.1533" y1="340.6211" y2="340.6211"/><ellipse cx="902.5" cy="355.4316" fill="#84BE84" rx="3" ry="3" style="stroke:#038048;stroke-width:1.0;"/><text fill="#000000" font-family="sans-serif" font-size="14" lengthAdjust="spacing" textLength="481.6533" x="911.5" y="359.7285">searchHotels(request: HotelSearchRequestDTO): HotelSearchResponseDTO</text></g><!--class BookingService--><g id="elem_BookingService"><rect codeLine="20" fill="#F1F1F1" height="66.6211" id="BookingService" rx="2.5" ry="2.5" style="stroke:#181818;stroke-width:0.5;" width="507.6533" x="506.5" y="474.1211"/><ellipse cx="707.439" cy="490.1211" fill="#ADD1B2" rx="11" ry="11" style="stroke:#181818;stroke-width:1.0;"/><path d="M710.2046,485.9961 Q710.3608,485.7773 710.5483,485.668 Q710.7358,485.5586 710.9546,485.5586 Q711.3296,485.5586 711.564,485.8242 Q711.7983,486.0742 711.7983,486.6836 L711.7983,488.1367 Q711.7983,488.7461 711.564,489.0117 Q711.3296,489.2773 710.9546,489.2773 Q710.6108,489.2773 710.4077,489.0742 Q710.2046,488.8867 710.0952,488.3711 Q710.0483,488.0117 709.8608,487.8242 Q709.5327,487.4492 708.9233,487.2305 Q708.314,487.0117 707.689,487.0117 Q706.9233,487.0117 706.2827,487.3398 Q705.6577,487.668 705.1577,488.418 Q704.6733,489.168 704.6733,490.1992 L704.6733,491.293 Q704.6733,492.5273 705.564,493.3555 Q706.4546,494.168 708.0483,494.168 Q708.9858,494.168 709.6421,493.918 Q710.0327,493.7617 710.4546,493.3242 Q710.7202,493.0586 710.8608,492.9805 Q711.0171,492.9023 711.2202,492.9023 Q711.5483,492.9023 711.7983,493.168 Q712.064,493.418 712.064,493.7617 Q712.064,494.1055 711.7202,494.5117 Q711.2202,495.0898 710.4233,495.418 Q709.3452,495.8711 708.0483,495.8711 Q706.5327,495.8711 705.3296,495.2461 Q704.3452,494.7461 703.6577,493.6836 Q702.9702,492.6055 702.9702,491.3242 L702.9702,490.168 Q702.9702,488.8398 703.5796,487.6992 Q704.2046,486.543 705.2983,485.9336 Q706.3921,485.3086 707.6265,485.3086 Q708.3608,485.3086 709.0015,485.4805 Q709.6577,485.6367 710.2046,485.9961 Z " fill="#000000"/><text fill="#000000" font-family="sans-serif" font-size="14" lengthAdjust="spacing" textLength="97.2754" x="727.939" y="495.918">BookingService</text><line style="stroke:#181818;stroke-width:0.5;" x1="507.5" x2="1013.1533" y1="506.1211" y2="506.1211"/><line style="stroke:#181818;stroke-width:0.5;" x1="507.5" x2="1013.1533" y1="514.1211" y2="514.1211"/><ellipse cx="517.5" cy="528.9316" fill="#84BE84" rx="3" ry="3" style="stroke:#038048;stroke-width:1.0;"/><text fill="#000000" font-family="sans-serif" font-size="14" lengthAdjust="spacing" textLength="481.6533" x="526.5" y="533.2285">searchHotels(request: HotelSearchRequestDTO): HotelSearchResponseDTO</text></g><!--class ExternalApiService--><g id="elem_ExternalApiService"><rect codeLine="25" fill="#F1F1F1" height="66.6211" id="ExternalApiService" rx="2.5" ry="2.5" style="stroke:#181818;stroke-width:0.5;" width="602.5908" x="459" y="647.6211"/><ellipse cx="696.9077" cy="663.6211" fill="#ADD1B2" rx="11" ry="11" style="stroke:#181818;stroke-width:1.0;"/><path d="M699.6733,659.4961 Q699.8296,659.2773 700.0171,659.168 Q700.2046,659.0586 700.4233,659.0586 Q700.7983,659.0586 701.0327,659.3242 Q701.2671,659.5742 701.2671,660.1836 L701.2671,661.6367 Q701.2671,662.2461 701.0327,662.5117 Q700.7983,662.7773 700.4233,662.7773 Q700.0796,662.7773 699.8765,662.5742 Q699.6733,662.3867 699.564,661.8711 Q699.5171,661.5117 699.3296,661.3242 Q699.0015,660.9492 698.3921,660.7305 Q697.7827,660.5117 697.1577,660.5117 Q696.3921,660.5117 695.7515,660.8398 Q695.1265,661.168 694.6265,661.918 Q694.1421,662.668 694.1421,663.6992 L694.1421,664.793 Q694.1421,666.0273 695.0327,666.8555 Q695.9233,667.668 697.5171,667.668 Q698.4546,667.668 699.1108,667.418 Q699.5015,667.2617 699.9233,666.8242 Q700.189,666.5586 700.3296,666.4805 Q700.4858,666.4023 700.689,666.4023 Q701.0171,666.4023 701.2671,666.668 Q701.5327,666.918 701.5327,667.2617 Q701.5327,667.6055 701.189,668.0117 Q700.689,668.5898 699.8921,668.918 Q698.814,669.3711 697.5171,669.3711 Q696.0015,669.3711 694.7983,668.7461 Q693.814,668.2461 693.1265,667.1836 Q692.439,666.1055 692.439,664.8242 L692.439,663.668 Q692.439,662.3398 693.0483,661.1992 Q693.6733,660.043 694.7671,659.4336 Q695.8608,658.8086 697.0952,658.8086 Q697.8296,658.8086 698.4702,658.9805 Q699.1265,659.1367 699.6733,659.4961 Z " fill="#000000"/><text fill="#000000" font-family="sans-serif" font-size="14" lengthAdjust="spacing" textLength="118.2754" x="717.4077" y="669.418">ExternalApiService</text><line style="stroke:#181818;stroke-width:0.5;" x1="460" x2="1060.5908" y1="679.6211" y2="679.6211"/><line style="stroke:#181818;stroke-width:0.5;" x1="460" x2="1060.5908" y1="687.6211" y2="687.6211"/><ellipse cx="470" cy="702.4316" fill="#84BE84" rx="3" ry="3" style="stroke:#038048;stroke-width:1.0;"/><text fill="#000000" font-family="sans-serif" font-size="14" lengthAdjust="spacing" textLength="576.5908" x="479" y="706.7285">searchHotels(request: HotelSearchRequestDTO, apiKey: String): HotelSearchResponseDTO</text></g><!--class HotelResponseParser--><g id="elem_HotelResponseParser"><rect codeLine="30" fill="#F1F1F1" height="85.2422" id="HotelResponseParser" rx="2.5" ry="2.5" style="stroke:#181818;stroke-width:0.5;" width="384.7432" x="7" y="774.6211"/><ellipse cx="126.6426" cy="790.6211" fill="#ADD1B2" rx="11" ry="11" style="stroke:#181818;stroke-width:1.0;"/><path d="M129.4082,786.4961 Q129.5645,786.2773 129.752,786.168 Q129.9395,786.0586 130.1582,786.0586 Q130.5332,786.0586 130.7676,786.3242 Q131.002,786.5742 131.002,787.1836 L131.002,788.6367 Q131.002,789.2461 130.7676,789.5117 Q130.5332,789.7773 130.1582,789.7773 Q129.8145,789.7773 129.6113,789.5742 Q129.4082,789.3867 129.2988,788.8711 Q129.252,788.5117 129.0645,788.3242 Q128.7363,787.9492 128.127,787.7305 Q127.5176,787.5117 126.8926,787.5117 Q126.127,787.5117 125.4863,787.8398 Q124.8613,788.168 124.3613,788.918 Q123.877,789.668 123.877,790.6992 L123.877,791.793 Q123.877,793.0273 124.7676,793.8555 Q125.6582,794.668 127.252,794.668 Q128.1895,794.668 128.8457,794.418 Q129.2363,794.2617 129.6582,793.8242 Q129.9238,793.5586 130.0645,793.4805 Q130.2207,793.4023 130.4238,793.4023 Q130.752,793.4023 131.002,793.668 Q131.2676,793.918 131.2676,794.2617 Q131.2676,794.6055 130.9238,795.0117 Q130.4238,795.5898 129.627,795.918 Q128.5488,796.3711 127.252,796.3711 Q125.7363,796.3711 124.5332,795.7461 Q123.5488,795.2461 122.8613,794.1836 Q122.1738,793.1055 122.1738,791.8242 L122.1738,790.668 Q122.1738,789.3398 122.7832,788.1992 Q123.4082,787.043 124.502,786.4336 Q125.5957,785.8086 126.8301,785.8086 Q127.5645,785.8086 128.2051,785.9805 Q128.8613,786.1367 129.4082,786.4961 Z " fill="#000000"/><text fill="#000000" font-family="sans-serif" font-size="14" lengthAdjust="spacing" textLength="136.958" x="147.1426" y="796.418">HotelResponseParser</text><line style="stroke:#181818;stroke-width:0.5;" x1="8" x2="390.7432" y1="806.6211" y2="806.6211"/><line style="stroke:#181818;stroke-width:0.5;" x1="8" x2="390.7432" y1="814.6211" y2="814.6211"/><ellipse cx="18" cy="829.4316" fill="#84BE84" rx="3" ry="3" style="stroke:#038048;stroke-width:1.0;"/><text fill="#000000" font-family="sans-serif" font-size="14" lengthAdjust="spacing" textLength="358.7432" x="27" y="833.7285">parseHotelsResponse(jsonResponse: String): List&lt;Hotel&gt;</text><rect fill="#F24D5C" height="6" style="stroke:#C82930;stroke-width:1.0;" width="6" x="15" y="845.0527"/><text fill="#000000" font-family="sans-serif" font-size="14" lengthAdjust="spacing" textLength="252.1367" x="27" y="852.3496">parseHotel(hotelNode: JsonNode): Hotel</text></g><!--class HotelSearchRequestDTO--><g id="elem_HotelSearchRequestDTO"><rect codeLine="36" fill="#F1F1F1" height="159.7266" id="HotelSearchRequestDTO" rx="2.5" ry="2.5" style="stroke:#181818;stroke-width:0.5;" width="190.7373" x="1050" y="427.6211"/><ellipse cx="1065" cy="443.6211" fill="#ADD1B2" rx="11" ry="11" style="stroke:#181818;stroke-width:1.0;"/><path d="M1067.7656,439.4961 Q1067.9219,439.2773 1068.1094,439.168 Q1068.2969,439.0586 1068.5156,439.0586 Q1068.8906,439.0586 1069.125,439.3242 Q1069.3594,439.5742 1069.3594,440.1836 L1069.3594,441.6367 Q1069.3594,442.2461 1069.125,442.5117 Q1068.8906,442.7773 1068.5156,442.7773 Q1068.1719,442.7773 1067.9688,442.5742 Q1067.7656,442.3867 1067.6563,441.8711 Q1067.6094,441.5117 1067.4219,441.3242 Q1067.0938,440.9492 1066.4844,440.7305 Q1065.875,440.5117 1065.25,440.5117 Q1064.4844,440.5117 1063.8438,440.8398 Q1063.2188,441.168 1062.7188,441.918 Q1062.2344,442.668 1062.2344,443.6992 L1062.2344,444.793 Q1062.2344,446.0273 1063.125,446.8555 Q1064.0156,447.668 1065.6094,447.668 Q1066.5469,447.668 1067.2031,447.418 Q1067.5938,447.2617 1068.0156,446.8242 Q1068.2813,446.5586 1068.4219,446.4805 Q1068.5781,446.4023 1068.7813,446.4023 Q1069.1094,446.4023 1069.3594,446.668 Q1069.625,446.918 1069.625,447.2617 Q1069.625,447.6055 1069.2813,448.0117 Q1068.7813,448.5898 1067.9844,448.918 Q1066.9063,449.3711 1065.6094,449.3711 Q1064.0938,449.3711 1062.8906,448.7461 Q1061.9063,448.2461 1061.2188,447.1836 Q1060.5313,446.1055 1060.5313,444.8242 L1060.5313,443.668 Q1060.5313,442.3398 1061.1406,441.1992 Q1061.7656,440.043 1062.8594,439.4336 Q1063.9531,438.8086 1065.1875,438.8086 Q1065.9219,438.8086 1066.5625,438.9805 Q1067.2188,439.1367 1067.7656,439.4961 Z " fill="#000000"/><text fill="#000000" font-family="sans-serif" font-size="14" lengthAdjust="spacing" textLength="158.7373" x="1079" y="449.418">HotelSearchRequestDTO</text><line style="stroke:#181818;stroke-width:0.5;" x1="1051" x2="1239.7373" y1="459.6211" y2="459.6211"/><rect fill="none" height="6" style="stroke:#C82930;stroke-width:1.0;" width="6" x="1058" y="471.4316"/><text fill="#000000" font-family="sans-serif" font-size="14" lengthAdjust="spacing" textLength="123.7441" x="1070" y="478.7285">destinationId: String</text><rect fill="none" height="6" style="stroke:#C82930;stroke-width:1.0;" width="6" x="1058" y="490.0527"/><text fill="#000000" font-family="sans-serif" font-size="14" lengthAdjust="spacing" textLength="59.9238" x="1070" y="497.3496">adults: int</text><rect fill="none" height="6" style="stroke:#C82930;stroke-width:1.0;" width="6" x="1058" y="508.6738"/><text fill="#000000" font-family="sans-serif" font-size="14" lengthAdjust="spacing" textLength="71.5928" x="1070" y="515.9707">children: int</text><rect fill="none" height="6" style="stroke:#C82930;stroke-width:1.0;" width="6" x="1058" y="527.2949"/><text fill="#000000" font-family="sans-serif" font-size="14" lengthAdjust="spacing" textLength="61.4619" x="1070" y="534.5918">rooms: int</text><rect fill="none" height="6" style="stroke:#C82930;stroke-width:1.0;" width="6" x="1058" y="545.916"/><text fill="#000000" font-family="sans-serif" font-size="14" lengthAdjust="spacing" textLength="122.1719" x="1070" y="553.2129">checkInDate: String</text><rect fill="none" height="6" style="stroke:#C82930;stroke-width:1.0;" width="6" x="1058" y="564.5371"/><text fill="#000000" font-family="sans-serif" font-size="14" lengthAdjust="spacing" textLength="133.0615" x="1070" y="571.834">checkOutDate: String</text><line style="stroke:#181818;stroke-width:0.5;" x1="1051" x2="1239.7373" y1="579.3477" y2="579.3477"/></g><!--class HotelSearchResponseDTO--><g id="elem_HotelSearchResponseDTO"><rect codeLine="45" fill="#F1F1F1" height="66.6211" id="HotelSearchResponseDTO" rx="2.5" ry="2.5" style="stroke:#181818;stroke-width:0.5;" width="201.6338" x="1193.5" y="783.6211"/><ellipse cx="1208.5" cy="799.6211" fill="#ADD1B2" rx="11" ry="11" style="stroke:#181818;stroke-width:1.0;"/><path d="M1211.2656,795.4961 Q1211.4219,795.2773 1211.6094,795.168 Q1211.7969,795.0586 1212.0156,795.0586 Q1212.3906,795.0586 1212.625,795.3242 Q1212.8594,795.5742 1212.8594,796.1836 L1212.8594,797.6367 Q1212.8594,798.2461 1212.625,798.5117 Q1212.3906,798.7773 1212.0156,798.7773 Q1211.6719,798.7773 1211.4688,798.5742 Q1211.2656,798.3867 1211.1563,797.8711 Q1211.1094,797.5117 1210.9219,797.3242 Q1210.5938,796.9492 1209.9844,796.7305 Q1209.375,796.5117 1208.75,796.5117 Q1207.9844,796.5117 1207.3438,796.8398 Q1206.7188,797.168 1206.2188,797.918 Q1205.7344,798.668 1205.7344,799.6992 L1205.7344,800.793 Q1205.7344,802.0273 1206.625,802.8555 Q1207.5156,803.668 1209.1094,803.668 Q1210.0469,803.668 1210.7031,803.418 Q1211.0938,803.2617 1211.5156,802.8242 Q1211.7813,802.5586 1211.9219,802.4805 Q1212.0781,802.4023 1212.2813,802.4023 Q1212.6094,802.4023 1212.8594,802.668 Q1213.125,802.918 1213.125,803.2617 Q1213.125,803.6055 1212.7813,804.0117 Q1212.2813,804.5898 1211.4844,804.918 Q1210.4063,805.3711 1209.1094,805.3711 Q1207.5938,805.3711 1206.3906,804.7461 Q1205.4063,804.2461 1204.7188,803.1836 Q1204.0313,802.1055 1204.0313,800.8242 L1204.0313,799.668 Q1204.0313,798.3398 1204.6406,797.1992 Q1205.2656,796.043 1206.3594,795.4336 Q1207.4531,794.8086 1208.6875,794.8086 Q1209.4219,794.8086 1210.0625,794.9805 Q1210.7188,795.1367 1211.2656,795.4961 Z " fill="#000000"/><text fill="#000000" font-family="sans-serif" font-size="14" lengthAdjust="spacing" textLength="169.6338" x="1222.5" y="805.418">HotelSearchResponseDTO</text><line style="stroke:#181818;stroke-width:0.5;" x1="1194.5" x2="1394.1338" y1="815.6211" y2="815.6211"/><rect fill="none" height="6" style="stroke:#C82930;stroke-width:1.0;" width="6" x="1201.5" y="827.4316"/><text fill="#000000" font-family="sans-serif" font-size="14" lengthAdjust="spacing" textLength="115.958" x="1213.5" y="834.7285">hotels: List&lt;Hotel&gt;</text><line style="stroke:#181818;stroke-width:0.5;" x1="1194.5" x2="1394.1338" y1="842.2422" y2="842.2422"/></g><!--class Hotel--><g id="elem_Hotel"><rect codeLine="50" fill="#F1F1F1" height="308.6953" id="Hotel" rx="2.5" ry="2.5" style="stroke:#181818;stroke-width:0.5;" width="229.1094" x="632" y="919.6211"/><ellipse cx="725.9634" cy="935.6211" fill="#ADD1B2" rx="11" ry="11" style="stroke:#181818;stroke-width:1.0;"/><path d="M728.729,931.4961 Q728.8853,931.2773 729.0728,931.168 Q729.2603,931.0586 729.479,931.0586 Q729.854,931.0586 730.0884,931.3242 Q730.3228,931.5742 730.3228,932.1836 L730.3228,933.6367 Q730.3228,934.2461 730.0884,934.5117 Q729.854,934.7773 729.479,934.7773 Q729.1353,934.7773 728.9321,934.5742 Q728.729,934.3867 728.6196,933.8711 Q728.5728,933.5117 728.3853,933.3242 Q728.0571,932.9492 727.4478,932.7305 Q726.8384,932.5117 726.2134,932.5117 Q725.4478,932.5117 724.8071,932.8398 Q724.1821,933.168 723.6821,933.918 Q723.1978,934.668 723.1978,935.6992 L723.1978,936.793 Q723.1978,938.0273 724.0884,938.8555 Q724.979,939.668 726.5728,939.668 Q727.5103,939.668 728.1665,939.418 Q728.5571,939.2617 728.979,938.8242 Q729.2446,938.5586 729.3853,938.4805 Q729.5415,938.4023 729.7446,938.4023 Q730.0728,938.4023 730.3228,938.668 Q730.5884,938.918 730.5884,939.2617 Q730.5884,939.6055 730.2446,940.0117 Q729.7446,940.5898 728.9478,940.918 Q727.8696,941.3711 726.5728,941.3711 Q725.0571,941.3711 723.854,940.7461 Q722.8696,940.2461 722.1821,939.1836 Q721.4946,938.1055 721.4946,936.8242 L721.4946,935.668 Q721.4946,934.3398 722.104,933.1992 Q722.729,932.043 723.8228,931.4336 Q724.9165,930.8086 726.1509,930.8086 Q726.8853,930.8086 727.5259,930.9805 Q728.1821,931.1367 728.729,931.4961 Z " fill="#000000"/><text fill="#000000" font-family="sans-serif" font-size="14" lengthAdjust="spacing" textLength="32.6826" x="746.4634" y="941.418">Hotel</text><line style="stroke:#181818;stroke-width:0.5;" x1="633" x2="860.1094" y1="951.6211" y2="951.6211"/><rect fill="none" height="6" style="stroke:#C82930;stroke-width:1.0;" width="6" x="640" y="963.4316"/><text fill="#000000" font-family="sans-serif" font-size="14" lengthAdjust="spacing" textLength="79.3721" x="652" y="970.7285">name: String</text><rect fill="none" height="6" style="stroke:#C82930;stroke-width:1.0;" width="6" x="640" y="982.0527"/><text fill="#000000" font-family="sans-serif" font-size="14" lengthAdjust="spacing" textLength="92.6064" x="652" y="989.3496">location: String</text><rect fill="none" height="6" style="stroke:#C82930;stroke-width:1.0;" width="6" x="640" y="1000.6738"/><text fill="#000000" font-family="sans-serif" font-size="14" lengthAdjust="spacing" textLength="89.4961" x="652" y="1007.9707">latitude: String</text><rect fill="none" height="6" style="stroke:#C82930;stroke-width:1.0;" width="6" x="640" y="1019.2949"/><text fill="#000000" font-family="sans-serif" font-size="14" lengthAdjust="spacing" textLength="101.1787" x="652" y="1026.5918">longitude: String</text><rect fill="none" height="6" style="stroke:#C82930;stroke-width:1.0;" width="6" x="640" y="1037.916"/><text fill="#000000" font-family="sans-serif" font-size="14" lengthAdjust="spacing" textLength="155.5928" x="652" y="1045.2129">checkinFromTime: String</text><rect fill="none" height="6" style="stroke:#C82930;stroke-width:1.0;" width="6" x="640" y="1056.5371"/><text fill="#000000" font-family="sans-serif" font-size="14" lengthAdjust="spacing" textLength="150.9375" x="652" y="1063.834">checkinUntilTime: String</text><rect fill="none" height="6" style="stroke:#C82930;stroke-width:1.0;" width="6" x="640" y="1075.1582"/><text fill="#000000" font-family="sans-serif" font-size="14" lengthAdjust="spacing" textLength="164.1582" x="652" y="1082.4551">checkoutFromTime: String</text><rect fill="none" height="6" style="stroke:#C82930;stroke-width:1.0;" width="6" x="640" y="1093.7793"/><text fill="#000000" font-family="sans-serif" font-size="14" lengthAdjust="spacing" textLength="159.5029" x="652" y="1101.0762">checkoutUntilTime: String</text><rect fill="none" height="6" style="stroke:#C82930;stroke-width:1.0;" width="6" x="640" y="1112.4004"/><text fill="#000000" font-family="sans-serif" font-size="14" lengthAdjust="spacing" textLength="126.8477" x="652" y="1119.6973">reviewScore: double</text><rect fill="none" height="6" style="stroke:#C82930;stroke-width:1.0;" width="6" x="640" y="1131.0215"/><text fill="#000000" font-family="sans-serif" font-size="14" lengthAdjust="spacing" textLength="154.8271" x="652" y="1138.3184">reviewScoreWord: String</text><rect fill="none" height="6" style="stroke:#C82930;stroke-width:1.0;" width="6" x="640" y="1149.6426"/><text fill="#000000" font-family="sans-serif" font-size="14" lengthAdjust="spacing" textLength="100.3789" x="652" y="1156.9395">reviewCount: int</text><rect fill="none" height="6" style="stroke:#C82930;stroke-width:1.0;" width="6" x="640" y="1168.2637"/><text fill="#000000" font-family="sans-serif" font-size="14" lengthAdjust="spacing" textLength="203.1094" x="652" y="1175.5605">proposedAccommodation: String</text><rect fill="none" height="6" style="stroke:#C82930;stroke-width:1.0;" width="6" x="640" y="1186.8848"/><text fill="#000000" font-family="sans-serif" font-size="14" lengthAdjust="spacing" textLength="189.0547" x="652" y="1194.1816">priceDetailsGross: BigDecimal</text><rect fill="none" height="6" style="stroke:#C82930;stroke-width:1.0;" width="6" x="640" y="1205.5059"/><text fill="#000000" font-family="sans-serif" font-size="14" lengthAdjust="spacing" textLength="175.0684" x="652" y="1212.8027">priceDetailsInfo: BigDecimal</text><line style="stroke:#181818;stroke-width:0.5;" x1="633" x2="860.1094" y1="1220.3164" y2="1220.3164"/></g><!--class TripTopConfigProvider--><g id="elem_TripTopConfigProvider"><rect codeLine="68" fill="#F1F1F1" height="66.6211" id="TripTopConfigProvider" rx="2.5" ry="2.5" style="stroke:#181818;stroke-width:0.5;" width="194.0889" x="427.5" y="783.6211"/><ellipse cx="452.0647" cy="799.6211" fill="#ADD1B2" rx="11" ry="11" style="stroke:#181818;stroke-width:1.0;"/><path d="M454.8303,795.4961 Q454.9866,795.2773 455.1741,795.168 Q455.3616,795.0586 455.5803,795.0586 Q455.9553,795.0586 456.1897,795.3242 Q456.4241,795.5742 456.4241,796.1836 L456.4241,797.6367 Q456.4241,798.2461 456.1897,798.5117 Q455.9553,798.7773 455.5803,798.7773 Q455.2366,798.7773 455.0334,798.5742 Q454.8303,798.3867 454.7209,797.8711 Q454.6741,797.5117 454.4866,797.3242 Q454.1584,796.9492 453.5491,796.7305 Q452.9397,796.5117 452.3147,796.5117 Q451.5491,796.5117 450.9084,796.8398 Q450.2834,797.168 449.7834,797.918 Q449.2991,798.668 449.2991,799.6992 L449.2991,800.793 Q449.2991,802.0273 450.1897,802.8555 Q451.0803,803.668 452.6741,803.668 Q453.6116,803.668 454.2678,803.418 Q454.6584,803.2617 455.0803,802.8242 Q455.3459,802.5586 455.4866,802.4805 Q455.6428,802.4023 455.8459,802.4023 Q456.1741,802.4023 456.4241,802.668 Q456.6897,802.918 456.6897,803.2617 Q456.6897,803.6055 456.3459,804.0117 Q455.8459,804.5898 455.0491,804.918 Q453.9709,805.3711 452.6741,805.3711 Q451.1584,805.3711 449.9553,804.7461 Q448.9709,804.2461 448.2834,803.1836 Q447.5959,802.1055 447.5959,800.8242 L447.5959,799.668 Q447.5959,798.3398 448.2053,797.1992 Q448.8303,796.043 449.9241,795.4336 Q451.0178,794.8086 452.2522,794.8086 Q452.9866,794.8086 453.6272,794.9805 Q454.2834,795.1367 454.8303,795.4961 Z " fill="#000000"/><text fill="#000000" font-family="sans-serif" font-size="14" lengthAdjust="spacing" textLength="140.834" x="468.1902" y="805.418">TripTopConfigProvider</text><line style="stroke:#181818;stroke-width:0.5;" x1="428.5" x2="620.5889" y1="815.6211" y2="815.6211"/><line style="stroke:#181818;stroke-width:0.5;" x1="428.5" x2="620.5889" y1="823.6211" y2="823.6211"/><ellipse cx="438.5" cy="838.4316" fill="#84BE84" rx="3" ry="3" style="stroke:#038048;stroke-width:1.0;"/><text fill="#000000" font-family="sans-serif" font-size="14" lengthAdjust="spacing" textLength="168.0889" x="447.5" y="842.7285">getBookingApiKey(): String</text></g><!--class ExternalApiClient--><g id="elem_ExternalApiClient"><rect codeLine="72" fill="#F1F1F1" height="66.6211" id="ExternalApiClient" rx="2.5" ry="2.5" style="stroke:#181818;stroke-width:0.5;" width="500.6738" x="657" y="783.6211"/><ellipse cx="849.394" cy="799.6211" fill="#ADD1B2" rx="11" ry="11" style="stroke:#181818;stroke-width:1.0;"/><path d="M852.1597,795.4961 Q852.3159,795.2773 852.5034,795.168 Q852.6909,795.0586 852.9097,795.0586 Q853.2847,795.0586 853.519,795.3242 Q853.7534,795.5742 853.7534,796.1836 L853.7534,797.6367 Q853.7534,798.2461 853.519,798.5117 Q853.2847,798.7773 852.9097,798.7773 Q852.5659,798.7773 852.3628,798.5742 Q852.1597,798.3867 852.0503,797.8711 Q852.0034,797.5117 851.8159,797.3242 Q851.4878,796.9492 850.8784,796.7305 Q850.269,796.5117 849.644,796.5117 Q848.8784,796.5117 848.2378,796.8398 Q847.6128,797.168 847.1128,797.918 Q846.6284,798.668 846.6284,799.6992 L846.6284,800.793 Q846.6284,802.0273 847.519,802.8555 Q848.4097,803.668 850.0034,803.668 Q850.9409,803.668 851.5972,803.418 Q851.9878,803.2617 852.4097,802.8242 Q852.6753,802.5586 852.8159,802.4805 Q852.9722,802.4023 853.1753,802.4023 Q853.5034,802.4023 853.7534,802.668 Q854.019,802.918 854.019,803.2617 Q854.019,803.6055 853.6753,804.0117 Q853.1753,804.5898 852.3784,804.918 Q851.3003,805.3711 850.0034,805.3711 Q848.4878,805.3711 847.2847,804.7461 Q846.3003,804.2461 845.6128,803.1836 Q844.9253,802.1055 844.9253,800.8242 L844.9253,799.668 Q844.9253,798.3398 845.5347,797.1992 Q846.1597,796.043 847.2534,795.4336 Q848.3472,794.8086 849.5815,794.8086 Q850.3159,794.8086 850.9565,794.9805 Q851.6128,795.1367 852.1597,795.4961 Z " fill="#000000"/><text fill="#000000" font-family="sans-serif" font-size="14" lengthAdjust="spacing" textLength="107.3857" x="869.894" y="805.418">ExternalApiClient</text><line style="stroke:#181818;stroke-width:0.5;" x1="658" x2="1156.6738" y1="815.6211" y2="815.6211"/><line style="stroke:#181818;stroke-width:0.5;" x1="658" x2="1156.6738" y1="823.6211" y2="823.6211"/><ellipse cx="668" cy="838.4316" fill="#84BE84" rx="3" ry="3" style="stroke:#038048;stroke-width:1.0;"/><text fill="#000000" font-family="sans-serif" font-size="14" lengthAdjust="spacing" textLength="474.6738" x="677" y="842.7285">callApi(endpoint: String, params: Map&lt;String, String&gt;, apiKey: String): String</text></g><!--class AppConfig--><g id="elem_AppConfig"><rect codeLine="77" fill="#F1F1F1" height="66.6211" id="AppConfig" rx="2.5" ry="2.5" style="stroke:#181818;stroke-width:0.5;" width="211.9443" x="1644.5" y="46.6211"/><ellipse cx="1713.5327" cy="62.6211" fill="#ADD1B2" rx="11" ry="11" style="stroke:#181818;stroke-width:1.0;"/><path d="M1716.2983,58.4961 Q1716.4546,58.2773 1716.6421,58.168 Q1716.8296,58.0586 1717.0483,58.0586 Q1717.4233,58.0586 1717.6577,58.3242 Q1717.8921,58.5742 1717.8921,59.1836 L1717.8921,60.6367 Q1717.8921,61.2461 1717.6577,61.5117 Q1717.4233,61.7773 1717.0483,61.7773 Q1716.7046,61.7773 1716.5015,61.5742 Q1716.2983,61.3867 1716.189,60.8711 Q1716.1421,60.5117 1715.9546,60.3242 Q1715.6265,59.9492 1715.0171,59.7305 Q1714.4077,59.5117 1713.7827,59.5117 Q1713.0171,59.5117 1712.3765,59.8398 Q1711.7515,60.168 1711.2515,60.918 Q1710.7671,61.668 1710.7671,62.6992 L1710.7671,63.793 Q1710.7671,65.0273 1711.6577,65.8555 Q1712.5483,66.668 1714.1421,66.668 Q1715.0796,66.668 1715.7358,66.418 Q1716.1265,66.2617 1716.5483,65.8242 Q1716.814,65.5586 1716.9546,65.4805 Q1717.1108,65.4023 1717.314,65.4023 Q1717.6421,65.4023 1717.8921,65.668 Q1718.1577,65.918 1718.1577,66.2617 Q1718.1577,66.6055 1717.814,67.0117 Q1717.314,67.5898 1716.5171,67.918 Q1715.439,68.3711 1714.1421,68.3711 Q1712.6265,68.3711 1711.4233,67.7461 Q1710.439,67.2461 1709.7515,66.1836 Q1709.064,65.1055 1709.064,63.8242 L1709.064,62.668 Q1709.064,61.3398 1709.6733,60.1992 Q1710.2983,59.043 1711.3921,58.4336 Q1712.4858,57.8086 1713.7202,57.8086 Q1714.4546,57.8086 1715.0952,57.9805 Q1715.7515,58.1367 1716.2983,58.4961 Z " fill="#000000"/><text fill="#000000" font-family="sans-serif" font-size="14" lengthAdjust="spacing" textLength="65.3789" x="1734.0327" y="68.418">AppConfig</text><line style="stroke:#181818;stroke-width:0.5;" x1="1645.5" x2="1855.4443" y1="78.6211" y2="78.6211"/><line style="stroke:#181818;stroke-width:0.5;" x1="1645.5" x2="1855.4443" y1="86.6211" y2="86.6211"/><ellipse cx="1655.5" cy="101.4316" fill="#84BE84" rx="3" ry="3" style="stroke:#038048;stroke-width:1.0;"/><text fill="#000000" font-family="sans-serif" font-size="14" lengthAdjust="spacing" textLength="185.9443" x="1664.5" y="105.7285">restTemplate(): RestTemplate</text></g><!--class RestTemplate--><g id="elem_RestTemplate"><rect fill="#F1F1F1" height="48" id="RestTemplate" rx="2.5" ry="2.5" style="stroke:#181818;stroke-width:0.5;" width="119.1445" x="1691" y="183.1211"/><ellipse cx="1706" cy="199.1211" fill="#ADD1B2" rx="11" ry="11" style="stroke:#181818;stroke-width:1.0;"/><path d="M1708.7656,194.9961 Q1708.9219,194.7773 1709.1094,194.668 Q1709.2969,194.5586 1709.5156,194.5586 Q1709.8906,194.5586 1710.125,194.8242 Q1710.3594,195.0742 1710.3594,195.6836 L1710.3594,197.1367 Q1710.3594,197.7461 1710.125,198.0117 Q1709.8906,198.2773 1709.5156,198.2773 Q1709.1719,198.2773 1708.9688,198.0742 Q1708.7656,197.8867 1708.6563,197.3711 Q1708.6094,197.0117 1708.4219,196.8242 Q1708.0938,196.4492 1707.4844,196.2305 Q1706.875,196.0117 1706.25,196.0117 Q1705.4844,196.0117 1704.8438,196.3398 Q1704.2188,196.668 1703.7188,197.418 Q1703.2344,198.168 1703.2344,199.1992 L1703.2344,200.293 Q1703.2344,201.5273 1704.125,202.3555 Q1705.0156,203.168 1706.6094,203.168 Q1707.5469,203.168 1708.2031,202.918 Q1708.5938,202.7617 1709.0156,202.3242 Q1709.2813,202.0586 1709.4219,201.9805 Q1709.5781,201.9023 1709.7813,201.9023 Q1710.1094,201.9023 1710.3594,202.168 Q1710.625,202.418 1710.625,202.7617 Q1710.625,203.1055 1710.2813,203.5117 Q1709.7813,204.0898 1708.9844,204.418 Q1707.9063,204.8711 1706.6094,204.8711 Q1705.0938,204.8711 1703.8906,204.2461 Q1702.9063,203.7461 1702.2188,202.6836 Q1701.5313,201.6055 1701.5313,200.3242 L1701.5313,199.168 Q1701.5313,197.8398 1702.1406,196.6992 Q1702.7656,195.543 1703.8594,194.9336 Q1704.9531,194.3086 1706.1875,194.3086 Q1706.9219,194.3086 1707.5625,194.4805 Q1708.2188,194.6367 1708.7656,194.9961 Z " fill="#000000"/><text fill="#000000" font-family="sans-serif" font-size="14" lengthAdjust="spacing" textLength="87.1445" x="1720" y="204.918">RestTemplate</text><line style="stroke:#181818;stroke-width:0.5;" x1="1692" x2="1809.1445" y1="215.1211" y2="215.1211"/><line style="stroke:#181818;stroke-width:0.5;" x1="1692" x2="1809.1445" y1="223.1211" y2="223.1211"/></g><!--link TriptopPrototypeApplication to BookingController--><g id="link_TriptopPrototypeApplication_BookingController"><path codeLine="82" d="M1145.5,113.6411 C1145.5,132.0111 1145.5,148.9111 1145.5,167.3311 " fill="none" id="TriptopPrototypeApplication-to-BookingController" style="stroke:#181818;stroke-width:1.0;"/><polygon fill="#181818" points="1145.5,173.3311,1149.5,164.3311,1145.5,168.3311,1141.5,164.3311,1145.5,173.3311" style="stroke:#181818;stroke-width:1.0;"/></g><!--link BookingController to BookingFacade--><g id="link_BookingController_BookingFacade"><path codeLine="83" d="M1145.5,240.6411 C1145.5,259.0111 1145.5,275.9111 1145.5,294.3311 " fill="none" id="BookingController-to-BookingFacade" style="stroke:#181818;stroke-width:1.0;"/><polygon fill="#181818" points="1145.5,300.3311,1149.5,291.3311,1145.5,295.3311,1141.5,291.3311,1145.5,300.3311" style="stroke:#181818;stroke-width:1.0;"/></g><!--link BookingFacade to BookingService--><g id="link_BookingFacade_BookingService"><path codeLine="84" d="M1072.18,367.7811 C1003.67,398.3011 907.4508,441.1595 839.0308,471.6395 " fill="none" id="BookingFacade-to-BookingService" style="stroke:#181818;stroke-width:1.0;"/><polygon fill="#181818" points="833.55,474.0811,843.3989,474.0725,838.1173,472.0464,840.1434,466.7649,833.55,474.0811" style="stroke:#181818;stroke-width:1.0;"/></g><!--link BookingService to ExternalApiService--><g id="link_BookingService_ExternalApiService"><path codeLine="85" d="M760.5,541.2811 C760.5,571.8011 760.5,611.1011 760.5,641.5811 " fill="none" id="BookingService-to-ExternalApiService" style="stroke:#181818;stroke-width:1.0;"/><polygon fill="#181818" points="760.5,647.5811,764.5,638.5811,760.5,642.5811,756.5,638.5811,760.5,647.5811" style="stroke:#181818;stroke-width:1.0;"/></g><!--link ExternalApiService to ExternalApiClient--><g id="link_ExternalApiService_ExternalApiClient"><path codeLine="86" d="M796.46,714.9011 C819.32,735.7411 844.3759,758.579 867.2259,779.409 " fill="none" id="ExternalApiService-to-ExternalApiClient" style="stroke:#181818;stroke-width:1.0;"/><polygon fill="#181818" points="871.66,783.4511,867.7036,774.4318,867.9649,780.0827,862.3141,780.344,871.66,783.4511" style="stroke:#181818;stroke-width:1.0;"/></g><!--link ExternalApiService to HotelResponseParser--><g id="link_ExternalApiService_HotelResponseParser"><path codeLine="87" d="M624.34,714.6411 C548.86,732.6711 460.0458,753.887 379.2558,773.187 " fill="none" id="ExternalApiService-to-HotelResponseParser" style="stroke:#181818;stroke-width:1.0;"/><polygon fill="#181818" points="373.42,774.5811,383.1031,776.3804,378.2832,773.4193,381.2443,768.5994,373.42,774.5811" style="stroke:#181818;stroke-width:1.0;"/></g><!--link ExternalApiService to TripTopConfigProvider--><g id="link_ExternalApiService_TripTopConfigProvider"><path codeLine="88" d="M703.07,714.7311 C666.23,735.6511 623.8076,759.7386 586.9976,780.6386 " fill="none" id="ExternalApiService-to-TripTopConfigProvider" style="stroke:#181818;stroke-width:1.0;"/><polygon fill="#181818" points="581.78,783.6011,591.5814,782.6358,586.128,781.1324,587.6315,775.679,581.78,783.6011" style="stroke:#181818;stroke-width:1.0;"/></g><!--link BookingFacade to HotelSearchRequestDTO--><g id="link_BookingFacade_HotelSearchRequestDTO"><path codeLine="89" d="M1145.5,367.7811 C1145.5,384.7911 1145.5,400.3911 1145.5,421.4611 " fill="none" id="BookingFacade-to-HotelSearchRequestDTO" style="stroke:#181818;stroke-width:1.0;"/><polygon fill="#181818" points="1145.5,427.4611,1149.5,418.4611,1145.5,422.4611,1141.5,418.4611,1145.5,427.4611" style="stroke:#181818;stroke-width:1.0;"/></g><!--link BookingFacade to HotelSearchResponseDTO--><g id="link_BookingFacade_HotelSearchResponseDTO"><path codeLine="90" d="M1201.95,367.6711 C1223.32,383.0211 1245.59,403.3311 1258.5,427.6211 C1321.46,546.0511 1309.3322,707.731 1300.2622,777.621 " fill="none" id="BookingFacade-to-HotelSearchResponseDTO" style="stroke:#181818;stroke-width:1.0;"/><polygon fill="#181818" points="1299.49,783.5711,1304.615,775.1607,1300.1335,778.6127,1296.6815,774.1312,1299.49,783.5711" style="stroke:#181818;stroke-width:1.0;"/></g><!--link ExternalApiService to HotelSearchResponseDTO--><g id="link_ExternalApiService_HotelSearchResponseDTO"><path codeLine="91" d="M927.2,714.6511 C1003.42,730.7111 1094.57,751.5711 1175.5,774.6211 C1185.07,777.3511 1189.3053,778.552 1199.1553,781.762 " fill="none" id="ExternalApiService-to-HotelSearchResponseDTO" style="stroke:#181818;stroke-width:1.0;"/><polygon fill="#181818" points="1204.86,783.6211,1197.5423,777.0293,1200.1061,782.0718,1195.0635,784.6356,1204.86,783.6211" style="stroke:#181818;stroke-width:1.0;"/></g><!--link HotelResponseParser to Hotel--><g id="link_HotelResponseParser_Hotel"><path codeLine="92" d="M288.6,859.6611 C382.15,903.2711 524.1219,969.4559 626.3119,1017.0959 " fill="none" id="HotelResponseParser-to-Hotel" style="stroke:#181818;stroke-width:1.0;"/><polygon fill="#181818" points="631.75,1019.6311,625.283,1012.2029,627.2183,1017.5184,621.9027,1019.4537,631.75,1019.6311" style="stroke:#181818;stroke-width:1.0;"/></g><!--link HotelSearchResponseDTO to Hotel--><g id="link_HotelSearchResponseDTO_Hotel"><path codeLine="93" d="M1224.54,850.6711 C1132.85,893.3411 976.2899,966.1898 866.5599,1017.2498 " fill="none" id="HotelSearchResponseDTO-to-Hotel" style="stroke:#181818;stroke-width:1.0;"/><polygon fill="#181818" points="861.12,1019.7811,870.9674,1019.6107,865.6532,1017.6717,867.5923,1012.3575,861.12,1019.7811" style="stroke:#181818;stroke-width:1.0;"/></g><!--link AppConfig to RestTemplate--><g id="link_AppConfig_RestTemplate"><path codeLine="94" d="M1750.5,113.6411 C1750.5,135.3411 1750.5,157.3611 1750.5,176.8411 " fill="none" id="AppConfig-to-RestTemplate" style="stroke:#181818;stroke-width:1.0;"/><polygon fill="#181818" points="1750.5,182.8411,1754.5,173.8411,1750.5,177.8411,1746.5,173.8411,1750.5,182.8411" style="stroke:#181818;stroke-width:1.0;"/></g><!--SRC=[hLNRRXiX47tVh-2j6pN-WIYovDX9wzuInQxwKFM1BfCr3SjGODrQLV-zB2pU6tQbgdwmpSoPuGpC72ot0iXIK6F8YjDIquhCo5PpjKL55ae9Nb3BKMRPY_wI54r8vhyztA9wq6ZH7XJqSRyouZulAyfbJdLfhiZ6QYxBprykhiWUESj-DwcNAAr68K2tEMyGdnsiiyTC1gWkTg_HWZ0v0sEvz3kjMKnzIIYhXNLRSMalIR7ZWccGxL8ZLfqBYkUrN54BNR0ttjUsRtLS7y4eb0PkfUNsSEq9R3oNw5bjx-UXcZjQK0R3Ie8jMOM6xxKhv8eCadgRotaniXyt2tjjGEzv0KJGm_Zmekk_xxbuM1CJahSxtlwqe2KL2yN_VLTtSOg_XKFlrC-n-6YvS5VHCl38Y7cWsdGjevfLO101-JU3CYvw-xtZneQxdVlOMHURxvhl3yWS_esBRlv5Xe6GOnRc0aoVrBZCbjOisRp1rMlWO1WqSJ1rZHmXasRkEKODtH1EK3oUSEJeQpR3SmcrOZFI0ndmxXWeQJMY8J18miZgRBPc4wmi4sPV2PTt6gijhzBEZsu-nGalrlPChFEU2DQmv_1ZKw1s3eRrLm4JnoVKB1Mrn5hQtZKfZGeDi4LHO5KXIvo9qcv-Lc0f5-QLHkFE_uQNAoXuHSKKifPFE414HNtY9Q6I-N4j10T7eHDif-y1ucHxpratBINOLZyMVXhpYsdJzCPzwHF7u8AAnfY3P0fvKtYKLJT8jEdNzrHTHrludIVcljjmzEnuohKERr8Wu_njiIq9xGPh2vLolGLvaExZEgHy1E4pc1rN9ZltVircy-bRb4rVfnwkLV-XxlVyhK1c8vLk45CPpHBAEaA66pW5JEZYAMYoBH9r95NjRxXElCyHdQ9Jkdw4PoVKgmDqpT7O1ftm1m00]--></g></svg>