<svg xmlns="http://www.w3.org/2000/svg" xmlns:xlink="http://www.w3.org/1999/xlink" contentStyleType="text/css" height="656px" preserveAspectRatio="none" style="width:2191px;height:656px;background:#FFFFFF;" version="1.1" viewBox="0 0 2191 656" width="2191px" zoomAndPan="magnify"><defs/><g><line style="stroke:#181818;stroke-width:0.5;stroke-dasharray:5.0,5.0;" x1="38" x2="38" y1="83.6211" y2="572.9863"/><line style="stroke:#181818;stroke-width:0.5;stroke-dasharray:5.0,5.0;" x1="206.8242" x2="206.8242" y1="83.6211" y2="572.9863"/><line style="stroke:#181818;stroke-width:0.5;stroke-dasharray:5.0,5.0;" x1="356.6787" x2="356.6787" y1="83.6211" y2="572.9863"/><line style="stroke:#181818;stroke-width:0.5;stroke-dasharray:5.0,5.0;" x1="616.9858" x2="616.9858" y1="83.6211" y2="572.9863"/><line style="stroke:#181818;stroke-width:0.5;stroke-dasharray:5.0,5.0;" x1="919.9404" x2="919.9404" y1="83.6211" y2="572.9863"/><line style="stroke:#181818;stroke-width:0.5;stroke-dasharray:5.0,5.0;" x1="1161.6572" x2="1161.6572" y1="83.6211" y2="572.9863"/><line style="stroke:#181818;stroke-width:0.5;stroke-dasharray:5.0,5.0;" x1="1315.4912" x2="1315.4912" y1="83.6211" y2="572.9863"/><line style="stroke:#181818;stroke-width:0.5;stroke-dasharray:5.0,5.0;" x1="1747.96" x2="1747.96" y1="83.6211" y2="572.9863"/><line style="stroke:#181818;stroke-width:0.5;stroke-dasharray:5.0,5.0;" x1="2124.5786" x2="2124.5786" y1="83.6211" y2="572.9863"/><text fill="#000000" font-family="sans-serif" font-size="14" lengthAdjust="spacing" textLength="61.4688" x="5" y="80.1074">Gebruiker</text><ellipse cx="38.7344" cy="13.5" fill="#E2E2F0" rx="8" ry="8" style="stroke:#181818;stroke-width:0.5;"/><path d="M38.7344,21.5 L38.7344,48.5 M25.7344,29.5 L51.7344,29.5 M38.7344,48.5 L25.7344,63.5 M38.7344,48.5 L51.7344,63.5 " fill="none" style="stroke:#181818;stroke-width:0.5;"/><text fill="#000000" font-family="sans-serif" font-size="14" lengthAdjust="spacing" textLength="61.4688" x="5" y="587.0938">Gebruiker</text><ellipse cx="38.7344" cy="599.1074" fill="#E2E2F0" rx="8" ry="8" style="stroke:#181818;stroke-width:0.5;"/><path d="M38.7344,607.1074 L38.7344,634.1074 M25.7344,615.1074 L51.7344,615.1074 M38.7344,634.1074 L25.7344,649.1074 M38.7344,634.1074 L51.7344,649.1074 " fill="none" style="stroke:#181818;stroke-width:0.5;"/><rect fill="#E2E2F0" height="32.6211" rx="2.5" ry="2.5" style="stroke:#181818;stroke-width:0.5;" width="154.8545" x="129.8242" y="50"/><text fill="#000000" font-family="sans-serif" font-size="14" lengthAdjust="spacing" textLength="140.8545" x="136.8242" y="72.1074">Backend (Spring Boot)</text><rect fill="#E2E2F0" height="32.6211" rx="2.5" ry="2.5" style="stroke:#181818;stroke-width:0.5;" width="154.8545" x="129.8242" y="571.9863"/><text fill="#000000" font-family="sans-serif" font-size="14" lengthAdjust="spacing" textLength="140.8545" x="136.8242" y="594.0938">Backend (Spring Boot)</text><rect fill="#E2E2F0" height="32.6211" rx="2.5" ry="2.5" style="stroke:#181818;stroke-width:0.5;" width="125.2822" x="294.6787" y="50"/><text fill="#000000" font-family="sans-serif" font-size="14" lengthAdjust="spacing" textLength="111.2822" x="301.6787" y="72.1074">BookingController</text><rect fill="#E2E2F0" height="32.6211" rx="2.5" ry="2.5" style="stroke:#181818;stroke-width:0.5;" width="125.2822" x="294.6787" y="571.9863"/><text fill="#000000" font-family="sans-serif" font-size="14" lengthAdjust="spacing" textLength="111.2822" x="301.6787" y="594.0938">BookingController</text><rect fill="#E2E2F0" height="32.6211" rx="2.5" ry="2.5" style="stroke:#181818;stroke-width:0.5;" width="111.2891" x="561.9858" y="50"/><text fill="#000000" font-family="sans-serif" font-size="14" lengthAdjust="spacing" textLength="97.2891" x="568.9858" y="72.1074">BookingFacade</text><rect fill="#E2E2F0" height="32.6211" rx="2.5" ry="2.5" style="stroke:#181818;stroke-width:0.5;" width="111.2891" x="561.9858" y="571.9863"/><text fill="#000000" font-family="sans-serif" font-size="14" lengthAdjust="spacing" textLength="97.2891" x="568.9858" y="594.0938">BookingFacade</text><rect fill="#E2E2F0" height="32.6211" rx="2.5" ry="2.5" style="stroke:#181818;stroke-width:0.5;" width="111.2754" x="864.9404" y="50"/><text fill="#000000" font-family="sans-serif" font-size="14" lengthAdjust="spacing" textLength="97.2754" x="871.9404" y="72.1074">BookingService</text><rect fill="#E2E2F0" height="32.6211" rx="2.5" ry="2.5" style="stroke:#181818;stroke-width:0.5;" width="111.2754" x="864.9404" y="571.9863"/><text fill="#000000" font-family="sans-serif" font-size="14" lengthAdjust="spacing" textLength="97.2754" x="871.9404" y="594.0938">BookingService</text><rect fill="#E2E2F0" height="32.6211" rx="2.5" ry="2.5" style="stroke:#181818;stroke-width:0.5;" width="154.834" x="1084.6572" y="50"/><text fill="#000000" font-family="sans-serif" font-size="14" lengthAdjust="spacing" textLength="140.834" x="1091.6572" y="72.1074">TripTopConfigProvider</text><rect fill="#E2E2F0" height="32.6211" rx="2.5" ry="2.5" style="stroke:#181818;stroke-width:0.5;" width="154.834" x="1084.6572" y="571.9863"/><text fill="#000000" font-family="sans-serif" font-size="14" lengthAdjust="spacing" textLength="140.834" x="1091.6572" y="594.0938">TripTopConfigProvider</text><rect fill="#E2E2F0" height="32.6211" rx="2.5" ry="2.5" style="stroke:#181818;stroke-width:0.5;" width="132.2754" x="1249.4912" y="50"/><text fill="#000000" font-family="sans-serif" font-size="14" lengthAdjust="spacing" textLength="118.2754" x="1256.4912" y="72.1074">ExternalApiService</text><rect fill="#E2E2F0" height="32.6211" rx="2.5" ry="2.5" style="stroke:#181818;stroke-width:0.5;" width="132.2754" x="1249.4912" y="571.9863"/><text fill="#000000" font-family="sans-serif" font-size="14" lengthAdjust="spacing" textLength="118.2754" x="1256.4912" y="594.0938">ExternalApiService</text><rect fill="#E2E2F0" height="32.6211" rx="2.5" ry="2.5" style="stroke:#181818;stroke-width:0.5;" width="121.3857" x="1687.96" y="50"/><text fill="#000000" font-family="sans-serif" font-size="14" lengthAdjust="spacing" textLength="107.3857" x="1694.96" y="72.1074">ExternalApiClient</text><rect fill="#E2E2F0" height="32.6211" rx="2.5" ry="2.5" style="stroke:#181818;stroke-width:0.5;" width="121.3857" x="1687.96" y="571.9863"/><text fill="#000000" font-family="sans-serif" font-size="14" lengthAdjust="spacing" textLength="107.3857" x="1694.96" y="594.0938">ExternalApiClient</text><rect fill="#E2E2F0" height="32.6211" rx="2.5" ry="2.5" style="stroke:#181818;stroke-width:0.5;" width="121.3857" x="2064.5786" y="50"/><text fill="#000000" font-family="sans-serif" font-size="14" lengthAdjust="spacing" textLength="107.3857" x="2071.5786" y="72.1074">Booking.com API</text><rect fill="#E2E2F0" height="32.6211" rx="2.5" ry="2.5" style="stroke:#181818;stroke-width:0.5;" width="121.3857" x="2064.5786" y="571.9863"/><text fill="#000000" font-family="sans-serif" font-size="14" lengthAdjust="spacing" textLength="107.3857" x="2071.5786" y="594.0938">Booking.com API</text><polygon fill="#181818" points="195.2515,112.9121,205.2515,116.9121,195.2515,120.9121,199.2515,116.9121" style="stroke:#181818;stroke-width:1.0;"/><line style="stroke:#181818;stroke-width:1.0;" x1="38.7344" x2="201.2515" y1="116.9121" y2="116.9121"/><text fill="#000000" font-family="sans-serif" font-size="13" lengthAdjust="spacing" textLength="144.5171" x="45.7344" y="111.6494">1. Gebruiker zoekt hotels</text><polygon fill="#181818" points="345.3198,144.2031,355.3198,148.2031,345.3198,152.2031,349.3198,148.2031" style="stroke:#181818;stroke-width:1.0;"/><line style="stroke:#181818;stroke-width:1.0;" x1="207.2515" x2="351.3198" y1="148.2031" y2="148.2031"/><text fill="#000000" font-family="sans-serif" font-size="13" lengthAdjust="spacing" textLength="122.8462" x="214.2515" y="142.9404">2. Handelt verzoek af</text><polygon fill="#181818" points="605.6304,175.4941,615.6304,179.4941,605.6304,183.4941,609.6304,179.4941" style="stroke:#181818;stroke-width:1.0;"/><line style="stroke:#181818;stroke-width:1.0;" x1="357.3198" x2="611.6304" y1="179.4941" y2="179.4941"/><text fill="#000000" font-family="sans-serif" font-size="13" lengthAdjust="spacing" textLength="216.7852" x="364.3198" y="174.2314">3. Roept Facade aan voor verwerking</text><polygon fill="#181818" points="908.5781,206.7852,918.5781,210.7852,908.5781,214.7852,912.5781,210.7852" style="stroke:#181818;stroke-width:1.0;"/><line style="stroke:#181818;stroke-width:1.0;" x1="617.6304" x2="914.5781" y1="210.7852" y2="210.7852"/><text fill="#000000" font-family="sans-serif" font-size="13" lengthAdjust="spacing" textLength="278.9478" x="624.6304" y="205.5225">4. Roept BookingService aan voor zoekopdracht</text><polygon fill="#181818" points="1150.0742,238.0762,1160.0742,242.0762,1150.0742,246.0762,1154.0742,242.0762" style="stroke:#181818;stroke-width:1.0;"/><line style="stroke:#181818;stroke-width:1.0;" x1="920.5781" x2="1156.0742" y1="242.0762" y2="242.0762"/><text fill="#000000" font-family="sans-serif" font-size="13" lengthAdjust="spacing" textLength="119.2344" x="927.5781" y="236.8135">5. Vraagt API key op</text><polygon fill="#181818" points="931.5781,269.3672,921.5781,273.3672,931.5781,277.3672,927.5781,273.3672" style="stroke:#181818;stroke-width:1.0;"/><line style="stroke:#181818;stroke-width:1.0;" x1="925.5781" x2="1161.0742" y1="273.3672" y2="273.3672"/><text fill="#000000" font-family="sans-serif" font-size="13" lengthAdjust="spacing" textLength="217.4961" x="937.5781" y="268.1045">6. Levert API-sleutel voor externe API</text><polygon fill="#181818" points="1303.6289,300.6582,1313.6289,304.6582,1303.6289,308.6582,1307.6289,304.6582" style="stroke:#181818;stroke-width:1.0;"/><line style="stroke:#181818;stroke-width:1.0;" x1="920.5781" x2="1309.6289" y1="304.6582" y2="304.6582"/><text fill="#000000" font-family="sans-serif" font-size="13" lengthAdjust="spacing" textLength="313.6313" x="927.5781" y="299.3955">7. Roept ExternalApiService aan en geeft api-key door</text><polygon fill="#181818" points="1736.6528,331.9492,1746.6528,335.9492,1736.6528,339.9492,1740.6528,335.9492" style="stroke:#181818;stroke-width:1.0;"/><line style="stroke:#181818;stroke-width:1.0;" x1="1315.6289" x2="1742.6528" y1="335.9492" y2="335.9492"/><text fill="#000000" font-family="sans-serif" font-size="13" lengthAdjust="spacing" textLength="409.0239" x="1322.6289" y="330.6865">8. Roept ExternalApiClient aan voor API-aanroep en geeft api-key door</text><polygon fill="#181818" points="2113.2715,363.2402,2123.2715,367.2402,2113.2715,371.2402,2117.2715,367.2402" style="stroke:#181818;stroke-width:1.0;"/><line style="stroke:#181818;stroke-width:1.0;" x1="1748.6528" x2="2119.2715" y1="367.2402" y2="367.2402"/><text fill="#000000" font-family="sans-serif" font-size="13" lengthAdjust="spacing" textLength="352.6187" x="1755.6528" y="361.9775">9. Verstuurt zoekopdracht naar Booking.com API met api-key</text><polygon fill="#181818" points="1759.6528,394.5313,1749.6528,398.5313,1759.6528,402.5313,1755.6528,398.5313" style="stroke:#181818;stroke-width:1.0;"/><line style="stroke:#181818;stroke-width:1.0;" x1="1753.6528" x2="2124.2715" y1="398.5313" y2="398.5313"/><text fill="#000000" font-family="sans-serif" font-size="13" lengthAdjust="spacing" textLength="178.5151" x="1765.6528" y="393.2686">10. Retourneert hotelgegevens</text><polygon fill="#181818" points="1326.6289,425.8223,1316.6289,429.8223,1326.6289,433.8223,1322.6289,429.8223" style="stroke:#181818;stroke-width:1.0;"/><line style="stroke:#181818;stroke-width:1.0;" x1="1320.6289" x2="1747.6528" y1="429.8223" y2="429.8223"/><text fill="#000000" font-family="sans-serif" font-size="13" lengthAdjust="spacing" textLength="172.707" x="1332.6289" y="424.5596">11. Retourneert API-response</text><polygon fill="#181818" points="931.5781,457.1133,921.5781,461.1133,931.5781,465.1133,927.5781,461.1133" style="stroke:#181818;stroke-width:1.0;"/><line style="stroke:#181818;stroke-width:1.0;" x1="925.5781" x2="1314.6289" y1="461.1133" y2="461.1133"/><text fill="#000000" font-family="sans-serif" font-size="13" lengthAdjust="spacing" textLength="218.2388" x="937.5781" y="455.8506">12. Verwerkt en retourneert gegevens</text><polygon fill="#181818" points="628.6304,488.4043,618.6304,492.4043,628.6304,496.4043,624.6304,492.4043" style="stroke:#181818;stroke-width:1.0;"/><line style="stroke:#181818;stroke-width:1.0;" x1="622.6304" x2="919.5781" y1="492.4043" y2="492.4043"/><text fill="#000000" font-family="sans-serif" font-size="13" lengthAdjust="spacing" textLength="246.4287" x="634.6304" y="487.1416">13. Verwerkt en retourneert hotelgegevens</text><polygon fill="#181818" points="368.3198,519.6953,358.3198,523.6953,368.3198,527.6953,364.3198,523.6953" style="stroke:#181818;stroke-width:1.0;"/><line style="stroke:#181818;stroke-width:1.0;" x1="362.3198" x2="616.6304" y1="523.6953" y2="523.6953"/><text fill="#000000" font-family="sans-serif" font-size="13" lengthAdjust="spacing" textLength="236.3105" x="374.3198" y="518.4326">14. Stuurt gegevens terug naar controller</text><polygon fill="#181818" points="49.7344,550.9863,39.7344,554.9863,49.7344,558.9863,45.7344,554.9863" style="stroke:#181818;stroke-width:1.0;"/><line style="stroke:#181818;stroke-width:1.0;" x1="43.7344" x2="356.3198" y1="554.9863" y2="554.9863"/><text fill="#000000" font-family="sans-serif" font-size="13" lengthAdjust="spacing" textLength="221.8696" x="55.7344" y="549.7236">15. Stuurt gegevens naar de gebruiker</text><!--SRC=[XLJ9Rjmm3BthAuWvjOSnwgJfuaE19EW6z11qajuLc-C8TYI1bgVBrvUoBOyN6RdDK8-Fv7kaPUuCmKE31BA1tLTyf5PLI3jX9JcLAokrWnkPLwYB3X9-lpfOKhg46sFSwmNSc8gVRersPEfwu5v5eqbVP2uBd2RqaIZuW7HI-GmzXERmUrBstbWkVLJb7PcJAeQceY_pvCz_79AMzRLLqthhy6RQRQsG8ukiFXgTw_hk-tIc93VFmB6T49rJ-q-Z8nca2OokmJ-3bOCdux1kHC1u-CgH32uI-2PrWRM34vBF17aKQ-GvVV0cWyi4VXgq3e9RKiF9y28nqMyaZnNpd3D9q323ju5bwMPWypqPMv3CdvnOW9Wmxce6Lmdy8YbBvpM32l-2iI8EZhNrBe4Vo8DqwVkcnfRLx1l2pZtq3v5-8ekImVimP6oDU53KK28UUJkisljU2oua8k1vWM6bClWGuG_x5dJqS_0VOjpBzORaip9Un0m-igX8ZMjR5cPg36Wf2HQR2iyuLX0JdeqXqZSy1JhJihXU-6w1IopP1jt4cukAdQPp7ZyuOMEDRd13qvNzwKKtgLzZvzMY2T_OqjhyvOcabziqy_6s3cLsh2aVow4NFoG2ZzEMlVpvY8qVSFVPO9QhDKkNpuNBy17v3m00]--></g></svg>