<svg xmlns="http://www.w3.org/2000/svg" xmlns:xlink="http://www.w3.org/1999/xlink" contentStyleType="text/css" height="778px" preserveAspectRatio="none" style="width:1194px;height:778px;background:#FFFFFF;" version="1.1" viewBox="0 0 1194 778" width="1194px" zoomAndPan="magnify"><defs/><g><!--class AuthStrategy--><g id="elem_AuthStrategy"><rect codeLine="2" fill="#F1F1F1" height="66.6211" id="AuthStrategy" rx="2.5" ry="2.5" style="stroke:#181818;stroke-width:0.5;" width="268.7783" x="343" y="493.5"/><ellipse cx="432.6704" cy="509.5" fill="#B4A7E5" rx="11" ry="11" style="stroke:#181818;stroke-width:1.0;"/><path d="M433.6235,506.1406 L433.6235,512.7969 L435.3423,512.7969 Q435.9517,512.7969 436.2173,513.0313 Q436.4829,513.2656 436.4829,513.6563 Q436.4829,514.0313 436.2173,514.2656 Q435.9517,514.5 435.3423,514.5 L430.2017,514.5 Q429.5923,514.5 429.3267,514.2656 Q429.061,514.0313 429.061,513.6406 Q429.061,513.2656 429.3267,513.0313 Q429.5923,512.7969 430.2017,512.7969 L431.9204,512.7969 L431.9204,506.1406 L430.2017,506.1406 Q429.5923,506.1406 429.3267,505.9063 Q429.061,505.6719 429.061,505.2813 Q429.061,504.9063 429.3267,504.6719 Q429.5923,504.4375 430.2017,504.4375 L435.3423,504.4375 Q435.9517,504.4375 436.2173,504.6719 Q436.4829,504.9063 436.4829,505.2813 Q436.4829,505.6719 436.2173,505.9063 Q435.9517,506.1406 435.3423,506.1406 L433.6235,506.1406 Z " fill="#000000"/><text fill="#000000" font-family="sans-serif" font-size="14" font-style="italic" lengthAdjust="spacing" textLength="80.9375" x="453.1704" y="515.2969">AuthStrategy</text><line style="stroke:#181818;stroke-width:0.5;" x1="344" x2="610.7783" y1="525.5" y2="525.5"/><line style="stroke:#181818;stroke-width:0.5;" x1="344" x2="610.7783" y1="533.5" y2="533.5"/><ellipse cx="354" cy="548.3105" fill="#84BE84" rx="3" ry="3" style="stroke:#038048;stroke-width:1.0;"/><text fill="#000000" font-family="sans-serif" font-size="14" lengthAdjust="spacing" textLength="242.7783" x="363" y="552.6074">authenticate(credentials : String) : User</text></g><!--class GoogleAuthStrategy--><g id="elem_GoogleAuthStrategy"><rect codeLine="6" fill="#F1F1F1" height="66.6211" id="GoogleAuthStrategy" rx="2.5" ry="2.5" style="stroke:#181818;stroke-width:0.5;" width="268.7783" x="191" y="705"/><ellipse cx="258.0981" cy="721" fill="#ADD1B2" rx="11" ry="11" style="stroke:#181818;stroke-width:1.0;"/><path d="M260.8638,716.875 Q261.02,716.6563 261.2075,716.5469 Q261.395,716.4375 261.6138,716.4375 Q261.9888,716.4375 262.2231,716.7031 Q262.4575,716.9531 262.4575,717.5625 L262.4575,719.0156 Q262.4575,719.625 262.2231,719.8906 Q261.9888,720.1563 261.6138,720.1563 Q261.27,720.1563 261.0669,719.9531 Q260.8638,719.7656 260.7544,719.25 Q260.7075,718.8906 260.52,718.7031 Q260.1919,718.3281 259.5825,718.1094 Q258.9731,717.8906 258.3481,717.8906 Q257.5825,717.8906 256.9419,718.2188 Q256.3169,718.5469 255.8169,719.2969 Q255.3325,720.0469 255.3325,721.0781 L255.3325,722.1719 Q255.3325,723.4063 256.2231,724.2344 Q257.1138,725.0469 258.7075,725.0469 Q259.645,725.0469 260.3013,724.7969 Q260.6919,724.6406 261.1138,724.2031 Q261.3794,723.9375 261.52,723.8594 Q261.6763,723.7813 261.8794,723.7813 Q262.2075,723.7813 262.4575,724.0469 Q262.7231,724.2969 262.7231,724.6406 Q262.7231,724.9844 262.3794,725.3906 Q261.8794,725.9688 261.0825,726.2969 Q260.0044,726.75 258.7075,726.75 Q257.1919,726.75 255.9888,726.125 Q255.0044,725.625 254.3169,724.5625 Q253.6294,723.4844 253.6294,722.2031 L253.6294,721.0469 Q253.6294,719.7188 254.2388,718.5781 Q254.8638,717.4219 255.9575,716.8125 Q257.0513,716.1875 258.2856,716.1875 Q259.02,716.1875 259.6606,716.3594 Q260.3169,716.5156 260.8638,716.875 Z " fill="#000000"/><text fill="#000000" font-family="sans-serif" font-size="14" lengthAdjust="spacing" textLength="126.082" x="278.5981" y="726.7969">GoogleAuthStrategy</text><line style="stroke:#181818;stroke-width:0.5;" x1="192" x2="458.7783" y1="737" y2="737"/><line style="stroke:#181818;stroke-width:0.5;" x1="192" x2="458.7783" y1="745" y2="745"/><ellipse cx="202" cy="759.8105" fill="#84BE84" rx="3" ry="3" style="stroke:#038048;stroke-width:1.0;"/><text fill="#000000" font-family="sans-serif" font-size="14" lengthAdjust="spacing" textLength="242.7783" x="211" y="764.1074">authenticate(credentials : String) : User</text></g><!--class MicrosoftAuthStrategy--><g id="elem_MicrosoftAuthStrategy"><rect codeLine="10" fill="#F1F1F1" height="66.6211" id="MicrosoftAuthStrategy" rx="2.5" ry="2.5" style="stroke:#181818;stroke-width:0.5;" width="268.7783" x="495" y="705"/><ellipse cx="556.2773" cy="721" fill="#ADD1B2" rx="11" ry="11" style="stroke:#181818;stroke-width:1.0;"/><path d="M559.043,716.875 Q559.1992,716.6563 559.3867,716.5469 Q559.5742,716.4375 559.793,716.4375 Q560.168,716.4375 560.4023,716.7031 Q560.6367,716.9531 560.6367,717.5625 L560.6367,719.0156 Q560.6367,719.625 560.4023,719.8906 Q560.168,720.1563 559.793,720.1563 Q559.4492,720.1563 559.2461,719.9531 Q559.043,719.7656 558.9336,719.25 Q558.8867,718.8906 558.6992,718.7031 Q558.3711,718.3281 557.7617,718.1094 Q557.1523,717.8906 556.5273,717.8906 Q555.7617,717.8906 555.1211,718.2188 Q554.4961,718.5469 553.9961,719.2969 Q553.5117,720.0469 553.5117,721.0781 L553.5117,722.1719 Q553.5117,723.4063 554.4023,724.2344 Q555.293,725.0469 556.8867,725.0469 Q557.8242,725.0469 558.4805,724.7969 Q558.8711,724.6406 559.293,724.2031 Q559.5586,723.9375 559.6992,723.8594 Q559.8555,723.7813 560.0586,723.7813 Q560.3867,723.7813 560.6367,724.0469 Q560.9023,724.2969 560.9023,724.6406 Q560.9023,724.9844 560.5586,725.3906 Q560.0586,725.9688 559.2617,726.2969 Q558.1836,726.75 556.8867,726.75 Q555.3711,726.75 554.168,726.125 Q553.1836,725.625 552.4961,724.5625 Q551.8086,723.4844 551.8086,722.2031 L551.8086,721.0469 Q551.8086,719.7188 552.418,718.5781 Q553.043,717.4219 554.1367,716.8125 Q555.2305,716.1875 556.4648,716.1875 Q557.1992,716.1875 557.8398,716.3594 Q558.4961,716.5156 559.043,716.875 Z " fill="#000000"/><text fill="#000000" font-family="sans-serif" font-size="14" lengthAdjust="spacing" textLength="137.7236" x="576.7773" y="726.7969">MicrosoftAuthStrategy</text><line style="stroke:#181818;stroke-width:0.5;" x1="496" x2="762.7783" y1="737" y2="737"/><line style="stroke:#181818;stroke-width:0.5;" x1="496" x2="762.7783" y1="745" y2="745"/><ellipse cx="506" cy="759.8105" fill="#84BE84" rx="3" ry="3" style="stroke:#038048;stroke-width:1.0;"/><text fill="#000000" font-family="sans-serif" font-size="14" lengthAdjust="spacing" textLength="242.7783" x="515" y="764.1074">authenticate(credentials : String) : User</text></g><!--class IdentityService--><g id="elem_IdentityService"><rect codeLine="14" fill="#F1F1F1" height="103.8633" id="IdentityService" rx="2.5" ry="2.5" style="stroke:#181818;stroke-width:0.5;" width="314.6953" x="320" y="227"/><ellipse cx="427.1875" cy="243" fill="#ADD1B2" rx="11" ry="11" style="stroke:#181818;stroke-width:1.0;"/><path d="M429.9531,238.875 Q430.1094,238.6563 430.2969,238.5469 Q430.4844,238.4375 430.7031,238.4375 Q431.0781,238.4375 431.3125,238.7031 Q431.5469,238.9531 431.5469,239.5625 L431.5469,241.0156 Q431.5469,241.625 431.3125,241.8906 Q431.0781,242.1563 430.7031,242.1563 Q430.3594,242.1563 430.1563,241.9531 Q429.9531,241.7656 429.8438,241.25 Q429.7969,240.8906 429.6094,240.7031 Q429.2813,240.3281 428.6719,240.1094 Q428.0625,239.8906 427.4375,239.8906 Q426.6719,239.8906 426.0313,240.2188 Q425.4063,240.5469 424.9063,241.2969 Q424.4219,242.0469 424.4219,243.0781 L424.4219,244.1719 Q424.4219,245.4063 425.3125,246.2344 Q426.2031,247.0469 427.7969,247.0469 Q428.7344,247.0469 429.3906,246.7969 Q429.7813,246.6406 430.2031,246.2031 Q430.4688,245.9375 430.6094,245.8594 Q430.7656,245.7813 430.9688,245.7813 Q431.2969,245.7813 431.5469,246.0469 Q431.8125,246.2969 431.8125,246.6406 Q431.8125,246.9844 431.4688,247.3906 Q430.9688,247.9688 430.1719,248.2969 Q429.0938,248.75 427.7969,248.75 Q426.2813,248.75 425.0781,248.125 Q424.0938,247.625 423.4063,246.5625 Q422.7188,245.4844 422.7188,244.2031 L422.7188,243.0469 Q422.7188,241.7188 423.3281,240.5781 Q423.9531,239.4219 425.0469,238.8125 Q426.1406,238.1875 427.375,238.1875 Q428.1094,238.1875 428.75,238.3594 Q429.4063,238.5156 429.9531,238.875 Z " fill="#000000"/><text fill="#000000" font-family="sans-serif" font-size="14" lengthAdjust="spacing" textLength="91.8203" x="447.6875" y="248.7969">IdentityService</text><line style="stroke:#181818;stroke-width:0.5;" x1="321" x2="633.6953" y1="259" y2="259"/><rect fill="none" height="6" style="stroke:#C82930;stroke-width:1.0;" width="6" x="328" y="270.8105"/><text fill="#000000" font-family="sans-serif" font-size="14" lengthAdjust="spacing" textLength="171.9922" x="340" y="278.1074">authStrategy : AuthStrategy</text><line style="stroke:#181818;stroke-width:0.5;" x1="321" x2="633.6953" y1="285.6211" y2="285.6211"/><ellipse cx="331" cy="300.4316" fill="#84BE84" rx="3" ry="3" style="stroke:#038048;stroke-width:1.0;"/><text fill="#000000" font-family="sans-serif" font-size="14" lengthAdjust="spacing" textLength="288.6953" x="340" y="304.7285">setAuthStrategy(strategy : AuthStrategy) : void</text><ellipse cx="331" cy="319.0527" fill="#84BE84" rx="3" ry="3" style="stroke:#038048;stroke-width:1.0;"/><text fill="#000000" font-family="sans-serif" font-size="14" lengthAdjust="spacing" textLength="242.7783" x="340" y="323.3496">authenticate(credentials : String) : User</text></g><!--class IdentityController--><g id="elem_IdentityController"><rect codeLine="20" fill="#F1F1F1" height="141.1055" id="IdentityController" rx="2.5" ry="2.5" style="stroke:#181818;stroke-width:0.5;" width="275.0059" x="771" y="7"/><ellipse cx="851.3394" cy="23" fill="#ADD1B2" rx="11" ry="11" style="stroke:#181818;stroke-width:1.0;"/><path d="M854.105,18.875 Q854.2612,18.6563 854.4487,18.5469 Q854.6362,18.4375 854.855,18.4375 Q855.23,18.4375 855.4644,18.7031 Q855.6987,18.9531 855.6987,19.5625 L855.6987,21.0156 Q855.6987,21.625 855.4644,21.8906 Q855.23,22.1563 854.855,22.1563 Q854.5112,22.1563 854.3081,21.9531 Q854.105,21.7656 853.9956,21.25 Q853.9487,20.8906 853.7612,20.7031 Q853.4331,20.3281 852.8237,20.1094 Q852.2144,19.8906 851.5894,19.8906 Q850.8237,19.8906 850.1831,20.2188 Q849.5581,20.5469 849.0581,21.2969 Q848.5737,22.0469 848.5737,23.0781 L848.5737,24.1719 Q848.5737,25.4063 849.4644,26.2344 Q850.355,27.0469 851.9487,27.0469 Q852.8862,27.0469 853.5425,26.7969 Q853.9331,26.6406 854.355,26.2031 Q854.6206,25.9375 854.7612,25.8594 Q854.9175,25.7813 855.1206,25.7813 Q855.4487,25.7813 855.6987,26.0469 Q855.9644,26.2969 855.9644,26.6406 Q855.9644,26.9844 855.6206,27.3906 Q855.1206,27.9688 854.3237,28.2969 Q853.2456,28.75 851.9487,28.75 Q850.4331,28.75 849.23,28.125 Q848.2456,27.625 847.5581,26.5625 Q846.8706,25.4844 846.8706,24.2031 L846.8706,23.0469 Q846.8706,21.7188 847.48,20.5781 Q848.105,19.4219 849.1987,18.8125 Q850.2925,18.1875 851.5269,18.1875 Q852.2612,18.1875 852.9019,18.3594 Q853.5581,18.5156 854.105,18.875 Z " fill="#000000"/><text fill="#000000" font-family="sans-serif" font-size="14" lengthAdjust="spacing" textLength="105.8271" x="871.8394" y="28.7969">IdentityController</text><line style="stroke:#181818;stroke-width:0.5;" x1="772" x2="1045.0059" y1="39" y2="39"/><rect fill="none" height="6" style="stroke:#C82930;stroke-width:1.0;" width="6" x="779" y="50.8105"/><text fill="#000000" font-family="sans-serif" font-size="14" lengthAdjust="spacing" textLength="249.0059" x="791" y="58.1074">identityService : IdentityServiceInterface</text><line style="stroke:#181818;stroke-width:0.5;" x1="772" x2="1045.0059" y1="65.6211" y2="65.6211"/><ellipse cx="782" cy="80.4316" fill="#84BE84" rx="3" ry="3" style="stroke:#038048;stroke-width:1.0;"/><text fill="#000000" font-family="sans-serif" font-size="14" lengthAdjust="spacing" textLength="102.7031" x="791" y="84.7285">login() : Redirect</text><ellipse cx="782" cy="99.0527" fill="#84BE84" rx="3" ry="3" style="stroke:#038048;stroke-width:1.0;"/><text fill="#000000" font-family="sans-serif" font-size="14" lengthAdjust="spacing" textLength="185.1582" x="791" y="103.3496">redirectFromAPILink() : String</text><ellipse cx="782" cy="117.6738" fill="#84BE84" rx="3" ry="3" style="stroke:#038048;stroke-width:1.0;"/><text fill="#000000" font-family="sans-serif" font-size="14" lengthAdjust="spacing" textLength="161.8682" x="791" y="121.9707">logout() : ResponseStatus</text><ellipse cx="782" cy="136.2949" fill="#84BE84" rx="3" ry="3" style="stroke:#038048;stroke-width:1.0;"/><text fill="#000000" font-family="sans-serif" font-size="14" lengthAdjust="spacing" textLength="205.4131" x="791" y="140.5918">getUserInfo(token : String) : User</text></g><!--class IdentityRepository--><g id="elem_IdentityRepository"><rect codeLine="28" fill="#F1F1F1" height="122.4844" id="IdentityRepository" rx="2.5" ry="2.5" style="stroke:#181818;stroke-width:0.5;" width="301.4814" x="647" y="466"/><ellipse cx="737.4634" cy="482" fill="#ADD1B2" rx="11" ry="11" style="stroke:#181818;stroke-width:1.0;"/><path d="M740.229,477.875 Q740.3853,477.6563 740.5728,477.5469 Q740.7603,477.4375 740.979,477.4375 Q741.354,477.4375 741.5884,477.7031 Q741.8228,477.9531 741.8228,478.5625 L741.8228,480.0156 Q741.8228,480.625 741.5884,480.8906 Q741.354,481.1563 740.979,481.1563 Q740.6353,481.1563 740.4321,480.9531 Q740.229,480.7656 740.1196,480.25 Q740.0728,479.8906 739.8853,479.7031 Q739.5571,479.3281 738.9478,479.1094 Q738.3384,478.8906 737.7134,478.8906 Q736.9478,478.8906 736.3071,479.2188 Q735.6821,479.5469 735.1821,480.2969 Q734.6978,481.0469 734.6978,482.0781 L734.6978,483.1719 Q734.6978,484.4063 735.5884,485.2344 Q736.479,486.0469 738.0728,486.0469 Q739.0103,486.0469 739.6665,485.7969 Q740.0571,485.6406 740.479,485.2031 Q740.7446,484.9375 740.8853,484.8594 Q741.0415,484.7813 741.2446,484.7813 Q741.5728,484.7813 741.8228,485.0469 Q742.0884,485.2969 742.0884,485.6406 Q742.0884,485.9844 741.7446,486.3906 Q741.2446,486.9688 740.4478,487.2969 Q739.3696,487.75 738.0728,487.75 Q736.5571,487.75 735.354,487.125 Q734.3696,486.625 733.6821,485.5625 Q732.9946,484.4844 732.9946,483.2031 L732.9946,482.0469 Q732.9946,480.7188 733.604,479.5781 Q734.229,478.4219 735.3228,477.8125 Q736.4165,477.1875 737.6509,477.1875 Q738.3853,477.1875 739.0259,477.3594 Q739.6821,477.5156 740.229,477.875 Z " fill="#000000"/><text fill="#000000" font-family="sans-serif" font-size="14" lengthAdjust="spacing" textLength="112.0547" x="757.9634" y="487.7969">IdentityRepository</text><line style="stroke:#181818;stroke-width:0.5;" x1="648" x2="947.4814" y1="498" y2="498"/><rect fill="none" height="6" style="stroke:#C82930;stroke-width:1.0;" width="6" x="655" y="509.8105"/><text fill="#000000" font-family="sans-serif" font-size="14" lengthAdjust="spacing" textLength="183.6406" x="667" y="517.1074">jdbcTemplate : JdbcTemplate</text><line style="stroke:#181818;stroke-width:0.5;" x1="648" x2="947.4814" y1="524.6211" y2="524.6211"/><ellipse cx="658" cy="539.4316" fill="#84BE84" rx="3" ry="3" style="stroke:#038048;stroke-width:1.0;"/><text fill="#000000" font-family="sans-serif" font-size="14" lengthAdjust="spacing" textLength="256.7852" x="667" y="543.7285">createNewAccount(user : User) : boolean</text><ellipse cx="658" cy="558.0527" fill="#84BE84" rx="3" ry="3" style="stroke:#038048;stroke-width:1.0;"/><text fill="#000000" font-family="sans-serif" font-size="14" lengthAdjust="spacing" textLength="191.3994" x="667" y="562.3496">findAccountByID(id : int) : User</text><ellipse cx="658" cy="576.6738" fill="#84BE84" rx="3" ry="3" style="stroke:#038048;stroke-width:1.0;"/><text fill="#000000" font-family="sans-serif" font-size="14" lengthAdjust="spacing" textLength="275.4814" x="667" y="580.9707">updateAccountDetails(user : User) : boolean</text></g><!--class IdentityServiceInterface--><g id="elem_IdentityServiceInterface"><rect codeLine="35" fill="#F1F1F1" height="85.2422" id="IdentityServiceInterface" rx="2.5" ry="2.5" style="stroke:#181818;stroke-width:0.5;" width="314.6953" x="751" y="236.5"/><ellipse cx="830.9497" cy="252.5" fill="#B4A7E5" rx="11" ry="11" style="stroke:#181818;stroke-width:1.0;"/><path d="M831.9028,249.1406 L831.9028,255.7969 L833.6216,255.7969 Q834.231,255.7969 834.4966,256.0313 Q834.7622,256.2656 834.7622,256.6563 Q834.7622,257.0313 834.4966,257.2656 Q834.231,257.5 833.6216,257.5 L828.481,257.5 Q827.8716,257.5 827.606,257.2656 Q827.3403,257.0313 827.3403,256.6406 Q827.3403,256.2656 827.606,256.0313 Q827.8716,255.7969 828.481,255.7969 L830.1997,255.7969 L830.1997,249.1406 L828.481,249.1406 Q827.8716,249.1406 827.606,248.9063 Q827.3403,248.6719 827.3403,248.2813 Q827.3403,247.9063 827.606,247.6719 Q827.8716,247.4375 828.481,247.4375 L833.6216,247.4375 Q834.231,247.4375 834.4966,247.6719 Q834.7622,247.9063 834.7622,248.2813 Q834.7622,248.6719 834.4966,248.9063 Q834.231,249.1406 833.6216,249.1406 L831.9028,249.1406 Z " fill="#000000"/><text fill="#000000" font-family="sans-serif" font-size="14" font-style="italic" lengthAdjust="spacing" textLength="146.2959" x="851.4497" y="258.2969">IdentityServiceInterface</text><line style="stroke:#181818;stroke-width:0.5;" x1="752" x2="1064.6953" y1="268.5" y2="268.5"/><line style="stroke:#181818;stroke-width:0.5;" x1="752" x2="1064.6953" y1="276.5" y2="276.5"/><ellipse cx="762" cy="291.3105" fill="#84BE84" rx="3" ry="3" style="stroke:#038048;stroke-width:1.0;"/><text fill="#000000" font-family="sans-serif" font-size="14" lengthAdjust="spacing" textLength="242.7783" x="771" y="295.6074">authenticate(credentials : String) : User</text><ellipse cx="762" cy="309.9316" fill="#84BE84" rx="3" ry="3" style="stroke:#038048;stroke-width:1.0;"/><text fill="#000000" font-family="sans-serif" font-size="14" lengthAdjust="spacing" textLength="288.6953" x="771" y="314.2285">setAuthStrategy(strategy : AuthStrategy) : void</text></g><!--class IdentityRepositoryInterface--><g id="elem_IdentityRepositoryInterface"><rect codeLine="40" fill="#F1F1F1" height="103.8633" id="IdentityRepositoryInterface" rx="2.5" ry="2.5" style="stroke:#181818;stroke-width:0.5;" width="301.4814" x="7" y="475"/><ellipse cx="70.2256" cy="491" fill="#B4A7E5" rx="11" ry="11" style="stroke:#181818;stroke-width:1.0;"/><path d="M71.1787,487.6406 L71.1787,494.2969 L72.8975,494.2969 Q73.5068,494.2969 73.7725,494.5313 Q74.0381,494.7656 74.0381,495.1563 Q74.0381,495.5313 73.7725,495.7656 Q73.5068,496 72.8975,496 L67.7568,496 Q67.1475,496 66.8818,495.7656 Q66.6162,495.5313 66.6162,495.1406 Q66.6162,494.7656 66.8818,494.5313 Q67.1475,494.2969 67.7568,494.2969 L69.4756,494.2969 L69.4756,487.6406 L67.7568,487.6406 Q67.1475,487.6406 66.8818,487.4063 Q66.6162,487.1719 66.6162,486.7813 Q66.6162,486.4063 66.8818,486.1719 Q67.1475,485.9375 67.7568,485.9375 L72.8975,485.9375 Q73.5068,485.9375 73.7725,486.1719 Q74.0381,486.4063 74.0381,486.7813 Q74.0381,487.1719 73.7725,487.4063 Q73.5068,487.6406 72.8975,487.6406 L71.1787,487.6406 Z " fill="#000000"/><text fill="#000000" font-family="sans-serif" font-size="14" font-style="italic" lengthAdjust="spacing" textLength="166.5303" x="90.7256" y="496.7969">IdentityRepositoryInterface</text><line style="stroke:#181818;stroke-width:0.5;" x1="8" x2="307.4814" y1="507" y2="507"/><line style="stroke:#181818;stroke-width:0.5;" x1="8" x2="307.4814" y1="515" y2="515"/><ellipse cx="18" cy="529.8105" fill="#84BE84" rx="3" ry="3" style="stroke:#038048;stroke-width:1.0;"/><text fill="#000000" font-family="sans-serif" font-size="14" lengthAdjust="spacing" textLength="256.7852" x="27" y="534.1074">createNewAccount(user : User) : boolean</text><ellipse cx="18" cy="548.4316" fill="#84BE84" rx="3" ry="3" style="stroke:#038048;stroke-width:1.0;"/><text fill="#000000" font-family="sans-serif" font-size="14" lengthAdjust="spacing" textLength="191.3994" x="27" y="552.7285">findAccountByID(id : int) : User</text><ellipse cx="18" cy="567.0527" fill="#84BE84" rx="3" ry="3" style="stroke:#038048;stroke-width:1.0;"/><text fill="#000000" font-family="sans-serif" font-size="14" lengthAdjust="spacing" textLength="275.4814" x="27" y="571.3496">updateAccountDetails(user : User) : boolean</text></g><!--class User--><g id="elem_User"><rect codeLine="46" fill="#F1F1F1" height="234.2109" id="User" rx="2.5" ry="2.5" style="stroke:#181818;stroke-width:0.5;" width="204.1924" x="983.5" y="410"/><ellipse cx="1066.5669" cy="426" fill="#ADD1B2" rx="11" ry="11" style="stroke:#181818;stroke-width:1.0;"/><path d="M1069.3325,421.875 Q1069.4888,421.6563 1069.6763,421.5469 Q1069.8638,421.4375 1070.0825,421.4375 Q1070.4575,421.4375 1070.6919,421.7031 Q1070.9263,421.9531 1070.9263,422.5625 L1070.9263,424.0156 Q1070.9263,424.625 1070.6919,424.8906 Q1070.4575,425.1563 1070.0825,425.1563 Q1069.7388,425.1563 1069.5356,424.9531 Q1069.3325,424.7656 1069.2231,424.25 Q1069.1763,423.8906 1068.9888,423.7031 Q1068.6606,423.3281 1068.0513,423.1094 Q1067.4419,422.8906 1066.8169,422.8906 Q1066.0513,422.8906 1065.4106,423.2188 Q1064.7856,423.5469 1064.2856,424.2969 Q1063.8013,425.0469 1063.8013,426.0781 L1063.8013,427.1719 Q1063.8013,428.4063 1064.6919,429.2344 Q1065.5825,430.0469 1067.1763,430.0469 Q1068.1138,430.0469 1068.77,429.7969 Q1069.1606,429.6406 1069.5825,429.2031 Q1069.8481,428.9375 1069.9888,428.8594 Q1070.145,428.7813 1070.3481,428.7813 Q1070.6763,428.7813 1070.9263,429.0469 Q1071.1919,429.2969 1071.1919,429.6406 Q1071.1919,429.9844 1070.8481,430.3906 Q1070.3481,430.9688 1069.5513,431.2969 Q1068.4731,431.75 1067.1763,431.75 Q1065.6606,431.75 1064.4575,431.125 Q1063.4731,430.625 1062.7856,429.5625 Q1062.0981,428.4844 1062.0981,427.2031 L1062.0981,426.0469 Q1062.0981,424.7188 1062.7075,423.5781 Q1063.3325,422.4219 1064.4263,421.8125 Q1065.52,421.1875 1066.7544,421.1875 Q1067.4888,421.1875 1068.1294,421.3594 Q1068.7856,421.5156 1069.3325,421.875 Z " fill="#000000"/><text fill="#000000" font-family="sans-serif" font-size="14" lengthAdjust="spacing" textLength="29.5586" x="1087.0669" y="431.7969">User</text><line style="stroke:#181818;stroke-width:0.5;" x1="984.5" x2="1186.6924" y1="442" y2="442"/><rect fill="none" height="6" style="stroke:#C82930;stroke-width:1.0;" width="6" x="991.5" y="453.8105"/><text fill="#000000" font-family="sans-serif" font-size="14" lengthAdjust="spacing" textLength="37.3516" x="1003.5" y="461.1074">id : int</text><rect fill="none" height="6" style="stroke:#C82930;stroke-width:1.0;" width="6" x="991.5" y="472.4316"/><text fill="#000000" font-family="sans-serif" font-size="14" lengthAdjust="spacing" textLength="110.4961" x="1003.5" y="479.7285">voornaam : String</text><rect fill="none" height="6" style="stroke:#C82930;stroke-width:1.0;" width="6" x="991.5" y="491.0527"/><text fill="#000000" font-family="sans-serif" font-size="14" lengthAdjust="spacing" textLength="144.7441" x="1003.5" y="498.3496">tussenvoegsels : String</text><rect fill="none" height="6" style="stroke:#C82930;stroke-width:1.0;" width="6" x="991.5" y="509.6738"/><text fill="#000000" font-family="sans-serif" font-size="14" lengthAdjust="spacing" textLength="122.1719" x="1003.5" y="516.9707">achternaam : String</text><rect fill="none" height="6" style="stroke:#C82930;stroke-width:1.0;" width="6" x="991.5" y="528.2949"/><text fill="#000000" font-family="sans-serif" font-size="14" lengthAdjust="spacing" textLength="80.1309" x="1003.5" y="535.5918">email : Email</text><line style="stroke:#181818;stroke-width:0.5;" x1="984.5" x2="1186.6924" y1="543.1055" y2="543.1055"/><ellipse cx="994.5" cy="557.916" fill="#84BE84" rx="3" ry="3" style="stroke:#038048;stroke-width:1.0;"/><text fill="#000000" font-family="sans-serif" font-size="14" lengthAdjust="spacing" textLength="69.2412" x="1003.5" y="562.2129">getID() : int</text><ellipse cx="994.5" cy="576.5371" fill="#84BE84" rx="3" ry="3" style="stroke:#038048;stroke-width:1.0;"/><text fill="#000000" font-family="sans-serif" font-size="14" lengthAdjust="spacing" textLength="141.6201" x="1003.5" y="580.834">getVoornaam() : String</text><ellipse cx="994.5" cy="595.1582" fill="#84BE84" rx="3" ry="3" style="stroke:#038048;stroke-width:1.0;"/><text fill="#000000" font-family="sans-serif" font-size="14" lengthAdjust="spacing" textLength="178.1924" x="1003.5" y="599.4551">getTussenvoegsels() : String</text><ellipse cx="994.5" cy="613.7793" fill="#84BE84" rx="3" ry="3" style="stroke:#038048;stroke-width:1.0;"/><text fill="#000000" font-family="sans-serif" font-size="14" lengthAdjust="spacing" textLength="152.5098" x="1003.5" y="618.0762">getAchternaam() : String</text><ellipse cx="994.5" cy="632.4004" fill="#84BE84" rx="3" ry="3" style="stroke:#038048;stroke-width:1.0;"/><text fill="#000000" font-family="sans-serif" font-size="14" lengthAdjust="spacing" textLength="110.4688" x="1003.5" y="636.6973">getEmail() : Email</text></g><!--link IdentityService to IdentityServiceInterface--><g id="link_IdentityService_IdentityServiceInterface"><path codeLine="59" d="M635.24,279 C672.97,279 695.26,279 732.99,279 " fill="none" id="IdentityService-to-IdentityServiceInterface" style="stroke:#181818;stroke-width:1.0;"/><polygon fill="none" points="750.99,279,732.99,273,732.99,285,750.99,279" style="stroke:#181818;stroke-width:1.0;"/><polygon fill="#000000" points="662.5,266.6455,653.4549,263.7066,653.4549,269.5844,662.5,266.6455" style="stroke:#000000;stroke-width:1.0;"/><text fill="#000000" font-family="sans-serif" font-size="13" lengthAdjust="spacing" textLength="66.4663" x="666.5" y="272.0283">implements</text></g><!--link IdentityRepository to IdentityRepositoryInterface--><g id="link_IdentityRepository_IdentityRepositoryInterface"><path codeLine="60" d="M726.78,465.9 C698.35,444.65 664.13,422.92 629.5,410 C567.46,386.86 392.97,365.57 332,387 C282.35,404.46 249.1335,429.9577 216.8535,462.0577 " fill="none" id="IdentityRepository-to-IdentityRepositoryInterface" style="stroke:#181818;stroke-width:1.0;"/><polygon fill="none" points="204.09,474.75,221.0842,466.3122,212.6227,457.8032,204.09,474.75" style="stroke:#181818;stroke-width:1.0;"/><polygon fill="#000000" points="332.0001,370.6078,341.0228,373.6148,341.0671,367.7371,332.0001,370.6078" style="stroke:#000000;stroke-width:1.0;"/><text fill="#000000" font-family="sans-serif" font-size="13" lengthAdjust="spacing" textLength="66.4663" x="346" y="376.0283">implements</text></g><!--link IdentityService to IdentityRepositoryInterface--><g id="link_IdentityService_IdentityRepositoryInterface"><path codeLine="62" d="M342.49,331.08 C325.64,339.92 309.19,349.9 294.5,361 C252.77,392.55 215.58,439.16 190.51,474.81 " fill="none" id="IdentityService-IdentityRepositoryInterface" style="stroke:#181818;stroke-width:1.0;"/><text fill="#000000" font-family="sans-serif" font-size="13" lengthAdjust="spacing" textLength="27.46" x="295.5" y="376.0283">uses</text><text fill="#000000" font-family="sans-serif" font-size="13" lengthAdjust="spacing" textLength="7.23" x="317.7777" y="352.8975">1</text><text fill="#000000" font-family="sans-serif" font-size="13" lengthAdjust="spacing" textLength="7.23" x="187.4585" y="463.7118">1</text></g><!--link IdentityService to User--><g id="link_IdentityService_User"><path codeLine="63" d="M635.23,312.98 C755.26,339.75 909.11,378.13 965.5,410 C971.55,413.42 977.53,417.22 983.38,421.3 " fill="none" id="IdentityService-User" style="stroke:#181818;stroke-width:1.0;"/><text fill="#000000" font-family="sans-serif" font-size="13" lengthAdjust="spacing" textLength="27.46" x="888.5" y="376.0283">uses</text><text fill="#000000" font-family="sans-serif" font-size="13" lengthAdjust="spacing" textLength="7.23" x="642.5478" y="311.1726">1</text><text fill="#000000" font-family="sans-serif" font-size="13" lengthAdjust="spacing" textLength="7.23" x="968.2949" y="409.5879">1</text></g><!--link IdentityService to AuthStrategy--><g id="link_IdentityService_AuthStrategy"><path codeLine="65" d="M477.5,331.27 C477.5,379.99 477.5,451.79 477.5,493.23 " fill="none" id="IdentityService-AuthStrategy" style="stroke:#181818;stroke-width:1.0;"/><text fill="#000000" font-family="sans-serif" font-size="13" lengthAdjust="spacing" textLength="27.46" x="478.5" y="376.0283">uses</text><text fill="#000000" font-family="sans-serif" font-size="13" lengthAdjust="spacing" textLength="7.23" x="470.106" y="352.7307">1</text><text fill="#000000" font-family="sans-serif" font-size="13" lengthAdjust="spacing" textLength="7.23" x="469.8759" y="482.2645">1</text></g><!--reverse link AuthStrategy to GoogleAuthStrategy--><g id="link_AuthStrategy_GoogleAuthStrategy"><path codeLine="66" d="M443.1788,575.2988 C414.6188,614.6588 377.56,665.74 349.08,705 " fill="none" id="AuthStrategy-backto-GoogleAuthStrategy" style="stroke:#181818;stroke-width:1.0;"/><polygon fill="none" points="453.75,560.73,438.3225,571.775,448.035,578.8225,453.75,560.73" style="stroke:#181818;stroke-width:1.0;"/></g><!--reverse link AuthStrategy to MicrosoftAuthStrategy--><g id="link_AuthStrategy_MicrosoftAuthStrategy"><path codeLine="67" d="M511.8212,575.2988 C540.3812,614.6588 577.44,665.74 605.92,705 " fill="none" id="AuthStrategy-backto-MicrosoftAuthStrategy" style="stroke:#181818;stroke-width:1.0;"/><polygon fill="none" points="501.25,560.73,506.965,578.8225,516.6775,571.775,501.25,560.73" style="stroke:#181818;stroke-width:1.0;"/></g><!--link IdentityController to IdentityServiceInterface--><g id="link_IdentityController_IdentityServiceInterface"><path codeLine="69" d="M908.5,148.28 C908.5,177.71 908.5,210.99 908.5,236.47 " fill="none" id="IdentityController-IdentityServiceInterface" style="stroke:#181818;stroke-width:1.0;"/><text fill="#000000" font-family="sans-serif" font-size="13" lengthAdjust="spacing" textLength="27.46" x="909.5" y="193.0283">uses</text><text fill="#000000" font-family="sans-serif" font-size="13" lengthAdjust="spacing" textLength="7.23" x="901.1665" y="170.1216">1</text><text fill="#000000" font-family="sans-serif" font-size="13" lengthAdjust="spacing" textLength="7.23" x="900.9848" y="225.3693">1</text></g><!--SRC=[pLN1Rjim3BtxAuIUN1G-z1eC1Rnr6rnimz2qkwiouwgrnK2YCmJh_dsqh3XshEJGzh1S78cFZu_FbAmDWLr91I9lwN59LX9KM_4d4Vox498tmP1Ml9qg2sMtaBKJ2y5ORQfp_dVlm2P_aqJLqZdn5R6guRtOlcjbqU6Atekmy1ZQBi5kDBVTKsMUQk1VJDm8nHnCHAGkZkvARb2NRvVu2GrPh6kmGyCrLjgaNSejbDg2eX2mOVd5OfF_BBvfy-nXVOrzDhOKqjqQZOCbIMfTY5T0dPB2h30bV0Op5zcRfGzCN1pQMkp6QjxLBQpHQKAx7Rn_AX_K7JJhcZrYhflHCYXZutZn0txdIc5hA6rPJD3KQNj0h46QW5vfKmRWnsrndUgI8ThGf8iBqQvB9Wt0Qo2fQtUCcDlGmr4vrkmhvl9renLLipTsBkX_yAyVWoumlFWTSLXk4AsHifdERIPuGXsO3KBbO6JYxkIgHsutbWSDI-BDpzrpF-FSqVcehj_x5KhF3mq7xoRrev1y414DUmK-qcjXEmulekpbwlXWiLe-3z1ms8ch97AMnkcnIJXWc9K_kpmJMUOVfsdu1RjJsVVz07ZOALm-lN0zVhBtuOMHywz911JzIEoBZ-xHI9SHhxsMVm00]--></g></svg>