<svg xmlns="http://www.w3.org/2000/svg" xmlns:xlink="http://www.w3.org/1999/xlink" contentStyleType="text/css" height="664px" preserveAspectRatio="none" style="width:1376px;height:664px;background:#FFFFFF;" version="1.1" viewBox="0 0 1376 664" width="1376px" zoomAndPan="magnify"><title>Sequence Diagram: OAuth2 via Google OAuth2</title><defs/><g><text fill="#000000" font-family="sans-serif" font-size="14" font-weight="bold" lengthAdjust="spacing" textLength="315.0547" x="529.9492" y="30.1074">Sequence Diagram: OAuth2 via Google OAuth2</text><line style="stroke:#181818;stroke-width:0.5;stroke-dasharray:5.0,5.0;" x1="38" x2="38" y1="123.2422" y2="581.3164"/><line style="stroke:#181818;stroke-width:0.5;stroke-dasharray:5.0,5.0;" x1="239.1851" x2="239.1851" y1="123.2422" y2="581.3164"/><line style="stroke:#181818;stroke-width:0.5;stroke-dasharray:5.0,5.0;" x1="562.8848" x2="562.8848" y1="123.2422" y2="581.3164"/><line style="stroke:#181818;stroke-width:0.5;stroke-dasharray:5.0,5.0;" x1="807.437" x2="807.437" y1="123.2422" y2="581.3164"/><line style="stroke:#181818;stroke-width:0.5;stroke-dasharray:5.0,5.0;" x1="1066.1201" x2="1066.1201" y1="123.2422" y2="581.3164"/><line style="stroke:#181818;stroke-width:0.5;stroke-dasharray:5.0,5.0;" x1="1194.7266" x2="1194.7266" y1="123.2422" y2="581.3164"/><line style="stroke:#181818;stroke-width:0.5;stroke-dasharray:5.0,5.0;" x1="1315.4434" x2="1315.4434" y1="123.2422" y2="581.3164"/><text fill="#000000" font-family="sans-serif" font-size="14" lengthAdjust="spacing" textLength="61.4688" x="5" y="119.7285">Gebruiker</text><ellipse cx="38.7344" cy="53.1211" fill="#E2E2F0" rx="8" ry="8" style="stroke:#181818;stroke-width:0.5;"/><path d="M38.7344,61.1211 L38.7344,88.1211 M25.7344,69.1211 L51.7344,69.1211 M38.7344,88.1211 L25.7344,103.1211 M38.7344,88.1211 L51.7344,103.1211 " fill="none" style="stroke:#181818;stroke-width:0.5;"/><text fill="#000000" font-family="sans-serif" font-size="14" lengthAdjust="spacing" textLength="61.4688" x="5" y="595.4238">Gebruiker</text><ellipse cx="38.7344" cy="607.4375" fill="#E2E2F0" rx="8" ry="8" style="stroke:#181818;stroke-width:0.5;"/><path d="M38.7344,615.4375 L38.7344,642.4375 M25.7344,623.4375 L51.7344,623.4375 M38.7344,642.4375 L25.7344,657.4375 M38.7344,642.4375 L51.7344,657.4375 " fill="none" style="stroke:#181818;stroke-width:0.5;"/><rect fill="#E2E2F0" height="51.2422" rx="2.5" ry="2.5" style="stroke:#181818;stroke-width:0.5;" width="73.8965" x="203.1851" y="71"/><text fill="#000000" font-family="sans-serif" font-size="14" lengthAdjust="spacing" textLength="56.0342" x="212.1162" y="93.1074">Frontend</text><text fill="#000000" font-family="sans-serif" font-size="14" lengthAdjust="spacing" textLength="59.8965" x="210.1851" y="111.7285">(React.js)</text><rect fill="#E2E2F0" height="51.2422" rx="2.5" ry="2.5" style="stroke:#181818;stroke-width:0.5;" width="73.8965" x="203.1851" y="580.3164"/><text fill="#000000" font-family="sans-serif" font-size="14" lengthAdjust="spacing" textLength="56.0342" x="212.1162" y="602.4238">Frontend</text><text fill="#000000" font-family="sans-serif" font-size="14" lengthAdjust="spacing" textLength="59.8965" x="210.1851" y="621.0449">(React.js)</text><rect fill="#E2E2F0" height="51.2422" rx="2.5" ry="2.5" style="stroke:#181818;stroke-width:0.5;" width="103.4893" x="511.8848" y="71"/><text fill="#000000" font-family="sans-serif" font-size="14" lengthAdjust="spacing" textLength="89.4893" x="518.8848" y="93.1074">AuthController</text><text fill="#000000" font-family="sans-serif" font-size="14" lengthAdjust="spacing" textLength="82.4824" x="522.3882" y="111.7285">(Spring Boot)</text><rect fill="#E2E2F0" height="51.2422" rx="2.5" ry="2.5" style="stroke:#181818;stroke-width:0.5;" width="103.4893" x="511.8848" y="580.3164"/><text fill="#000000" font-family="sans-serif" font-size="14" lengthAdjust="spacing" textLength="89.4893" x="518.8848" y="602.4238">AuthController</text><text fill="#000000" font-family="sans-serif" font-size="14" lengthAdjust="spacing" textLength="82.4824" x="522.3882" y="621.0449">(Spring Boot)</text><rect fill="#E2E2F0" height="51.2422" rx="2.5" ry="2.5" style="stroke:#181818;stroke-width:0.5;" width="96.4824" x="759.437" y="71"/><text fill="#000000" font-family="sans-serif" font-size="14" lengthAdjust="spacing" textLength="75.4824" x="769.937" y="93.1074">AuthService</text><text fill="#000000" font-family="sans-serif" font-size="14" lengthAdjust="spacing" textLength="82.4824" x="766.437" y="111.7285">(Spring Boot)</text><rect fill="#E2E2F0" height="51.2422" rx="2.5" ry="2.5" style="stroke:#181818;stroke-width:0.5;" width="96.4824" x="759.437" y="580.3164"/><text fill="#000000" font-family="sans-serif" font-size="14" lengthAdjust="spacing" textLength="75.4824" x="769.937" y="602.4238">AuthService</text><text fill="#000000" font-family="sans-serif" font-size="14" lengthAdjust="spacing" textLength="82.4824" x="766.437" y="621.0449">(Spring Boot)</text><rect fill="#E2E2F0" height="51.2422" rx="2.5" ry="2.5" style="stroke:#181818;stroke-width:0.5;" width="127.6064" x="1003.1201" y="71"/><text fill="#000000" font-family="sans-serif" font-size="14" lengthAdjust="spacing" textLength="113.6064" x="1010.1201" y="93.1074">ExternalAPICheck</text><text fill="#000000" font-family="sans-serif" font-size="14" lengthAdjust="spacing" textLength="82.4824" x="1025.6821" y="111.7285">(Spring Boot)</text><rect fill="#E2E2F0" height="51.2422" rx="2.5" ry="2.5" style="stroke:#181818;stroke-width:0.5;" width="127.6064" x="1003.1201" y="580.3164"/><text fill="#000000" font-family="sans-serif" font-size="14" lengthAdjust="spacing" textLength="113.6064" x="1010.1201" y="602.4238">ExternalAPICheck</text><text fill="#000000" font-family="sans-serif" font-size="14" lengthAdjust="spacing" textLength="82.4824" x="1025.6821" y="621.0449">(Spring Boot)</text><rect fill="#E2E2F0" height="51.2422" rx="2.5" ry="2.5" style="stroke:#181818;stroke-width:0.5;" width="109.7168" x="1140.7266" y="71"/><text fill="#000000" font-family="sans-serif" font-size="14" lengthAdjust="spacing" textLength="95.7168" x="1147.7266" y="93.1074">AuthRepository</text><text fill="#000000" font-family="sans-serif" font-size="14" lengthAdjust="spacing" textLength="82.4824" x="1154.3438" y="111.7285">(Spring Boot)</text><rect fill="#E2E2F0" height="51.2422" rx="2.5" ry="2.5" style="stroke:#181818;stroke-width:0.5;" width="109.7168" x="1140.7266" y="580.3164"/><text fill="#000000" font-family="sans-serif" font-size="14" lengthAdjust="spacing" textLength="95.7168" x="1147.7266" y="602.4238">AuthRepository</text><text fill="#000000" font-family="sans-serif" font-size="14" lengthAdjust="spacing" textLength="82.4824" x="1154.3438" y="621.0449">(Spring Boot)</text><rect fill="#E2E2F0" height="32.6211" rx="2.5" ry="2.5" style="stroke:#181818;stroke-width:0.5;" width="110.5098" x="1260.4434" y="89.6211"/><text fill="#000000" font-family="sans-serif" font-size="14" lengthAdjust="spacing" textLength="96.5098" x="1267.4434" y="111.7285">Google OAuth2</text><rect fill="#E2E2F0" height="32.6211" rx="2.5" ry="2.5" style="stroke:#181818;stroke-width:0.5;" width="110.5098" x="1260.4434" y="580.3164"/><text fill="#000000" font-family="sans-serif" font-size="14" lengthAdjust="spacing" textLength="96.5098" x="1267.4434" y="602.4238">Google OAuth2</text><polygon fill="#181818" points="228.1333,152.5332,238.1333,156.5332,228.1333,160.5332,232.1333,156.5332" style="stroke:#181818;stroke-width:1.0;"/><line style="stroke:#181818;stroke-width:1.0;" x1="38.7344" x2="234.1333" y1="156.5332" y2="156.5332"/><text fill="#000000" font-family="sans-serif" font-size="13" font-weight="bold" lengthAdjust="spacing" textLength="7.23" x="45.7344" y="151.2705">1</text><text fill="#000000" font-family="sans-serif" font-size="13" lengthAdjust="spacing" textLength="166.1689" x="56.9644" y="151.2705">Navigeert naar /login (HTTP)</text><polygon fill="#181818" points="551.6294,183.8242,561.6294,187.8242,551.6294,191.8242,555.6294,187.8242" style="stroke:#181818;stroke-width:1.0;"/><line style="stroke:#181818;stroke-width:1.0;" x1="240.1333" x2="557.6294" y1="187.8242" y2="187.8242"/><text fill="#000000" font-family="sans-serif" font-size="13" font-weight="bold" lengthAdjust="spacing" textLength="7.23" x="247.1333" y="182.5615">2</text><text fill="#000000" font-family="sans-serif" font-size="13" lengthAdjust="spacing" textLength="247.1206" x="258.3633" y="182.5615">Stuur gebruiker naar loginEndpoint (HTTP)</text><polygon fill="#181818" points="795.6782,215.1152,805.6782,219.1152,795.6782,223.1152,799.6782,219.1152" style="stroke:#181818;stroke-width:1.0;"/><line style="stroke:#181818;stroke-width:1.0;" x1="563.6294" x2="801.6782" y1="219.1152" y2="219.1152"/><text fill="#000000" font-family="sans-serif" font-size="13" font-weight="bold" lengthAdjust="spacing" textLength="7.23" x="570.6294" y="213.8525">3</text><text fill="#000000" font-family="sans-serif" font-size="13" lengthAdjust="spacing" textLength="130.0825" x="581.8594" y="213.8525">Roep AuthService aan</text><polygon fill="#181818" points="1054.9233,246.4063,1064.9233,250.4063,1054.9233,254.4063,1058.9233,250.4063" style="stroke:#181818;stroke-width:1.0;"/><line style="stroke:#181818;stroke-width:1.0;" x1="807.6782" x2="1060.9233" y1="250.4063" y2="250.4063"/><text fill="#000000" font-family="sans-serif" font-size="13" font-weight="bold" lengthAdjust="spacing" textLength="7.23" x="814.6782" y="245.1436">4</text><text fill="#000000" font-family="sans-serif" font-size="13" lengthAdjust="spacing" textLength="224.0151" x="825.9082" y="245.1436">Controleert verbinding van externe API</text><polygon fill="#181818" points="1303.6982,277.6973,1313.6982,281.6973,1303.6982,285.6973,1307.6982,281.6973" style="stroke:#181818;stroke-width:1.0;"/><line style="stroke:#181818;stroke-width:1.0;" x1="1066.9233" x2="1309.6982" y1="281.6973" y2="281.6973"/><text fill="#000000" font-family="sans-serif" font-size="13" font-weight="bold" lengthAdjust="spacing" textLength="7.23" x="1073.9233" y="276.4346">5</text><text fill="#000000" font-family="sans-serif" font-size="13" lengthAdjust="spacing" textLength="204.4326" x="1085.1533" y="276.4346">Vraagt JWK_SET op (HTTP/JSON)</text><polygon fill="#181818" points="1077.9233,308.9883,1067.9233,312.9883,1077.9233,316.9883,1073.9233,312.9883" style="stroke:#181818;stroke-width:1.0;"/><line style="stroke:#181818;stroke-width:1.0;" x1="1071.9233" x2="1314.6982" y1="312.9883" y2="312.9883"/><text fill="#000000" font-family="sans-serif" font-size="13" font-weight="bold" lengthAdjust="spacing" textLength="7.23" x="1083.9233" y="307.7256">6</text><text fill="#000000" font-family="sans-serif" font-size="13" lengthAdjust="spacing" textLength="175.5444" x="1095.1533" y="307.7256">Geeft JWK_SET terug (JSON)</text><polygon fill="#181818" points="818.6782,340.2793,808.6782,344.2793,818.6782,348.2793,814.6782,344.2793" style="stroke:#181818;stroke-width:1.0;"/><line style="stroke:#181818;stroke-width:1.0;" x1="812.6782" x2="1065.9233" y1="344.2793" y2="344.2793"/><text fill="#000000" font-family="sans-serif" font-size="13" font-weight="bold" lengthAdjust="spacing" textLength="7.23" x="824.6782" y="339.0166">7</text><text fill="#000000" font-family="sans-serif" font-size="13" lengthAdjust="spacing" textLength="194.3843" x="835.9082" y="339.0166">Verbinding is succesvol (boolean)</text><polygon fill="#181818" points="1303.6982,371.5703,1313.6982,375.5703,1303.6982,379.5703,1307.6982,375.5703" style="stroke:#181818;stroke-width:1.0;"/><line style="stroke:#181818;stroke-width:1.0;" x1="807.6782" x2="1309.6982" y1="375.5703" y2="375.5703"/><text fill="#000000" font-family="sans-serif" font-size="13" font-weight="bold" lengthAdjust="spacing" textLength="7.23" x="814.6782" y="370.3076">8</text><text fill="#000000" font-family="sans-serif" font-size="13" lengthAdjust="spacing" textLength="299.8442" x="825.9082" y="370.3076">Stuurt gebruiker naar Google OAuth2 (HTTP/JSON)</text><polygon fill="#181818" points="818.6782,402.8613,808.6782,406.8613,818.6782,410.8613,814.6782,406.8613" style="stroke:#181818;stroke-width:1.0;"/><line style="stroke:#181818;stroke-width:1.0;" x1="812.6782" x2="1314.6982" y1="406.8613" y2="406.8613"/><text fill="#000000" font-family="sans-serif" font-size="13" font-weight="bold" lengthAdjust="spacing" textLength="7.23" x="824.6782" y="401.5986">9</text><text fill="#000000" font-family="sans-serif" font-size="13" lengthAdjust="spacing" textLength="190.7471" x="835.9082" y="401.5986">Stuurt OAuth token terug (JSON)</text><polygon fill="#181818" points="1303.6982,434.1523,1313.6982,438.1523,1303.6982,442.1523,1307.6982,438.1523" style="stroke:#181818;stroke-width:1.0;"/><line style="stroke:#181818;stroke-width:1.0;" x1="807.6782" x2="1309.6982" y1="438.1523" y2="438.1523"/><text fill="#000000" font-family="sans-serif" font-size="13" font-weight="bold" lengthAdjust="spacing" textLength="14.46" x="814.6782" y="432.8896">10</text><text fill="#000000" font-family="sans-serif" font-size="13" lengthAdjust="spacing" textLength="250.688" x="833.1382" y="432.8896">Haal gebruikersinformatie op (HTTP/JSON)</text><polygon fill="#181818" points="818.6782,465.4434,808.6782,469.4434,818.6782,473.4434,814.6782,469.4434" style="stroke:#181818;stroke-width:1.0;"/><line style="stroke:#181818;stroke-width:1.0;" x1="812.6782" x2="1314.6982" y1="469.4434" y2="469.4434"/><text fill="#000000" font-family="sans-serif" font-size="13" font-weight="bold" lengthAdjust="spacing" textLength="14.46" x="824.6782" y="464.1807">11</text><text fill="#000000" font-family="sans-serif" font-size="13" lengthAdjust="spacing" textLength="200.8398" x="843.1382" y="464.1807">Gebruikersinformatie terug (JSON)</text><polygon fill="#181818" points="1183.585,496.7344,1193.585,500.7344,1183.585,504.7344,1187.585,500.7344" style="stroke:#181818;stroke-width:1.0;"/><line style="stroke:#181818;stroke-width:1.0;" x1="807.6782" x2="1189.585" y1="500.7344" y2="500.7344"/><text fill="#000000" font-family="sans-serif" font-size="13" font-weight="bold" lengthAdjust="spacing" textLength="14.46" x="814.6782" y="495.4717">12</text><text fill="#000000" font-family="sans-serif" font-size="13" lengthAdjust="spacing" textLength="162.5698" x="833.1382" y="495.4717">12. Sla gebruiker op (JDBC)</text><polygon fill="#181818" points="574.6294,528.0254,564.6294,532.0254,574.6294,536.0254,570.6294,532.0254" style="stroke:#181818;stroke-width:1.0;"/><line style="stroke:#181818;stroke-width:1.0;" x1="568.6294" x2="806.6782" y1="532.0254" y2="532.0254"/><text fill="#000000" font-family="sans-serif" font-size="13" font-weight="bold" lengthAdjust="spacing" textLength="14.46" x="580.6294" y="526.7627">13</text><text fill="#000000" font-family="sans-serif" font-size="13" lengthAdjust="spacing" textLength="201.5889" x="599.0894" y="526.7627">13. Genereer JWT token obv email</text><polygon fill="#181818" points="251.1333,559.3164,241.1333,563.3164,251.1333,567.3164,247.1333,563.3164" style="stroke:#181818;stroke-width:1.0;"/><line style="stroke:#181818;stroke-width:1.0;" x1="245.1333" x2="562.6294" y1="563.3164" y2="563.3164"/><text fill="#000000" font-family="sans-serif" font-size="13" font-weight="bold" lengthAdjust="spacing" textLength="14.46" x="257.1333" y="558.0537">14</text><text fill="#000000" font-family="sans-serif" font-size="13" lengthAdjust="spacing" textLength="281.0361" x="275.5933" y="558.0537">14. Stuur gebruiker terug met JWT token (HTTP)</text><!--SRC=[TPDFJ-Cm4CNl_XGZJirXYyfooc4bAALiaG0r5LoGq2GTWgbZPnqxsltsw_nf4wV9rVD-ysPU9cYDaZQBIJF3ZI28w8ybcH3SSKmrPY4ytrZpTGKbHrWhbJfDyy8O9aPfM5EiBJ-u3ZbgmnEUepHmSQ-LD2JtxtAs9QUSVnV11M01nu8lhrekNK4h8KWxACerbodSAcKQpbUSqn7faYSqXRPbdrlzDQGbYfkNtyilIWvZy51pxhobN1NSPV5lohnJ-BGNQArkNXWxfGe_VfqY2-49IvuIQGCIKSEbK2cNC7lOxLu2TfHLY9zM296nLaDwwbhZDRsI-rnnDqtRnIUFlThuGjWgolilW2WPwpyuOfXP26t7UlIITCpblegfH0bKYmcSc0t1gbaJIGYl6Z4ri7bx_8XMEr1vC_7b9df-2bWRvQZvckYp0rtLfZ1hi353Rz_NRbXUG66JX8fI2PZ5ogs3CZXR_ZXl7RaPPkvzyeaDl07QDZK0HXr8-XjCk3yWYiwxuF9JwGmDf-dWFDlr6EeP3vtzGmzXSJM7I60lWCfvStUx3CRG_hKkVixT09AqknVttNRjtYekWJBaOkH8ktzaSJq_E_Tcy8nChrjxx_y1]--></g></svg>