<svg xmlns="http://www.w3.org/2000/svg" xmlns:xlink="http://www.w3.org/1999/xlink" contentStyleType="text/css" height="416.5px" preserveAspectRatio="none" style="width:968px;height:416px;background:#FFFFFF;" version="1.1" viewBox="0 0 968 416" width="968.1px" zoomAndPan="magnify"><defs/><g><!--class AuthStrategy--><g id="elem_AuthStrategy"><rect codeLine="2" fill="#F1F1F1" height="46.6348" id="AuthStrategy" rx="1.75" ry="1.75" style="stroke:#181818;stroke-width:0.3499999999999999;" width="188.1448" x="240.1" y="217.35"/><ellipse cx="302.8693" cy="228.55" fill="#B4A7E5" rx="7.7" ry="7.7" style="stroke:#181818;stroke-width:0.6999999999999998;"/><path d="M303.5365,226.1984 L303.5365,230.8578 L304.7396,230.8578 Q305.1662,230.8578 305.3521,231.0219 Q305.538,231.1859 305.538,231.4594 Q305.538,231.7219 305.3521,231.8859 Q305.1662,232.05 304.7396,232.05 L301.1412,232.05 Q300.7146,232.05 300.5287,231.8859 Q300.3427,231.7219 300.3427,231.4484 Q300.3427,231.1859 300.5287,231.0219 Q300.7146,230.8578 301.1412,230.8578 L302.3443,230.8578 L302.3443,226.1984 L301.1412,226.1984 Q300.7146,226.1984 300.5287,226.0344 Q300.3427,225.8703 300.3427,225.5969 Q300.3427,225.3344 300.5287,225.1703 Q300.7146,225.0062 301.1412,225.0062 L304.7396,225.0062 Q305.1662,225.0062 305.3521,225.1703 Q305.538,225.3344 305.538,225.5969 Q305.538,225.8703 305.3521,226.0344 Q305.1662,226.1984 304.7396,226.1984 L303.5365,226.1984 Z " fill="#000000"/><text fill="#000000" font-family="sans-serif" font-size="9.8" font-style="italic" lengthAdjust="spacing" textLength="56.6562" x="317.2193" y="232.6078">AuthStrategy</text><line style="stroke:#181818;stroke-width:0.3499999999999999;" x1="240.8" x2="427.5448" y1="239.75" y2="239.75"/><line style="stroke:#181818;stroke-width:0.3499999999999999;" x1="240.8" x2="427.5448" y1="245.35" y2="245.35"/><ellipse cx="247.8" cy="255.7174" fill="#84BE84" rx="2.1" ry="2.1" style="stroke:#038048;stroke-width:0.6999999999999998;"/><text fill="#000000" font-family="sans-serif" font-size="9.8" lengthAdjust="spacing" textLength="169.9448" x="254.1" y="258.7252">authenticate(credentials : String) : User</text></g><!--class GoogleAuthStrategy--><g id="elem_GoogleAuthStrategy"><rect codeLine="6" fill="#F1F1F1" height="46.6348" id="GoogleAuthStrategy" rx="1.75" ry="1.75" style="stroke:#181818;stroke-width:0.3499999999999999;" width="188.1448" x="133.7" y="365.4"/><ellipse cx="180.6687" cy="376.6" fill="#ADD1B2" rx="7.7" ry="7.7" style="stroke:#181818;stroke-width:0.6999999999999998;"/><path d="M182.6046,373.7125 Q182.714,373.5594 182.8453,373.4828 Q182.9765,373.4062 183.1296,373.4062 Q183.3921,373.4062 183.5562,373.5922 Q183.7203,373.7672 183.7203,374.1937 L183.7203,375.2109 Q183.7203,375.6375 183.5562,375.8234 Q183.3921,376.0094 183.1296,376.0094 Q182.889,376.0094 182.7468,375.8672 Q182.6046,375.7359 182.5281,375.375 Q182.4953,375.1234 182.364,374.9922 Q182.1343,374.7297 181.7078,374.5766 Q181.2812,374.4234 180.8437,374.4234 Q180.3078,374.4234 179.8593,374.6531 Q179.4218,374.8828 179.0718,375.4078 Q178.7328,375.9328 178.7328,376.6547 L178.7328,377.4203 Q178.7328,378.2844 179.3562,378.8641 Q179.9796,379.4328 181.0953,379.4328 Q181.7515,379.4328 182.2109,379.2578 Q182.4843,379.1484 182.7796,378.8422 Q182.9656,378.6562 183.064,378.6016 Q183.1734,378.5469 183.3156,378.5469 Q183.5453,378.5469 183.7203,378.7328 Q183.9062,378.9078 183.9062,379.1484 Q183.9062,379.3891 183.6656,379.6734 Q183.3156,380.0781 182.7578,380.3078 Q182.0031,380.625 181.0953,380.625 Q180.0343,380.625 179.1921,380.1875 Q178.5031,379.8375 178.0218,379.0937 Q177.5406,378.3391 177.5406,377.4422 L177.5406,376.6328 Q177.5406,375.7031 177.9671,374.9047 Q178.4046,374.0953 179.1703,373.6687 Q179.9359,373.2312 180.8,373.2312 Q181.314,373.2312 181.7625,373.3516 Q182.2218,373.4609 182.6046,373.7125 Z " fill="#000000"/><text fill="#000000" font-family="sans-serif" font-size="9.8" lengthAdjust="spacing" textLength="88.2574" x="195.0187" y="380.6578">GoogleAuthStrategy</text><line style="stroke:#181818;stroke-width:0.3499999999999999;" x1="134.4" x2="321.1448" y1="387.8" y2="387.8"/><line style="stroke:#181818;stroke-width:0.3499999999999999;" x1="134.4" x2="321.1448" y1="393.4" y2="393.4"/><ellipse cx="141.4" cy="403.7674" fill="#84BE84" rx="2.1" ry="2.1" style="stroke:#038048;stroke-width:0.6999999999999998;"/><text fill="#000000" font-family="sans-serif" font-size="9.8" lengthAdjust="spacing" textLength="169.9448" x="147.7" y="406.7752">authenticate(credentials : String) : User</text></g><!--class MicrosoftAuthStrategy--><g id="elem_MicrosoftAuthStrategy"><rect codeLine="10" fill="#F1F1F1" height="46.6348" id="MicrosoftAuthStrategy" rx="1.75" ry="1.75" style="stroke:#181818;stroke-width:0.3499999999999999;" width="188.1448" x="346.5" y="365.4"/><ellipse cx="389.3941" cy="376.6" fill="#ADD1B2" rx="7.7" ry="7.7" style="stroke:#181818;stroke-width:0.6999999999999998;"/><path d="M391.3301,373.7125 Q391.4395,373.5594 391.5707,373.4828 Q391.702,373.4062 391.8551,373.4062 Q392.1176,373.4062 392.2816,373.5922 Q392.4457,373.7672 392.4457,374.1937 L392.4457,375.2109 Q392.4457,375.6375 392.2816,375.8234 Q392.1176,376.0094 391.8551,376.0094 Q391.6145,376.0094 391.4723,375.8672 Q391.3301,375.7359 391.2535,375.375 Q391.2207,375.1234 391.0895,374.9922 Q390.8598,374.7297 390.4332,374.5766 Q390.0066,374.4234 389.5691,374.4234 Q389.0332,374.4234 388.5848,374.6531 Q388.1473,374.8828 387.7973,375.4078 Q387.4582,375.9328 387.4582,376.6547 L387.4582,377.4203 Q387.4582,378.2844 388.0816,378.8641 Q388.7051,379.4328 389.8207,379.4328 Q390.477,379.4328 390.9363,379.2578 Q391.2098,379.1484 391.5051,378.8422 Q391.691,378.6562 391.7895,378.6016 Q391.8988,378.5469 392.041,378.5469 Q392.2707,378.5469 392.4457,378.7328 Q392.6316,378.9078 392.6316,379.1484 Q392.6316,379.3891 392.391,379.6734 Q392.041,380.0781 391.4832,380.3078 Q390.7285,380.625 389.8207,380.625 Q388.7598,380.625 387.9176,380.1875 Q387.2285,379.8375 386.7473,379.0937 Q386.266,378.3391 386.266,377.4422 L386.266,376.6328 Q386.266,375.7031 386.6926,374.9047 Q387.1301,374.0953 387.8957,373.6687 Q388.6613,373.2312 389.5254,373.2312 Q390.0395,373.2312 390.4879,373.3516 Q390.9473,373.4609 391.3301,373.7125 Z " fill="#000000"/><text fill="#000000" font-family="sans-serif" font-size="9.8" lengthAdjust="spacing" textLength="96.4065" x="403.7441" y="380.6578">MicrosoftAuthStrategy</text><line style="stroke:#181818;stroke-width:0.3499999999999999;" x1="347.2" x2="533.9448" y1="387.8" y2="387.8"/><line style="stroke:#181818;stroke-width:0.3499999999999999;" x1="347.2" x2="533.9448" y1="393.4" y2="393.4"/><ellipse cx="354.2" cy="403.7674" fill="#84BE84" rx="2.1" ry="2.1" style="stroke:#038048;stroke-width:0.6999999999999998;"/><text fill="#000000" font-family="sans-serif" font-size="9.8" lengthAdjust="spacing" textLength="169.9448" x="360.5" y="406.7752">authenticate(credentials : String) : User</text></g><!--class IdentityService--><g id="elem_IdentityService"><rect codeLine="14" fill="#F1F1F1" height="72.7043" id="IdentityService" rx="1.75" ry="1.75" style="stroke:#181818;stroke-width:0.3499999999999999;" width="220.2867" x="224" y="17.85"/><ellipse cx="299.0312" cy="29.05" fill="#ADD1B2" rx="7.7" ry="7.7" style="stroke:#181818;stroke-width:0.6999999999999998;"/><path d="M300.9672,26.1625 Q301.0766,26.0094 301.2078,25.9328 Q301.3391,25.8562 301.4922,25.8562 Q301.7547,25.8562 301.9187,26.0422 Q302.0828,26.2172 302.0828,26.6437 L302.0828,27.6609 Q302.0828,28.0875 301.9187,28.2734 Q301.7547,28.4594 301.4922,28.4594 Q301.2516,28.4594 301.1094,28.3172 Q300.9672,28.1859 300.8906,27.825 Q300.8578,27.5734 300.7266,27.4422 Q300.4969,27.1797 300.0703,27.0266 Q299.6437,26.8734 299.2062,26.8734 Q298.6703,26.8734 298.2219,27.1031 Q297.7844,27.3328 297.4344,27.8578 Q297.0953,28.3828 297.0953,29.1047 L297.0953,29.8703 Q297.0953,30.7344 297.7187,31.3141 Q298.3422,31.8828 299.4578,31.8828 Q300.1141,31.8828 300.5734,31.7078 Q300.8469,31.5984 301.1422,31.2922 Q301.3281,31.1062 301.4266,31.0516 Q301.5359,30.9969 301.6781,30.9969 Q301.9078,30.9969 302.0828,31.1828 Q302.2687,31.3578 302.2687,31.5984 Q302.2687,31.8391 302.0281,32.1234 Q301.6781,32.5281 301.1203,32.7578 Q300.3656,33.075 299.4578,33.075 Q298.3969,33.075 297.5547,32.6375 Q296.8656,32.2875 296.3844,31.5437 Q295.9031,30.7891 295.9031,29.8922 L295.9031,29.0828 Q295.9031,28.1531 296.3297,27.3547 Q296.7672,26.5453 297.5328,26.1187 Q298.2984,25.6812 299.1625,25.6812 Q299.6766,25.6812 300.125,25.8016 Q300.5844,25.9109 300.9672,26.1625 Z " fill="#000000"/><text fill="#000000" font-family="sans-serif" font-size="9.8" lengthAdjust="spacing" textLength="64.2742" x="313.3812" y="33.1078">IdentityService</text><line style="stroke:#181818;stroke-width:0.3499999999999999;" x1="224.7" x2="443.5867" y1="40.25" y2="40.25"/><rect fill="none" height="4.2" style="stroke:#C82930;stroke-width:0.6999999999999998;" width="4.2" x="229.6" y="48.5174"/><text fill="#000000" font-family="sans-serif" font-size="9.8" lengthAdjust="spacing" textLength="120.3945" x="238" y="53.6252">authStrategy : AuthStrategy</text><line style="stroke:#181818;stroke-width:0.3499999999999999;" x1="224.7" x2="443.5867" y1="58.8848" y2="58.8848"/><ellipse cx="231.7" cy="69.2521" fill="#84BE84" rx="2.1" ry="2.1" style="stroke:#038048;stroke-width:0.6999999999999998;"/><text fill="#000000" font-family="sans-serif" font-size="9.8" lengthAdjust="spacing" textLength="202.0867" x="238" y="72.26">setAuthStrategy(strategy : AuthStrategy) : void</text><ellipse cx="231.7" cy="82.2869" fill="#84BE84" rx="2.1" ry="2.1" style="stroke:#038048;stroke-width:0.6999999999999998;"/><text fill="#000000" font-family="sans-serif" font-size="9.8" lengthAdjust="spacing" textLength="169.9448" x="238" y="85.2947">authenticate(credentials : String) : User</text></g><!--class IdentityController--><g id="elem_IdentityController"><rect codeLine="20" fill="#F1F1F1" height="98.7738" id="IdentityController" rx="1.75" ry="1.75" style="stroke:#181818;stroke-width:0.3499999999999999;" width="192.5041" x="770.7" y="4.9"/><ellipse cx="826.9375" cy="16.1" fill="#ADD1B2" rx="7.7" ry="7.7" style="stroke:#181818;stroke-width:0.6999999999999998;"/><path d="M828.8735,13.2125 Q828.9829,13.0594 829.1141,12.9828 Q829.2454,12.9062 829.3985,12.9062 Q829.661,12.9062 829.825,13.0922 Q829.9891,13.2672 829.9891,13.6937 L829.9891,14.7109 Q829.9891,15.1375 829.825,15.3234 Q829.661,15.5094 829.3985,15.5094 Q829.1579,15.5094 829.0157,15.3672 Q828.8735,15.2359 828.7969,14.875 Q828.7641,14.6234 828.6329,14.4922 Q828.4032,14.2297 827.9766,14.0766 Q827.55,13.9234 827.1125,13.9234 Q826.5766,13.9234 826.1282,14.1531 Q825.6907,14.3828 825.3407,14.9078 Q825.0016,15.4328 825.0016,16.1547 L825.0016,16.9203 Q825.0016,17.7844 825.625,18.3641 Q826.2485,18.9328 827.3641,18.9328 Q828.0204,18.9328 828.4797,18.7578 Q828.7532,18.6484 829.0485,18.3422 Q829.2344,18.1562 829.3329,18.1016 Q829.4422,18.0469 829.5844,18.0469 Q829.8141,18.0469 829.9891,18.2328 Q830.175,18.4078 830.175,18.6484 Q830.175,18.8891 829.9344,19.1734 Q829.5844,19.5781 829.0266,19.8078 Q828.2719,20.125 827.3641,20.125 Q826.3032,20.125 825.461,19.6875 Q824.7719,19.3375 824.2907,18.5937 Q823.8094,17.8391 823.8094,16.9422 L823.8094,16.1328 Q823.8094,15.2031 824.236,14.4047 Q824.6735,13.5953 825.4391,13.1687 Q826.2047,12.7312 827.0688,12.7312 Q827.5829,12.7312 828.0313,12.8516 Q828.4907,12.9609 828.8735,13.2125 Z " fill="#000000"/><text fill="#000000" font-family="sans-serif" font-size="9.8" lengthAdjust="spacing" textLength="74.079" x="841.2875" y="20.1578">IdentityController</text><line style="stroke:#181818;stroke-width:0.3499999999999999;" x1="771.4" x2="962.5041" y1="27.3" y2="27.3"/><rect fill="none" height="4.2" style="stroke:#C82930;stroke-width:0.6999999999999998;" width="4.2" x="776.3" y="35.5674"/><text fill="#000000" font-family="sans-serif" font-size="9.8" lengthAdjust="spacing" textLength="174.3041" x="784.7" y="40.6752">identityService : IdentityServiceInterface</text><line style="stroke:#181818;stroke-width:0.3499999999999999;" x1="771.4" x2="962.5041" y1="45.9348" y2="45.9348"/><ellipse cx="778.4" cy="56.3021" fill="#84BE84" rx="2.1" ry="2.1" style="stroke:#038048;stroke-width:0.6999999999999998;"/><text fill="#000000" font-family="sans-serif" font-size="9.8" lengthAdjust="spacing" textLength="71.8922" x="784.7" y="59.31">login() : Redirect</text><ellipse cx="778.4" cy="69.3369" fill="#84BE84" rx="2.1" ry="2.1" style="stroke:#038048;stroke-width:0.6999999999999998;"/><text fill="#000000" font-family="sans-serif" font-size="9.8" lengthAdjust="spacing" textLength="129.6107" x="784.7" y="72.3447">redirectFromAPILink() : String</text><ellipse cx="778.4" cy="82.3717" fill="#84BE84" rx="2.1" ry="2.1" style="stroke:#038048;stroke-width:0.6999999999999998;"/><text fill="#000000" font-family="sans-serif" font-size="9.8" lengthAdjust="spacing" textLength="113.3077" x="784.7" y="85.3795">logout() : ResponseStatus</text><ellipse cx="778.4" cy="95.4064" fill="#84BE84" rx="2.1" ry="2.1" style="stroke:#038048;stroke-width:0.6999999999999998;"/><text fill="#000000" font-family="sans-serif" font-size="9.8" lengthAdjust="spacing" textLength="143.7892" x="784.7" y="98.4143">getUserInfo(token : String) : User</text></g><!--class IdentityRepository--><g id="elem_IdentityRepository"><rect codeLine="28" fill="#F1F1F1" height="85.7391" id="IdentityRepository" rx="1.75" ry="1.75" style="stroke:#181818;stroke-width:0.3499999999999999;" width="211.037" x="452.9" y="198.1"/><ellipse cx="516.2244" cy="209.3" fill="#ADD1B2" rx="7.7" ry="7.7" style="stroke:#181818;stroke-width:0.6999999999999998;"/><path d="M518.1603,206.4125 Q518.2697,206.2594 518.4009,206.1828 Q518.5322,206.1062 518.6853,206.1062 Q518.9478,206.1062 519.1119,206.2922 Q519.2759,206.4672 519.2759,206.8937 L519.2759,207.9109 Q519.2759,208.3375 519.1119,208.5234 Q518.9478,208.7094 518.6853,208.7094 Q518.4447,208.7094 518.3025,208.5672 Q518.1603,208.4359 518.0837,208.075 Q518.0509,207.8234 517.9197,207.6922 Q517.69,207.4297 517.2634,207.2766 Q516.8369,207.1234 516.3994,207.1234 Q515.8634,207.1234 515.415,207.3531 Q514.9775,207.5828 514.6275,208.1078 Q514.2884,208.6328 514.2884,209.3547 L514.2884,210.1203 Q514.2884,210.9844 514.9119,211.5641 Q515.5353,212.1328 516.6509,212.1328 Q517.3072,212.1328 517.7666,211.9578 Q518.04,211.8484 518.3353,211.5422 Q518.5212,211.3562 518.6197,211.3016 Q518.7291,211.2469 518.8712,211.2469 Q519.1009,211.2469 519.2759,211.4328 Q519.4619,211.6078 519.4619,211.8484 Q519.4619,212.0891 519.2212,212.3734 Q518.8712,212.7781 518.3134,213.0078 Q517.5587,213.325 516.6509,213.325 Q515.59,213.325 514.7478,212.8875 Q514.0587,212.5375 513.5775,211.7937 Q513.0962,211.0391 513.0962,210.1422 L513.0962,209.3328 Q513.0962,208.4031 513.5228,207.6047 Q513.9603,206.7953 514.7259,206.3687 Q515.4916,205.9312 516.3556,205.9312 Q516.8697,205.9312 517.3181,206.0516 Q517.7775,206.1609 518.1603,206.4125 Z " fill="#000000"/><text fill="#000000" font-family="sans-serif" font-size="9.8" lengthAdjust="spacing" textLength="78.4383" x="530.5744" y="213.3578">IdentityRepository</text><line style="stroke:#181818;stroke-width:0.3499999999999999;" x1="453.6" x2="663.237" y1="220.5" y2="220.5"/><rect fill="none" height="4.2" style="stroke:#C82930;stroke-width:0.6999999999999998;" width="4.2" x="458.5" y="228.7674"/><text fill="#000000" font-family="sans-serif" font-size="9.8" lengthAdjust="spacing" textLength="128.5484" x="466.9" y="233.8752">jdbcTemplate : JdbcTemplate</text><line style="stroke:#181818;stroke-width:0.3499999999999999;" x1="453.6" x2="663.237" y1="239.1348" y2="239.1348"/><ellipse cx="460.6" cy="249.5021" fill="#84BE84" rx="2.1" ry="2.1" style="stroke:#038048;stroke-width:0.6999999999999998;"/><text fill="#000000" font-family="sans-serif" font-size="9.8" lengthAdjust="spacing" textLength="179.7496" x="466.9" y="252.51">createNewAccount(user : User) : boolean</text><ellipse cx="460.6" cy="262.5369" fill="#84BE84" rx="2.1" ry="2.1" style="stroke:#038048;stroke-width:0.6999999999999998;"/><text fill="#000000" font-family="sans-serif" font-size="9.8" lengthAdjust="spacing" textLength="133.9796" x="466.9" y="265.5447">findAccountByID(id : int) : User</text><ellipse cx="460.6" cy="275.5717" fill="#84BE84" rx="2.1" ry="2.1" style="stroke:#038048;stroke-width:0.6999999999999998;"/><text fill="#000000" font-family="sans-serif" font-size="9.8" lengthAdjust="spacing" textLength="192.837" x="466.9" y="278.5795">updateAccountDetails(user : User) : boolean</text></g><!--class IdentityServiceInterface--><g id="elem_IdentityServiceInterface"><rect codeLine="35" fill="#F1F1F1" height="59.6695" id="IdentityServiceInterface" rx="1.75" ry="1.75" style="stroke:#181818;stroke-width:0.3499999999999999;" width="220.2867" x="525.7" y="24.5"/><ellipse cx="581.6648" cy="35.7" fill="#B4A7E5" rx="7.7" ry="7.7" style="stroke:#181818;stroke-width:0.6999999999999998;"/><path d="M582.332,33.3484 L582.332,38.0078 L583.5351,38.0078 Q583.9617,38.0078 584.1476,38.1719 Q584.3335,38.3359 584.3335,38.6094 Q584.3335,38.8719 584.1476,39.0359 Q583.9617,39.2 583.5351,39.2 L579.9367,39.2 Q579.5101,39.2 579.3242,39.0359 Q579.1382,38.8719 579.1382,38.5984 Q579.1382,38.3359 579.3242,38.1719 Q579.5101,38.0078 579.9367,38.0078 L581.1398,38.0078 L581.1398,33.3484 L579.9367,33.3484 Q579.5101,33.3484 579.3242,33.1844 Q579.1382,33.0203 579.1382,32.7469 Q579.1382,32.4844 579.3242,32.3203 Q579.5101,32.1562 579.9367,32.1562 L583.5351,32.1562 Q583.9617,32.1562 584.1476,32.3203 Q584.3335,32.4844 584.3335,32.7469 Q584.3335,33.0203 584.1476,33.1844 Q583.9617,33.3484 583.5351,33.3484 L582.332,33.3484 Z " fill="#000000"/><text fill="#000000" font-family="sans-serif" font-size="9.8" font-style="italic" lengthAdjust="spacing" textLength="102.4071" x="596.0148" y="39.7578">IdentityServiceInterface</text><line style="stroke:#181818;stroke-width:0.3499999999999999;" x1="526.4" x2="745.2867" y1="46.9" y2="46.9"/><line style="stroke:#181818;stroke-width:0.3499999999999999;" x1="526.4" x2="745.2867" y1="52.5" y2="52.5"/><ellipse cx="533.4" cy="62.8674" fill="#84BE84" rx="2.1" ry="2.1" style="stroke:#038048;stroke-width:0.6999999999999998;"/><text fill="#000000" font-family="sans-serif" font-size="9.8" lengthAdjust="spacing" textLength="169.9448" x="539.7" y="65.8752">authenticate(credentials : String) : User</text><ellipse cx="533.4" cy="75.9021" fill="#84BE84" rx="2.1" ry="2.1" style="stroke:#038048;stroke-width:0.6999999999999998;"/><text fill="#000000" font-family="sans-serif" font-size="9.8" lengthAdjust="spacing" textLength="202.0867" x="539.7" y="78.91">setAuthStrategy(strategy : AuthStrategy) : void</text></g><!--class IdentityRepositoryInterface--><g id="elem_IdentityRepositoryInterface"><rect codeLine="40" fill="#F1F1F1" height="72.7043" id="IdentityRepositoryInterface" rx="1.75" ry="1.75" style="stroke:#181818;stroke-width:0.3499999999999999;" width="211.037" x="4.9" y="204.4"/><ellipse cx="49.1579" cy="215.6" fill="#B4A7E5" rx="7.7" ry="7.7" style="stroke:#181818;stroke-width:0.6999999999999998;"/><path d="M49.8251,213.2484 L49.8251,217.9078 L51.0282,217.9078 Q51.4548,217.9078 51.6407,218.0719 Q51.8267,218.2359 51.8267,218.5094 Q51.8267,218.7719 51.6407,218.9359 Q51.4548,219.1 51.0282,219.1 L47.4298,219.1 Q47.0032,219.1 46.8173,218.9359 Q46.6313,218.7719 46.6313,218.4984 Q46.6313,218.2359 46.8173,218.0719 Q47.0032,217.9078 47.4298,217.9078 L48.6329,217.9078 L48.6329,213.2484 L47.4298,213.2484 Q47.0032,213.2484 46.8173,213.0844 Q46.6313,212.9203 46.6313,212.6469 Q46.6313,212.3844 46.8173,212.2203 Q47.0032,212.0562 47.4298,212.0562 L51.0282,212.0562 Q51.4548,212.0562 51.6407,212.2203 Q51.8267,212.3844 51.8267,212.6469 Q51.8267,212.9203 51.6407,213.0844 Q51.4548,213.2484 51.0282,213.2484 L49.8251,213.2484 Z " fill="#000000"/><text fill="#000000" font-family="sans-serif" font-size="9.8" font-style="italic" lengthAdjust="spacing" textLength="116.5712" x="63.5079" y="219.6578">IdentityRepositoryInterface</text><line style="stroke:#181818;stroke-width:0.3499999999999999;" x1="5.6" x2="215.237" y1="226.8" y2="226.8"/><line style="stroke:#181818;stroke-width:0.3499999999999999;" x1="5.6" x2="215.237" y1="232.4" y2="232.4"/><ellipse cx="12.6" cy="242.7674" fill="#84BE84" rx="2.1" ry="2.1" style="stroke:#038048;stroke-width:0.6999999999999998;"/><text fill="#000000" font-family="sans-serif" font-size="9.8" lengthAdjust="spacing" textLength="179.7496" x="18.9" y="245.7752">createNewAccount(user : User) : boolean</text><ellipse cx="12.6" cy="255.8021" fill="#84BE84" rx="2.1" ry="2.1" style="stroke:#038048;stroke-width:0.6999999999999998;"/><text fill="#000000" font-family="sans-serif" font-size="9.8" lengthAdjust="spacing" textLength="133.9796" x="18.9" y="258.81">findAccountByID(id : int) : User</text><ellipse cx="12.6" cy="268.8369" fill="#84BE84" rx="2.1" ry="2.1" style="stroke:#038048;stroke-width:0.6999999999999998;"/><text fill="#000000" font-family="sans-serif" font-size="9.8" lengthAdjust="spacing" textLength="192.837" x="18.9" y="271.8447">updateAccountDetails(user : User) : boolean</text></g><!--class User--><g id="elem_User"><rect codeLine="46" fill="#F1F1F1" height="163.9477" id="User" rx="1.75" ry="1.75" style="stroke:#181818;stroke-width:0.3499999999999999;" width="142.9347" x="688.45" y="158.9"/><ellipse cx="746.5968" cy="170.1" fill="#ADD1B2" rx="7.7" ry="7.7" style="stroke:#181818;stroke-width:0.6999999999999998;"/><path d="M748.5328,167.2125 Q748.6421,167.0594 748.7734,166.9828 Q748.9046,166.9062 749.0578,166.9062 Q749.3203,166.9062 749.4843,167.0922 Q749.6484,167.2672 749.6484,167.6937 L749.6484,168.7109 Q749.6484,169.1375 749.4843,169.3234 Q749.3203,169.5094 749.0578,169.5094 Q748.8171,169.5094 748.675,169.3672 Q748.5328,169.2359 748.4562,168.875 Q748.4234,168.6234 748.2921,168.4922 Q748.0625,168.2297 747.6359,168.0766 Q747.2093,167.9234 746.7718,167.9234 Q746.2359,167.9234 745.7875,168.1531 Q745.35,168.3828 745,168.9078 Q744.6609,169.4328 744.6609,170.1547 L744.6609,170.9203 Q744.6609,171.7844 745.2843,172.3641 Q745.9078,172.9328 747.0234,172.9328 Q747.6796,172.9328 748.139,172.7578 Q748.4125,172.6484 748.7078,172.3422 Q748.8937,172.1562 748.9921,172.1016 Q749.1015,172.0469 749.2437,172.0469 Q749.4734,172.0469 749.6484,172.2328 Q749.8343,172.4078 749.8343,172.6484 Q749.8343,172.8891 749.5937,173.1734 Q749.2437,173.5781 748.6859,173.8078 Q747.9312,174.125 747.0234,174.125 Q745.9625,174.125 745.1203,173.6875 Q744.4312,173.3375 743.95,172.5937 Q743.4687,171.8391 743.4687,170.9422 L743.4687,170.1328 Q743.4687,169.2031 743.8953,168.4047 Q744.3328,167.5953 745.0984,167.1687 Q745.864,166.7312 746.7281,166.7312 Q747.2421,166.7312 747.6906,166.8516 Q748.15,166.9609 748.5328,167.2125 Z " fill="#000000"/><text fill="#000000" font-family="sans-serif" font-size="9.8" lengthAdjust="spacing" textLength="20.691" x="760.9468" y="174.1578">User</text><line style="stroke:#181818;stroke-width:0.3499999999999999;" x1="689.15" x2="830.6847" y1="181.3" y2="181.3"/><rect fill="none" height="4.2" style="stroke:#C82930;stroke-width:0.6999999999999998;" width="4.2" x="694.05" y="189.5674"/><text fill="#000000" font-family="sans-serif" font-size="9.8" lengthAdjust="spacing" textLength="26.1461" x="702.45" y="194.6752">id : int</text><rect fill="none" height="4.2" style="stroke:#C82930;stroke-width:0.6999999999999998;" width="4.2" x="694.05" y="202.6021"/><text fill="#000000" font-family="sans-serif" font-size="9.8" lengthAdjust="spacing" textLength="77.3473" x="702.45" y="207.71">voornaam : String</text><rect fill="none" height="4.2" style="stroke:#C82930;stroke-width:0.6999999999999998;" width="4.2" x="694.05" y="215.6369"/><text fill="#000000" font-family="sans-serif" font-size="9.8" lengthAdjust="spacing" textLength="101.3209" x="702.45" y="220.7447">tussenvoegsels : String</text><rect fill="none" height="4.2" style="stroke:#C82930;stroke-width:0.6999999999999998;" width="4.2" x="694.05" y="228.6717"/><text fill="#000000" font-family="sans-serif" font-size="9.8" lengthAdjust="spacing" textLength="85.5203" x="702.45" y="233.7795">achternaam : String</text><rect fill="none" height="4.2" style="stroke:#C82930;stroke-width:0.6999999999999998;" width="4.2" x="694.05" y="241.7064"/><text fill="#000000" font-family="sans-serif" font-size="9.8" lengthAdjust="spacing" textLength="56.0916" x="702.45" y="246.8143">email : Email</text><line style="stroke:#181818;stroke-width:0.3499999999999999;" x1="689.15" x2="830.6847" y1="252.0738" y2="252.0738"/><ellipse cx="696.15" cy="262.4412" fill="#84BE84" rx="2.1" ry="2.1" style="stroke:#038048;stroke-width:0.6999999999999998;"/><text fill="#000000" font-family="sans-serif" font-size="9.8" lengthAdjust="spacing" textLength="48.4688" x="702.45" y="265.449">getID() : int</text><ellipse cx="696.15" cy="275.476" fill="#84BE84" rx="2.1" ry="2.1" style="stroke:#038048;stroke-width:0.6999999999999998;"/><text fill="#000000" font-family="sans-serif" font-size="9.8" lengthAdjust="spacing" textLength="99.1341" x="702.45" y="278.4838">getVoornaam() : String</text><ellipse cx="696.15" cy="288.5107" fill="#84BE84" rx="2.1" ry="2.1" style="stroke:#038048;stroke-width:0.6999999999999998;"/><text fill="#000000" font-family="sans-serif" font-size="9.8" lengthAdjust="spacing" textLength="124.7347" x="702.45" y="291.5186">getTussenvoegsels() : String</text><ellipse cx="696.15" cy="301.5455" fill="#84BE84" rx="2.1" ry="2.1" style="stroke:#038048;stroke-width:0.6999999999999998;"/><text fill="#000000" font-family="sans-serif" font-size="9.8" lengthAdjust="spacing" textLength="106.7568" x="702.45" y="304.5533">getAchternaam() : String</text><ellipse cx="696.15" cy="314.5803" fill="#84BE84" rx="2.1" ry="2.1" style="stroke:#038048;stroke-width:0.6999999999999998;"/><text fill="#000000" font-family="sans-serif" font-size="9.8" lengthAdjust="spacing" textLength="77.3281" x="702.45" y="317.5881">getEmail() : Email</text></g><!--link IdentityService to IdentityServiceInterface--><g id="link_IdentityService_IdentityServiceInterface"><path codeLine="59" d="M444.668,54.25 C471.079,54.25 486.682,54.25 513.093,54.25 " fill="none" id="IdentityService-to-IdentityServiceInterface" style="stroke:#181818;stroke-width:0.6999999999999998;"/><polygon fill="none" points="525.693,54.25,513.093,50.05,513.093,58.45,525.693,54.25" style="stroke:#181818;stroke-width:0.6999999999999998;"/><polygon fill="#000000" points="463.75,45.6019,457.4184,43.5446,457.4184,47.6591,463.75,45.6019" style="stroke:#000000;stroke-width:0.6999999999999998;"/><text fill="#000000" font-family="sans-serif" font-size="9.1" lengthAdjust="spacing" textLength="46.5264" x="466.55" y="49.3698">implements</text></g><!--link IdentityRepository to IdentityRepositoryInterface--><g id="link_IdentityRepository_IdentityRepositoryInterface"><path codeLine="60" d="M508.746,198.03 C488.845,183.155 464.891,167.944 440.65,158.9 C397.222,142.702 275.079,127.799 232.4,142.8 C197.645,155.022 174.3934,172.8704 151.7974,195.3404 " fill="none" id="IdentityRepository-to-IdentityRepositoryInterface" style="stroke:#181818;stroke-width:0.6999999999999998;"/><polygon fill="none" points="142.863,204.225,154.759,198.3185,148.8359,192.3623,142.863,204.225" style="stroke:#181818;stroke-width:0.6999999999999998;"/><polygon fill="#000000" points="232.4001,131.3255,238.716,133.4304,238.747,129.316,232.4001,131.3255" style="stroke:#000000;stroke-width:0.6999999999999998;"/><text fill="#000000" font-family="sans-serif" font-size="9.1" lengthAdjust="spacing" textLength="46.5264" x="242.2" y="135.1198">implements</text></g><!--link IdentityService to IdentityRepositoryInterface--><g id="link_IdentityService_IdentityRepositoryInterface"><path codeLine="62" d="M257.04,90.769 C239.484,100.555 221.501,111.986 206.15,124.6 C178.164,147.602 152.292,179.676 134.498,204.19 " fill="none" id="IdentityService-IdentityRepositoryInterface" style="stroke:#181818;stroke-width:0.6999999999999998;"/><text fill="#000000" font-family="sans-serif" font-size="9.1" lengthAdjust="spacing" textLength="19.222" x="206.85" y="135.1198">uses</text><text fill="#000000" font-family="sans-serif" font-size="9.1" lengthAdjust="spacing" textLength="5.061" x="241.9575" y="106.0493">1</text><text fill="#000000" font-family="sans-serif" font-size="9.1" lengthAdjust="spacing" textLength="5.061" x="132.5153" y="196.4109">1</text></g><!--link IdentityService to User--><g id="link_IdentityService_User"><path codeLine="63" d="M444.598,85.729 C536.424,111.811 655.333,146.825 675.85,158.9 C680.043,161.371 684.194,164.087 688.261,166.992 " fill="none" id="IdentityService-User" style="stroke:#181818;stroke-width:0.6999999999999998;"/><text fill="#000000" font-family="sans-serif" font-size="9.1" lengthAdjust="spacing" textLength="19.222" x="612.85" y="135.1198">uses</text><text fill="#000000" font-family="sans-serif" font-size="9.1" lengthAdjust="spacing" textLength="5.061" x="449.7176" y="84.8124">1</text><text fill="#000000" font-family="sans-serif" font-size="9.1" lengthAdjust="spacing" textLength="5.061" x="677.6934" y="158.8075">1</text></g><!--link IdentityService to AuthStrategy--><g id="link_IdentityService_AuthStrategy"><path codeLine="65" d="M334.25,90.867 C334.25,128.198 334.25,185.507 334.25,217.14 " fill="none" id="IdentityService-AuthStrategy" style="stroke:#181818;stroke-width:0.6999999999999998;"/><text fill="#000000" font-family="sans-serif" font-size="9.1" lengthAdjust="spacing" textLength="19.222" x="334.95" y="135.1198">uses</text><text fill="#000000" font-family="sans-serif" font-size="9.1" lengthAdjust="spacing" textLength="5.061" x="329.0742" y="105.8929">1</text><text fill="#000000" font-family="sans-serif" font-size="9.1" lengthAdjust="spacing" textLength="5.061" x="328.9131" y="209.4601">1</text></g><!--reverse link AuthStrategy to GoogleAuthStrategy--><g id="link_AuthStrategy_GoogleAuthStrategy"><path codeLine="66" d="M310.2251,274.6091 C290.2331,302.1611 264.292,337.918 244.356,365.4 " fill="none" id="AuthStrategy-backto-GoogleAuthStrategy" style="stroke:#181818;stroke-width:0.6999999999999998;"/><polygon fill="none" points="317.625,264.411,306.8258,272.1425,313.6245,277.0758,317.625,264.411" style="stroke:#181818;stroke-width:0.6999999999999998;"/></g><!--reverse link AuthStrategy to MicrosoftAuthStrategy--><g id="link_AuthStrategy_MicrosoftAuthStrategy"><path codeLine="67" d="M358.2749,274.6091 C378.2669,302.1611 404.208,337.918 424.144,365.4 " fill="none" id="AuthStrategy-backto-MicrosoftAuthStrategy" style="stroke:#181818;stroke-width:0.6999999999999998;"/><polygon fill="none" points="350.875,264.411,354.8755,277.0758,361.6742,272.1425,350.875,264.411" style="stroke:#181818;stroke-width:0.6999999999999998;"/></g><!--SRC=[pLN1Rjim3BtxAuIUN1G-x1eC1Rnr6pnimz2qkwiousgLnK2YCmJh_dsqh3XnhEJGzJ1VR8cFZu_FbAqjWLj91QBiw759JX8qM_4x4tnT2ScRO4ahtiwLWxfVIEF5GZ1Ms-QId-uzkEnFbYaZlHUV41i3hyNsLIk77bVqMeHLmD1s2MwZkUs1gWXK8_zYuaOivc4Y8lTfT5zoWxh-TudlqP93Oy2D3HjijCtxb5kejGD5CU3YygF3jlnUVT7sAS266ljix2Yc-pLQ3qkIrFaORu1w9PLTOKxu17OkSZ1B7vcuEBQrsetLlAjRMAFNX6uxUl-pVb1tqAuDUyHSdm-MKHaRnujlyAjK2ZjBUSTYegPUsmEY0MaZUgLj7O7ljjLDhck6Q4kJBgv4jwwPD09lWAGs_XGnjw77etAgsHVCvSj6AwbcR-nSqF_Wtp06VM1yyJlYkDmWEYjbEvtRGl24Uh0RXCR3WOcxawiUkTrK7hGiYJS_zFVzZ7D7bmTrmzwFM7f-Q3XuDwcVX9IZY6GuA0YHGGlRSVmXAfwlJmyMg-Np02s7lRZE4cVfC3qr2KSCi_8NRov4KOJRUHf-mVvSzlqm005s3bTEFxW1Fzbx-yp8-Tya0Kh-9BA_]--></g></svg>